<svg xmlns="http://www.w3.org/2000/svg" viewBox="0 0 87.53 71.3"><defs><style>.cls-1{fill:#818181;}</style></defs><g id="图层_2" data-name="图层 2"><g id="图层_1-2" data-name="图层 1"><path class="cls-1" d="M59.24,21.57a29.62,29.62,0,0,1,3,.18C59.55,9.27,46.21,0,31,0,14,0,0,11.6,0,26.34c0,8.51,4.64,15.49,12.39,20.92L9.3,56.57l10.83-5.43c3.87.76,7,1.55,10.85,1.55,1,0,1.94,0,2.89-.11a23.14,23.14,0,0,1-1-6.5c0-13.53,11.62-24.51,26.33-24.51ZM42.59,13.18A3.64,3.64,0,0,1,46.47,17a3.66,3.66,0,0,1-3.88,3.88C40.28,20.92,38,19.36,38,17s2.33-3.86,4.64-3.86ZM20.92,20.91c-2.33,0-4.67-1.56-4.67-3.87s2.34-3.87,4.67-3.87A3.64,3.64,0,0,1,24.78,17a3.66,3.66,0,0,1-3.86,3.87Zm66.61,24.8c0-12.38-12.4-22.48-26.32-22.48-14.75,0-26.34,10.11-26.34,22.48s11.6,22.48,26.34,22.48a39.13,39.13,0,0,0,9.29-1.54L79,71.3l-2.33-7.74c6.22-4.68,10.86-10.86,10.86-17.85ZM52.66,41.83a3.31,3.31,0,0,1-3.09-3.09,3.34,3.34,0,0,1,3.09-3.1c2.35,0,3.88,1.56,3.88,3.1s-1.53,3.1-3.88,3.09Zm17,0a3.31,3.31,0,0,1-3.08-3.09,3.34,3.34,0,0,1,3.08-3.1c2.33,0,3.88,1.56,3.88,3.1s-1.55,3.1-3.88,3.09Z"/></g></g></svg>