<svg xmlns="http://www.w3.org/2000/svg" viewBox="0 0 104 106.39"><defs><style>.cls-1{fill:#28c445;}.cls-2{fill:#fff;}</style></defs><g id="图层_2" data-name="图层 2"><g id="图层_1-2" data-name="图层 1"><path class="cls-1" d="M60.42,7.5,52.92,0,45.43,7.5H5.56A5.55,5.55,0,0,0,0,13.05v87.78a5.56,5.56,0,0,0,5.56,5.56H98.44a5.56,5.56,0,0,0,5.56-5.56V13.05A5.55,5.55,0,0,0,98.44,7.5Z"/><polygon class="cls-2" points="27.99 72.02 27.99 73.79 27.99 75.56 29.77 75.56 29.77 73.79 31.54 73.79 31.54 72.02 29.77 72.02 27.99 72.02"/><rect class="cls-2" x="52.83" y="43.63" width="1.77" height="1.77"/><polygon class="cls-2" points="33.31 63.15 31.54 63.15 31.54 64.92 31.54 66.69 33.31 66.69 33.31 64.92 33.31 63.15"/><polygon class="cls-2" points="29.77 68.47 29.77 70.24 31.54 70.24 31.54 68.47 31.54 66.69 29.77 66.69 29.77 68.47"/><rect class="cls-2" x="51.06" y="45.4" width="1.77" height="1.77"/><rect class="cls-2" x="40.41" y="50.73" width="1.77" height="1.77"/><rect class="cls-2" x="49.28" y="47.18" width="1.77" height="1.77"/><rect class="cls-2" x="31.54" y="70.24" width="1.77" height="1.77"/><rect class="cls-2" x="29.77" y="75.56" width="1.77" height="1.77"/><rect class="cls-2" x="33.31" y="66.69" width="1.77" height="1.77"/><rect class="cls-2" x="38.64" y="70.24" width="1.77" height="1.77"/><rect class="cls-2" x="42.19" y="66.69" width="1.77" height="1.77"/><rect class="cls-2" x="36.86" y="68.47" width="1.77" height="1.77"/><polygon class="cls-2" points="29.77 79.11 29.77 80.89 31.54 80.89 33.31 80.89 33.31 79.11 33.31 77.34 31.54 77.34 31.54 79.11 29.77 79.11"/><polygon class="cls-2" points="51.06 72.02 52.83 72.02 52.83 73.79 51.06 73.79 51.06 75.56 52.83 75.56 54.61 75.56 54.61 73.79 56.38 73.79 56.38 72.02 58.15 72.02 58.15 73.79 56.38 73.79 56.38 75.56 58.15 75.56 58.15 77.34 59.93 77.34 59.93 79.11 58.15 79.11 58.15 77.34 56.38 77.34 54.61 77.34 54.61 79.11 52.83 79.11 52.83 80.89 54.61 80.89 56.38 80.89 58.15 80.89 58.15 82.66 59.93 82.66 61.7 82.66 61.7 84.44 63.48 84.44 63.48 86.21 65.25 86.21 65.25 84.44 67.03 84.44 67.03 86.21 68.8 86.21 68.8 84.44 70.57 84.44 70.57 82.66 68.8 82.66 68.8 80.89 67.03 80.89 67.03 82.66 65.25 82.66 65.25 80.89 63.48 80.89 63.48 79.11 61.7 79.11 61.7 77.34 61.7 75.56 61.7 73.79 61.7 72.02 59.93 72.02 59.93 70.24 58.15 70.24 56.38 70.24 54.61 70.24 54.61 68.47 52.83 68.47 52.83 66.69 51.06 66.69 51.06 64.92 51.06 63.15 49.28 63.15 49.28 64.92 49.28 66.69 49.28 68.47 49.28 70.24 49.28 72.02 49.28 73.79 51.06 73.79 51.06 72.02"/><polygon class="cls-2" points="42.19 52.5 42.19 54.27 42.19 56.05 40.41 56.05 40.41 54.27 38.64 54.27 36.86 54.27 36.86 56.05 36.86 57.82 38.64 57.82 40.41 57.82 40.41 59.6 40.41 61.37 40.41 63.15 38.64 63.15 38.64 64.92 40.41 64.92 42.19 64.92 43.96 64.92 43.96 63.15 42.19 63.15 42.19 61.37 43.96 61.37 45.73 61.37 45.73 63.15 47.51 63.15 47.51 61.37 47.51 59.6 47.51 57.82 45.73 57.82 45.73 56.05 43.96 56.05 43.96 54.27 45.73 54.27 45.73 52.5 43.96 52.5 42.19 52.5"/><polygon class="cls-2" points="35.09 73.79 36.86 73.79 38.64 73.79 38.64 72.02 36.86 72.02 35.09 72.02 33.31 72.02 33.31 73.79 35.09 73.79"/><path class="cls-2" d="M52.83,31.21h1.78V25.89H49.28v5.32h3.55Zm-1.77-3.55h1.77v1.77H51.06Z"/><rect class="cls-2" x="24.44" y="34.76" width="1.77" height="1.77"/><polygon class="cls-2" points="42.19 31.21 43.96 31.21 43.96 29.43 43.96 27.66 42.19 27.66 42.19 29.43 42.19 31.21"/><polygon class="cls-2" points="45.73 32.98 47.51 32.98 47.51 31.21 45.73 31.21 43.96 31.21 43.96 32.98 45.73 32.98"/><rect class="cls-2" x="45.73" y="27.66" width="1.77" height="1.77"/><polygon class="cls-2" points="47.51 48.95 45.73 48.95 45.73 47.18 47.51 47.18 47.51 45.4 45.73 45.4 43.96 45.4 42.19 45.4 40.41 45.4 40.41 47.18 42.19 47.18 42.19 48.95 43.96 48.95 43.96 50.73 45.73 50.73 45.73 52.5 47.51 52.5 47.51 50.73 49.28 50.73 49.28 48.95 47.51 48.95"/><path class="cls-2" d="M38.64,41.85V45.4h1.77V41.85h1.78v1.78h5.32V45.4h3.55V43.63H49.28V41.85h5.33v1.78h1.77V45.4h1.77v1.78H56.38V45.4H54.61V49H61.7V47.18H59.93V45.4H61.7v1.78h1.78V43.63H61.7V41.85H59.93V40.08h3.55V38.31H59.93V36.53H56.38V34.76H54.61V33H52.83v1.78H49.28v1.77H45.73V34.76H44v3.55h5.32v1.77H47.51v1.77H44V38.31H42.19v1.77H40.41V38.31H38.64v3.54Zm12.42-3.54V36.53h3.55v1.78h1.77v1.77H51.06Z"/><polygon class="cls-2" points="61.7 25.89 61.7 27.66 63.48 27.66 63.48 25.89 63.48 24.11 65.25 24.11 65.25 22.34 65.25 20.56 63.48 20.56 61.7 20.56 61.7 22.34 61.7 24.11 59.93 24.11 59.93 25.89 61.7 25.89"/><rect class="cls-2" x="22.67" y="36.53" width="1.77" height="1.77"/><rect class="cls-2" x="40.41" y="36.53" width="1.77" height="1.77"/><polygon class="cls-2" points="67.03 22.34 67.03 24.11 67.03 25.89 67.03 27.66 67.03 29.43 65.25 29.43 65.25 31.21 67.03 31.21 67.03 32.98 68.8 32.98 68.8 31.21 68.8 29.43 68.8 27.66 68.8 25.89 70.57 25.89 72.35 25.89 72.35 24.11 70.57 24.11 68.8 24.11 68.8 22.34 68.8 20.56 67.03 20.56 67.03 22.34"/><polygon class="cls-2" points="51.06 48.95 51.06 50.73 52.83 50.73 52.83 52.5 54.61 52.5 54.61 50.73 54.61 48.95 52.83 48.95 51.06 48.95"/><rect class="cls-2" x="63.48" y="27.66" width="1.77" height="1.77"/><polygon class="cls-2" points="63.48 32.98 61.7 32.98 59.93 32.98 59.93 34.76 61.7 34.76 61.7 36.53 63.48 36.53 63.48 38.3 65.25 38.3 65.25 36.53 67.03 36.53 67.03 34.76 67.03 32.98 65.25 32.98 63.48 32.98"/><polygon class="cls-2" points="63.48 31.21 63.48 29.43 61.7 29.43 61.7 27.66 59.93 27.66 59.93 29.43 59.93 31.21 61.7 31.21 63.48 31.21"/><polygon class="cls-2" points="58.15 32.98 59.93 32.98 59.93 31.21 58.15 31.21 58.15 29.43 58.15 27.66 56.38 27.66 56.38 29.43 56.38 31.21 56.38 32.98 56.38 34.76 58.15 34.76 58.15 32.98"/><rect class="cls-2" x="40.41" y="32.98" width="1.77" height="1.77"/><polygon class="cls-2" points="68.8 59.6 70.57 59.6 70.57 57.82 70.57 56.05 68.8 56.05 68.8 57.82 68.8 59.6"/><rect class="cls-2" x="68.8" y="48.95" width="1.77" height="1.77"/><rect class="cls-2" x="67.03" y="50.73" width="1.77" height="1.77"/><rect class="cls-2" x="59.93" y="50.73" width="1.77" height="1.77"/><polygon class="cls-2" points="65.25 54.27 67.03 54.27 67.03 52.5 65.25 52.5 65.25 50.73 63.48 50.73 63.48 52.5 61.7 52.5 61.7 54.27 63.48 54.27 63.48 56.05 61.7 56.05 61.7 57.82 63.48 57.82 65.25 57.82 65.25 56.05 65.25 54.27"/><polygon class="cls-2" points="67.03 59.6 67.03 57.82 65.25 57.82 65.25 59.6 63.48 59.6 63.48 61.37 65.25 61.37 67.03 61.37 68.8 61.37 68.8 59.6 67.03 59.6"/><rect class="cls-2" x="67.03" y="54.27" width="1.77" height="1.77"/><polygon class="cls-2" points="59.93 54.27 58.15 54.27 56.38 54.27 56.38 56.05 58.15 56.05 59.93 56.05 61.7 56.05 61.7 54.27 59.93 54.27"/><polygon class="cls-2" points="68.8 66.69 68.8 64.92 68.8 63.15 67.03 63.15 65.25 63.15 65.25 64.92 65.25 66.69 65.25 68.47 67.03 68.47 67.03 66.69 68.8 66.69"/><rect class="cls-2" x="68.8" y="70.24" width="1.77" height="1.77"/><path class="cls-2" d="M17.35,27.66h5.32V18.79H13.8v8.87h3.55Zm-1.78-3.55V20.56H20.9v5.33H15.57Z"/><rect class="cls-2" x="79.45" y="36.53" width="1.77" height="1.77"/><path class="cls-2" d="M19.12,86.21H13.8v8.87h8.87V86.21H19.12Zm1.78,3.55v3.55H15.57V88H20.9Z"/><polygon class="cls-2" points="68.8 72.02 67.03 72.02 67.03 73.79 67.03 75.56 68.8 75.56 68.8 73.79 68.8 72.02"/><rect class="cls-2" x="81.22" y="43.63" width="1.77" height="1.77"/><polygon class="cls-2" points="75.9 66.69 77.67 66.69 77.67 64.92 75.9 64.92 74.12 64.92 74.12 66.69 75.9 66.69"/><rect class="cls-2" x="49.28" y="50.73" width="1.77" height="1.77"/><rect class="cls-2" x="67.03" y="89.76" width="1.77" height="1.77"/><polygon class="cls-2" points="63.48 72.02 65.25 72.02 65.25 70.24 63.48 70.24 61.7 70.24 61.7 72.02 63.48 72.02"/><rect class="cls-2" x="59.93" y="68.47" width="1.77" height="1.77"/><polygon class="cls-2" points="58.15 66.69 56.38 66.69 56.38 68.47 58.15 68.47 59.93 68.47 59.93 66.69 58.15 66.69"/><polygon class="cls-2" points="65.25 87.98 63.48 87.98 61.7 87.98 59.93 87.98 59.93 89.76 58.15 89.76 56.38 89.76 54.61 89.76 54.61 91.53 54.61 93.31 54.61 95.08 56.38 95.08 56.38 93.31 56.38 91.53 58.15 91.53 59.93 91.53 61.7 91.53 61.7 89.76 63.48 89.76 63.48 91.53 65.25 91.53 65.25 89.76 67.03 89.76 67.03 87.98 67.03 86.21 65.25 86.21 65.25 87.98"/><polygon class="cls-2" points="51.06 77.34 51.06 75.56 49.28 75.56 49.28 77.34 49.28 79.11 47.51 79.11 47.51 80.89 49.28 80.89 51.06 80.89 51.06 79.11 52.83 79.11 52.83 77.34 51.06 77.34"/><rect class="cls-2" x="58.15" y="84.44" width="1.77" height="1.77"/><rect class="cls-2" x="56.38" y="82.66" width="1.77" height="1.77"/><polygon class="cls-2" points="45.73 66.69 47.51 66.69 47.51 64.92 45.73 64.92 43.96 64.92 43.96 66.69 45.73 66.69"/><rect class="cls-2" x="77.67" y="34.76" width="1.77" height="1.77"/><polygon class="cls-2" points="70.57 29.43 70.57 31.21 72.35 31.21 72.35 29.43 72.35 27.66 70.57 27.66 70.57 29.43"/><rect class="cls-2" x="52.83" y="63.14" width="1.77" height="1.77"/><polygon class="cls-2" points="77.67 36.53 75.9 36.53 74.12 36.53 74.12 38.3 72.35 38.3 72.35 36.53 74.12 36.53 74.12 34.76 74.12 32.98 74.12 31.21 72.35 31.21 72.35 32.98 72.35 34.76 70.57 34.76 70.57 36.53 70.57 38.3 70.57 40.08 68.8 40.08 67.03 40.08 65.25 40.08 65.25 41.85 65.25 43.63 65.25 45.4 67.03 45.4 67.03 43.63 68.8 43.63 68.8 41.85 70.57 41.85 72.35 41.85 72.35 43.63 70.57 43.63 70.57 45.4 72.35 45.4 74.12 45.4 74.12 47.18 75.9 47.18 75.9 48.95 74.12 48.95 74.12 47.18 72.35 47.18 72.35 48.95 72.35 50.73 70.57 50.73 70.57 52.5 70.57 54.27 72.35 54.27 72.35 56.05 72.35 57.82 72.35 59.6 72.35 61.37 70.57 61.37 68.8 61.37 68.8 63.15 70.57 63.15 70.57 64.92 70.57 66.69 72.35 66.69 72.35 64.92 74.12 64.92 74.12 63.15 75.9 63.15 77.67 63.15 77.67 61.37 75.9 61.37 75.9 59.6 74.12 59.6 74.12 57.82 75.9 57.82 75.9 56.05 75.9 54.27 75.9 52.5 75.9 50.73 77.67 50.73 77.67 52.5 79.44 52.5 81.22 52.5 82.99 52.5 82.99 50.73 81.22 50.73 81.22 48.95 82.99 48.95 82.99 47.18 81.22 47.18 79.44 47.18 79.44 45.4 77.67 45.4 77.67 43.63 75.9 43.63 75.9 41.85 77.67 41.85 79.44 41.85 79.44 43.63 81.22 43.63 81.22 41.85 81.22 40.08 79.44 40.08 79.44 38.3 77.67 38.3 77.67 36.53"/><rect class="cls-2" x="51.06" y="61.37" width="1.77" height="1.77"/><rect class="cls-2" x="67.03" y="68.47" width="1.77" height="1.77"/><polygon class="cls-2" points="65.25 80.89 67.03 80.89 67.03 79.11 67.03 77.34 65.25 77.34 65.25 75.56 63.48 75.56 63.48 77.34 63.48 79.11 65.25 79.11 65.25 80.89"/><polygon class="cls-2" points="31.54 61.37 31.54 59.6 29.77 59.6 29.77 61.37 29.77 63.15 31.54 63.15 31.54 61.37"/><polygon class="cls-2" points="81.22 61.37 81.22 63.15 82.99 63.15 84.77 63.15 84.77 61.37 82.99 61.37 81.22 61.37"/><path class="cls-2" d="M54.61,86.21V82.66H49.28V88h5.33Zm-1.78,0H51.06V84.44h1.77Z"/><rect class="cls-2" x="13.8" y="73.79" width="1.77" height="1.77"/><rect class="cls-2" x="17.35" y="59.6" width="1.77" height="1.77"/><rect class="cls-2" x="82.99" y="48.95" width="1.77" height="1.77"/><polygon class="cls-2" points="47.51 77.34 47.51 75.56 49.28 75.56 49.28 73.79 47.51 73.79 47.51 72.02 45.73 72.02 45.73 70.24 47.51 70.24 47.51 68.47 45.73 68.47 43.96 68.47 43.96 70.24 43.96 72.02 42.19 72.02 42.19 73.79 40.41 73.79 40.41 75.56 42.19 75.56 42.19 77.34 40.41 77.34 38.64 77.34 38.64 79.11 40.41 79.11 40.41 80.89 42.19 80.89 42.19 79.11 43.96 79.11 43.96 77.34 45.73 77.34 45.73 79.11 47.51 79.11 47.51 77.34"/><rect class="cls-2" x="13.8" y="63.14" width="1.77" height="1.77"/><rect class="cls-2" x="15.57" y="61.37" width="1.77" height="1.77"/><polygon class="cls-2" points="20.89 50.73 20.89 52.5 22.67 52.5 24.44 52.5 24.44 50.73 22.67 50.73 20.89 50.73"/><polygon class="cls-2" points="67.03 91.53 65.25 91.53 65.25 93.31 65.25 95.08 67.03 95.08 67.03 93.31 67.03 91.53"/><rect class="cls-2" x="33.31" y="91.53" width="1.77" height="1.77"/><rect class="cls-2" x="33.31" y="87.98" width="1.77" height="1.77"/><rect class="cls-2" x="68.8" y="93.31" width="1.77" height="1.77"/><rect class="cls-2" x="27.99" y="80.89" width="1.77" height="1.77"/><polygon class="cls-2" points="31.54 89.76 31.54 87.98 29.77 87.98 29.77 89.76 29.77 91.53 31.54 91.53 31.54 89.76"/><path class="cls-2" d="M22.67,54.27H20.9V59.6h5.32V54.27H22.67Zm1.77,3.55H22.67V56.05h1.77Z"/><polygon class="cls-2" points="36.86 89.76 35.09 89.76 35.09 91.53 36.86 91.53 38.64 91.53 38.64 89.76 36.86 89.76"/><path class="cls-2" d="M86.54,18.79H81.22v8.87h8.87V18.79H86.54Zm1.78,3.55v3.55H83V20.56h5.33Z"/><rect class="cls-2" x="24.44" y="73.79" width="1.77" height="1.77"/><rect class="cls-2" x="35.09" y="75.56" width="1.77" height="1.77"/><polygon class="cls-2" points="35.09 80.89 35.09 82.66 36.86 82.66 36.86 80.89 36.86 79.11 35.09 79.11 35.09 80.89"/><polygon class="cls-2" points="38.64 86.21 38.64 84.44 36.86 84.44 35.09 84.44 33.31 84.44 33.31 82.66 31.54 82.66 31.54 84.44 31.54 86.21 31.54 87.98 33.31 87.98 33.31 86.21 35.09 86.21 36.86 86.21 36.86 87.98 38.64 87.98 40.41 87.98 40.41 86.21 38.64 86.21"/><polygon class="cls-2" points="88.32 79.11 86.54 79.11 86.54 77.34 88.32 77.34 88.32 75.56 88.32 73.79 88.32 72.02 90.09 72.02 90.09 70.24 90.09 68.47 90.09 66.69 90.09 64.92 90.09 63.15 88.32 63.15 88.32 64.92 86.54 64.92 86.54 66.69 86.54 68.47 88.32 68.47 88.32 70.24 86.54 70.24 86.54 72.02 84.77 72.02 82.99 72.02 82.99 70.24 84.77 70.24 86.54 70.24 86.54 68.47 84.77 68.47 84.77 66.69 82.99 66.69 82.99 68.47 81.22 68.47 79.44 68.47 79.44 66.69 77.67 66.69 77.67 68.47 77.67 70.24 79.44 70.24 81.22 70.24 81.22 72.02 81.22 73.79 81.22 75.56 79.44 75.56 79.44 73.79 77.67 73.79 77.67 72.02 77.67 70.24 75.9 70.24 75.9 72.02 74.12 72.02 74.12 70.24 74.12 68.47 74.12 66.69 72.35 66.69 72.35 68.47 70.57 68.47 70.57 70.24 72.35 70.24 72.35 72.02 72.35 73.79 74.12 73.79 74.12 75.56 72.35 75.56 70.57 75.56 68.8 75.56 68.8 77.34 70.57 77.34 72.35 77.34 72.35 79.11 74.12 79.11 74.12 80.89 74.12 82.66 72.35 82.66 72.35 84.44 72.35 86.21 74.12 86.21 74.12 84.44 75.9 84.44 75.9 82.66 75.9 80.89 77.67 80.89 79.44 80.89 81.22 80.89 81.22 79.11 79.44 79.11 77.67 79.11 77.67 77.34 79.44 77.34 81.22 77.34 82.99 77.34 82.99 75.56 84.77 75.56 84.77 77.34 82.99 77.34 82.99 79.11 82.99 80.89 84.77 80.89 86.54 80.89 86.54 82.66 84.77 82.66 84.77 84.44 86.54 84.44 88.32 84.44 88.32 82.66 88.32 80.89 90.09 80.89 90.09 79.11 88.32 79.11"/><path class="cls-2" d="M31.54,50.73h3.55V52.5H31.54v3.55H29.77v1.77h1.77V59.6h1.77v3.54h1.78v3.55h3.55V64.92H36.86V63.14h1.78V61.37H36.86V57.82H33.31V54.27h3.55V50.73h3.55V49H38.64V45.4H36.86V43.63H35.09V45.4H33.31v1.78H31.54V45.4h1.77V40.08h3.55V38.31H31.54v3.54H29.77V49h1.77Zm3.55-3.55h1.77V49H35.09Z"/><path class="cls-2" d="M9.65,17.35V96.52a2.72,2.72,0,0,0,2.71,2.71H91.53a2.72,2.72,0,0,0,2.71-2.71V17.35a2.72,2.72,0,0,0-2.71-2.71H12.36A2.72,2.72,0,0,0,9.65,17.35ZM40.41,17h1.78v1.78H40.41ZM26.22,17H36.86v1.78h1.78v1.77H36.86v1.78h1.78v1.77H33.31V20.56H28V18.79H26.22ZM12,27.66V17H24.44V29.43H12Zm0,19.52V43.63H13.8V41.85H12V36.53H13.8v5.32h1.77v5.33H13.8V49h1.77V52.5H13.8V49H12Zm0,33.71H13.8V79.11h5.32V77.34H20.9v5.32H17.35V80.89H13.8v1.77H12Zm12.42,5.32V96.86H12V84.44H24.44ZM91.86,33V43.63H90.09V41.85H88.32v1.78H86.54V41.85H84.77V45.4h1.77v1.78H84.77V49h1.77v1.78H84.77v5.32h1.77V54.27h1.78V49h1.77V47.18H88.32V45.4h1.77v1.78h1.77V52.5H90.09v1.77h1.77V80.89H90.09v1.77h1.77V88H90.09V84.44H88.32v1.77H84.77v5.32h3.55v1.78h1.77V89.76h1.77v3.55H90.09v1.77h1.77v1.78H88.32V93.31H86.54v1.77H84.77v1.78H81.22v-7.1H79.45v7.1H77.67V93.31H74.12V89.76H72.35v5.32H70.57v1.78H68.8V95.08H67v1.78H61.7V93.31H59.93v3.55H51.06V93.31H49.28v1.77H47.51v1.78H45.73V95.08h1.78V93.31H45.73V91.53h1.78v1.78h1.77V91.53h3.55V89.76H47.51V84.44H45.73V79.11H44v1.78H42.19V88h3.54v1.78H42.19V88H40.41v3.55h1.78v1.78H44v1.77H40.41V91.53H38.64v1.78H35.09v1.77h1.77v1.78H35.09V95.08H33.31v1.78H31.54V95.08h1.77V93.31H29.77V91.53H28v1.78H26.22V91.53H28V89.76H26.22V86.21H28V88h1.78V84.44H26.22V82.66H22.67V80.89H28V77.34H24.44v1.77H22.67V77.34h1.77V75.56H20.9V73.79h3.54V72H22.67V70.24H28V64.92h1.78V63.14H28V61.37H19.12v1.77H20.9v1.78H19.12v3.55H20.9V66.69h3.54V64.92H22.67V63.14h3.55v5.33H20.9v1.77H17.35V66.69H15.57v1.78H13.8V72h1.77v1.77h1.78V72h1.77v3.54H15.57v1.78H12v-16h3.55V59.6H12V56.05H13.8V54.27h3.55v1.78h1.77V50.73H17.35V47.18h1.77V49H20.9V45.4h3.54v1.78H22.67V49h1.77v1.78h1.78V52.5H28V50.73h1.78V49H28V47.18H26.22v-7.1H22.67v1.77h1.77v1.78H19.12V41.85H20.9V36.53H17.35v1.78h1.77v1.77H15.57V36.53h1.78V34.76H15.57V31.21h1.78v3.55H20.9V33H19.12V31.21h5.32V33h1.78V31.21H28V29.43H26.22V27.66H28V24.11H26.22V22.34h3.55v3.55h5.32v3.54h1.77V25.89h1.78v3.54H36.86V33H35.09V31.21H33.31V27.66H31.54v7.1h1.77v1.77h3.55v1.78h1.78V33h1.77V27.66h1.78V25.89h3.54V24.11H44V22.34H40.41V20.56H44v1.78h1.77V18.79H44V17h5.32v1.78H47.51v3.55H45.73v1.77h3.55V20.56h1.78V18.79h1.77v5.32h3.55v1.78h1.77V24.11h1.78V18.79H56.38v1.77h1.77v1.78H56.38V20.56H54.61V18.79h1.77V17h3.55v1.78H61.7V17H67v1.78H68.8v1.77h3.55v3.55h1.77V18.79H75.9V17h1.77v1.78H75.9v3.55h1.77v3.55H72.35v1.77h1.77v1.77H75.9V27.66h1.77v1.77H75.9v5.33h1.77V31.21h1.78V33H83v3.55h1.78v1.78h3.55v1.77h1.77V31.21h1.77Zm-3.54,1.78v1.77H86.54V34.76H84.77V31.21h1.77v3.55Zm3.54-16V29.43H79.45V17H91.86Z"/><polygon class="cls-2" points="59.93 59.6 58.15 59.6 56.38 59.6 56.38 61.37 58.15 61.37 58.15 63.15 56.38 63.15 56.38 64.92 58.15 64.92 59.93 64.92 61.7 64.92 61.7 63.15 61.7 61.37 59.93 61.37 59.93 59.6"/><path class="cls-2" d="M83,59.6V54.27H77.67V59.6H83Zm-3.54-3.55h1.77v1.77H79.45Z"/><path class="cls-2" d="M79.45,82.66H77.67V88H83V82.66H79.45Zm1.77,3.55H79.45V84.44h1.77Z"/><polygon class="cls-2" points="27.99 34.76 27.99 36.53 26.22 36.53 26.22 38.3 27.99 38.3 29.77 38.3 31.54 38.3 31.54 36.53 31.54 34.76 29.77 34.76 29.77 32.98 29.77 31.21 27.99 31.21 27.99 32.98 26.22 32.98 26.22 34.76 27.99 34.76"/><polygon class="cls-2" points="84.77 57.82 84.77 59.6 86.54 59.6 86.54 61.37 88.32 61.37 90.09 61.37 90.09 59.6 90.09 57.82 88.32 57.82 88.32 56.05 86.54 56.05 86.54 57.82 84.77 57.82"/><rect class="cls-2" x="22.67" y="32.98" width="1.77" height="1.77"/><path class="cls-2" d="M51.06,54.27H49.28V59.6h5.33V54.27H51.06Zm1.77,3.55H51.06V56.05h1.77Z"/><rect class="cls-2" x="82.99" y="93.31" width="1.77" height="1.77"/><rect class="cls-2" x="65.25" y="47.18" width="1.77" height="1.77"/><rect class="cls-2" x="74.12" y="87.98" width="1.77" height="1.77"/><rect class="cls-2" x="27.99" y="27.66" width="1.77" height="1.77"/><rect class="cls-2" x="20.9" y="34.76" width="1.77" height="1.77"/></g></g></svg>