<?xml version="1.0" encoding="utf-8"?>
<!-- Generator: Adobe Illustrator 27.3.1, SVG Export Plug-In . SVG Version: 6.00 Build 0)  -->
<svg version="1.1" id="_层_2" xmlns="http://www.w3.org/2000/svg" xmlns:xlink="http://www.w3.org/1999/xlink" x="0px" y="0px"
	 viewBox="0 0 747.1 119.1" style="enable-background:new 0 0 747.1 119.1;" xml:space="preserve">
<style type="text/css">
	.st0{fill:#EFEFEF;}
</style>
<g id="_层_1-2_00000052810516218288489140000003465356688835629977_">
	<g id="_层_2-2">
		<g id="_层_1-2">
			<rect y="0.1" class="st0" width="12" height="119"/>
			<path class="st0" d="M10,108.1h31.5c9,0,15.5-1.7,19.7-5.1s6.3-8.2,6.3-14.3v-4.4c0.1-3.9-0.8-7.7-2.4-11.2
				c-1.6-3.2-4.3-5.8-7.5-7.3c-4-1.8-8.4-2.7-12.9-2.5H10v-11h34.6c7,0,12.2-1.6,15.8-4.8s5.4-7.9,5.4-14.2v-3.4
				c0-6.3-1.9-11-5.8-14.1s-9.6-4.7-17.2-4.7H10v-11h34.8c7.3,0,13.4,1.2,18.3,3.6c4.7,2.2,8.5,5.8,11,10.3c2.6,4.9,3.8,10.4,3.7,16
				v3.2c0,3.8-0.7,7.6-2.2,11.1c-1.5,3.4-3.8,6.5-6.7,8.8c-3.2,2.5-7,4.2-11.1,4.9c4.2,0.5,8.2,2.2,11.6,4.8
				c3.2,2.6,5.7,5.8,7.4,9.6c1.8,4,2.6,8.3,2.6,12.6v4c0.1,5.6-1.3,11.1-4,15.9c-2.7,4.6-6.6,8.2-11.4,10.5
				c-5.5,2.6-11.5,3.8-17.6,3.7H10C10,119.1,10,108.1,10,108.1z"/>
			<rect x="133.5" class="st0" width="11.5" height="119.1"/>
			<path class="st0" d="M140.6,57.8h35.8c3.8,0.1,7.6-0.9,10.9-2.7c3.1-1.8,5.6-4.5,7.2-7.7c1.7-3.6,2.6-7.6,2.5-11.6v-2.5
				c0.1-4-0.8-8-2.5-11.7c-1.5-3.3-4-6-7.2-7.8c-3.4-1.9-7.1-2.8-11-2.7h-35.8V0h35.2c6-0.1,11.9,1.3,17.1,4.1
				c4.8,2.6,8.8,6.6,11.4,11.5c2.8,5.4,4.1,11.3,4,17.4v2.8c0.1,6-1.2,12-4,17.4c-2.6,4.9-6.5,8.9-11.4,11.6
				c-5.3,2.8-11.1,4.2-17.1,4.1h-35.3V57.8L140.6,57.8z"/>
			<polygon class="st0" points="175.1,65.1 185.6,61.3 212.9,119.1 199.3,119.1 			"/>
			<rect x="267.1" y="0.1" class="st0" width="11.8" height="119"/>
			<polygon class="st0" points="275.2,0.1 346.5,0.1 342.5,11.1 275.2,11.1 			"/>
			<polygon class="st0" points="275.2,54.5 338.4,54.5 334.4,65.5 275.2,65.5 			"/>
			<polygon class="st0" points="275.2,108.1 346.5,108.1 342.5,119.1 275.2,119.1 			"/>
			<rect x="534.1" y="0.1" class="st0" width="11.8" height="119"/>
			<polygon class="st0" points="542.2,0.1 613.5,0.1 609.5,11.1 542.2,11.1 			"/>
			<polygon class="st0" points="542.2,54.5 605.5,54.5 601.5,65.5 542.2,65.5 			"/>
			<polygon class="st0" points="542.2,108.1 613.5,108.1 609.5,119.1 542.2,119.1 			"/>
			<polygon class="st0" points="667.7,0.1 679.4,0.1 739.6,105.4 735.3,103.2 735.3,0.1 747.1,0.1 747.1,119 735.2,119 673.9,13 
				679.5,16.3 679.5,119 667.7,119 			"/>
			<path class="st0" d="M480,99.2c-6,5.5-14.4,8.9-27,8.9c-27.9,0-39-22.3-39-48.7S425.1,11,452.7,11c12.6,0,21.2,3.5,27.3,8.9V5.7
				C472.8,2.1,463.9,0,453,0c-35.3,0-52.4,27.1-52.4,59.9s15.4,59.2,51.8,59.2c11.4,0,20.4-2.2,27.6-5.9V99.2L480,99.2z"/>
		</g>
	</g>
</g>
</svg>
