<?xml version="1.0" encoding="utf-8"?>
<!-- Generator: Adobe Illustrator 26.0.2, SVG Export Plug-In . SVG Version: 6.00 Build 0)  -->
<svg version="1.1" id="图层_1" xmlns="http://www.w3.org/2000/svg" xmlns:xlink="http://www.w3.org/1999/xlink" x="0px" y="0px"
	 viewBox="0 0 457 247" style="enable-background:new 0 0 457 247;" xml:space="preserve">
<style type="text/css">
	.st0{fill:#818181;}
	.st1{fill-rule:evenodd;clip-rule:evenodd;fill:#818181;}
	.st2{clip-path:url(#SVGID_00000042012946345874687530000004061476431934028196_);fill:#818181;}
	.st3{clip-path:url(#SVGID_00000006668283945794967310000005600330526608327602_);fill:#818181;}
	.st4{fill:none;}
</style>
<g>
	<path class="st0" d="M238.47,128.77c-2.5,0-4.83-0.05-7.16,0.02c-0.94,0.03-1.18-0.27-1.12-1.16c0.08-1.09,0.07-2.19,0-3.28
		c-0.05-0.76,0.24-0.89,0.93-0.89c3.95,0.03,7.89,0,11.84,0.03c0.68,0.01,1.15-0.18,1.62-0.67c1.23-1.3,2.52-2.54,3.79-3.8
		c1-1,2.19-1.51,3.63-1.49c2.9,0.03,5.81,0.01,8.99,0.01c-2.07,2.04-3.95,3.88-6.04,5.94c2.76,0,5.23,0,7.69,0
		c1.61,0,3.4,0.43,4.77-0.15c1.4-0.6,2.37-2.19,3.53-3.34c0.18-0.18,0.38-0.35,0.53-0.55c0.31-0.41,0.54-0.45,0.91,0
		c2.5,3.05,5.02,6.07,7.57,9.15c-0.36,0.33-0.77,0.18-1.13,0.18c-9.35,0.01-18.71,0.02-28.06-0.01c-0.76,0-1.28,0.23-1.8,0.76
		c-8.08,8.09-16.18,16.15-24.25,24.23c-0.8,0.8-1.67,1.19-2.81,1.19c-16.95-0.02-33.91-0.01-50.86-0.01c-0.21,0-0.42,0-0.61,0
		c-0.18-0.35,0.1-0.45,0.23-0.58c2.27-2.28,4.56-4.53,6.81-6.82c0.46-0.47,0.78-0.58,1.18,0c0.53,0.76,1.26,0.92,2.17,0.91
		c4.82-0.04,9.65-0.04,14.47,0c0.77,0.01,1.07-0.11,1.06-0.99c-0.05-3.76-0.05-7.52,0-11.27c0.01-0.75-0.23-0.89-0.93-0.89
		c-5.41,0.03-10.81,0-16.22,0.04c-0.85,0.01-1.12-0.19-1.07-1.06c0.08-1.49,0.07-2.99,0-4.49c-0.04-0.8,0.17-1.04,1.01-1.04
		c5.33,0.04,10.67,0,16,0.04c0.93,0.01,1.23-0.18,1.21-1.18c-0.07-3.61-0.05-7.22-0.01-10.84c0.01-0.76-0.2-0.97-0.97-0.97
		c-5.41,0.03-10.81,0-16.22,0.04c-0.78,0.01-1.08-0.13-1.03-0.99c0.08-1.42,0.11-2.85-0.01-4.27c-0.08-1.04,0.32-1.15,1.21-1.15
		c13.3,0.03,26.6,0.02,39.9,0.02c2.45,0,4.9,0.02,7.34-0.01c0.63-0.01,0.8,0.18,0.78,0.79c-0.04,1.57-0.05,3.14,0,4.71
		c0.02,0.71-0.17,0.9-0.89,0.9c-5.37-0.03-10.74,0-16.11-0.04c-0.87-0.01-1.08,0.22-1.07,1.07c0.05,3.65,0.04,7.3,0,10.95
		c-0.01,0.76,0.17,0.97,0.95,0.96c5.37-0.04,10.74,0,16.11-0.04c0.84-0.01,1.05,0.22,1.01,1.03c-0.07,1.53-0.07,3.07,0,4.6
		c0.03,0.77-0.18,0.96-0.95,0.96c-5.37-0.04-10.74,0-16.11-0.04c-0.82-0.01-1.02,0.19-1.01,1.01c0.05,3.72,0.04,7.44,0.01,11.16
		c-0.01,0.69,0.14,0.95,0.89,0.93c2.48-0.05,4.97-0.02,7.45-0.02c0.84,0,1.57-0.21,2.18-0.82c6.12-6.12,12.25-12.23,18.37-18.34
		C238.27,129.11,238.31,129.01,238.47,128.77z"/>
	<path class="st0" d="M81.02,169.98c2.54-3.81,4.23-7.84,5.11-12.21c1.18-5.92,0.54-11.69-0.91-17.52
		c-2.91-11.66-0.76-22.53,5.81-32.56c0.51-0.77,0.94-1.15,1.73-0.4c0.35,0.33,0.6,0.33,0.93-0.13c2.03-2.89,4.61-5.27,7.37-7.44
		c0.62-0.49,0.83-0.84,0.19-1.42c-0.55-0.49-0.31-0.77,0.21-1.13c8.36-5.79,17.61-8.07,27.69-7.04c8.1,0.83,15.24,3.96,21.56,9.06
		c0.77,0.62,0.75,0.94,0.05,1.61c-2.7,2.61-5.36,5.28-7.99,7.97c-0.56,0.57-0.88,0.63-1.56,0.12c-14.58-11.03-35.71-5.01-42,12.07
		c-3.42,9.29-2.04,18.05,3.81,26.07c0.36,0.49,0.66,0.79,0.04,1.4c-7.09,7.01-14.14,14.06-21.2,21.09
		C81.68,169.71,81.55,170.02,81.02,169.98z"/>
	<path class="st0" d="M168.35,90.86c-2.02,3.3-3.65,6.76-4.62,10.52c-1.63,6.33-1.33,12.58,0.3,18.89
		c3.07,11.87,1.04,22.95-5.69,33.19c-0.5,0.77-0.96,1.13-1.73,0.39c-0.39-0.38-0.65-0.25-0.94,0.17c-2.05,2.93-4.67,5.31-7.46,7.5
		c-0.58,0.46-0.63,0.78-0.14,1.25c0.61,0.57,0.32,0.88-0.26,1.28c-8.37,5.77-17.63,8.02-27.7,6.96c-8.13-0.85-15.31-4.01-21.6-9.2
		c-0.6-0.5-0.6-0.76-0.05-1.3c2.77-2.71,5.5-5.44,8.21-8.2c0.5-0.51,0.78-0.58,1.39-0.11c15.6,11.86,38.02,4.18,42.96-14.78
		c2.21-8.48,0.49-16.31-4.72-23.36c-0.29-0.39-0.69-0.65-0.11-1.22c7.31-7.24,14.59-14.52,21.89-21.78
		C168.17,90.97,168.27,90.92,168.35,90.86z"/>
	<path class="st0" d="M341.16,136.74c0,2.22,0,4.43,0,6.65c-0.01,2.99-0.02,5.98-0.03,8.97c-0.01,1.87-0.69,2.55-2.6,2.55
		c-4.2,0.01-8.4-0.02-12.6,0.01c-1.06,0.01-1.88-0.33-2.63-1.08c-5.35-5.38-10.73-10.74-16.08-16.12c-0.5-0.5-0.99-0.72-1.7-0.72
		c-7.82,0.02-15.63,0-23.45,0.02c-0.81,0-1.16-0.13-1.1-1.05c0.09-1.31,0.08-2.63-0.01-3.94c-0.06-0.87,0.26-0.99,1.04-0.99
		c5.7,0.03,11.39,0.03,17.09,0c0.54,0,1.4,0.33,1.57-0.24c0.23-0.75,0.29-1.66-0.19-2.43c-0.31-0.5-0.74-0.89-1.22-1.25
		c0.21-0.33,0.53-0.16,0.78-0.17c3.36-0.01,6.72,0.01,10.08-0.02c0.66-0.01,0.91,0.15,0.86,0.84c-0.06,0.8,0.04,1.61-0.03,2.4
		c-0.07,0.77,0.26,0.9,0.94,0.89c5.81-0.02,11.61,0.01,17.42-0.04c0.94-0.01,1.16,0.26,1.11,1.15c-0.08,1.31-0.07,2.63,0,3.94
		c0.04,0.74-0.22,0.9-0.92,0.9c-3.54-0.03-7.08-0.02-10.63-0.02c-0.17,0-0.34,0-0.51,0c-0.08,0.11-0.17,0.22-0.25,0.33
		c0.27,0.16,0.58,0.28,0.8,0.5c3.26,3.24,6.55,6.46,9.74,9.76c1.18,1.22,2.54,0.81,3.89,0.79c0.26,0,0.44-0.26,0.51-0.52
		c0.06-0.21,0.14-0.44,0.1-0.64c-0.49-2.27,0.73-3.7,2.29-5.11c1.91-1.74,3.65-3.66,5.47-5.5C341,136.66,341.08,136.7,341.16,136.74
		z"/>
	<path class="st0" d="M125.8,108.19c0.95,2.74,3.01,4.05,5.59,5.06c6.37,2.49,10.25,7.23,11.69,13.92c0.09,0.42,0.5,1.08-0.5,1.19
		c-0.51,0.05-0.25,0.61-0.24,0.93c0.09,2.84-0.23,5.62-1.45,8.21c-2.85,6.06-7.59,9.6-14.26,10.57c-0.72,0.1-0.85-0.06-0.84-0.74
		c0.03-3.28,0.03-6.56,0-9.84c0-0.57,0.16-0.78,0.73-0.96c2.66-0.86,4.32-3.18,4.34-5.93c0.02-2.81-1.62-5.1-4.34-6.04
		c-0.39-0.13-0.72-0.19-0.72-0.75c0.02-4.96,0.01-9.92,0.01-14.87C125.8,108.69,125.8,108.44,125.8,108.19z"/>
	<path class="st0" d="M123.28,152.73c-0.79-2.43-2.46-3.77-4.7-4.62c-6.62-2.5-10.69-7.23-12.17-14.15
		c-0.1-0.48-0.44-1.05,0.52-1.18c0.44-0.06,0.16-0.63,0.15-0.96c-0.25-6.58,2.25-11.85,7.61-15.7c2.41-1.73,5.14-2.7,8.1-3.03
		c0.55-0.06,0.7,0.07,0.69,0.6c-0.02,3.39-0.01,6.78,0,10.18c0,0.44-0.18,0.59-0.6,0.73c-2.82,1-4.42,3.17-4.46,5.96
		c-0.04,2.79,1.56,4.98,4.45,6.07c0.37,0.14,0.61,0.27,0.61,0.74c-0.03,5.07-0.04,10.13-0.06,15.2
		C123.43,152.59,123.39,152.61,123.28,152.73z"/>
	<path class="st0" d="M285.4,106.22c3.93,0,7.87,0.01,11.8-0.01c0.52,0,0.75,0.16,0.68,0.69c0,0.04,0,0.07,0,0.11
		c0.08,2.28,0.08,2.28,2.34,2.28c4.09,0,8.18,0,12.28,0c1.01,0,1.21-0.36,0.69-1.24c-0.44-0.75-1.16-1.19-2.15-1.83
		c0.82,0,1.33,0,1.85,0c3.32,0,6.65,0.02,9.97-0.01c0.71-0.01,1.03,0.1,1.02,0.93c-0.03,2.15,0.02,2.15,2.14,2.15
		c1.17,0,2.34,0.02,3.51-0.01c0.54-0.01,0.8,0.1,0.78,0.72c-0.04,1.31-0.04,2.63,0,3.94c0.02,0.63-0.27,0.71-0.79,0.71
		c-1.57-0.02-3.14,0.03-4.71-0.03c-0.78-0.03-1.08,0.24-0.94,0.98c0.17,0.94-0.22,1.13-1.12,1.11c-2.81-0.06-5.63-0.05-8.44-0.01
		c-0.7,0.01-1.03-0.15-0.89-0.89c0.18-0.95-0.18-1.22-1.17-1.21c-4.46,0.06-8.91,0.05-13.37,0.01c-0.81-0.01-1.16,0.17-1,1.01
		c0.15,0.83-0.15,1.11-1.04,1.09c-2.81-0.06-5.63-0.05-8.44-0.01c-0.7,0.01-1.03-0.16-0.89-0.89c0.18-0.96-0.19-1.26-1.17-1.2
		c-1.49,0.09-2.99,0-4.49,0.04c-0.63,0.02-0.82-0.2-0.79-0.81c0.04-1.24,0.06-2.48,0-3.72c-0.03-0.71,0.24-0.86,0.88-0.84
		c1.53,0.04,3.07,0.03,4.6,0c0.32-0.01,0.79,0.23,0.95-0.25c0.13-0.39,0-0.79-0.27-1.12C286.7,107.27,286.05,106.81,285.4,106.22z"
		/>
	<path class="st0" d="M305.7,118.48c7.31,0,14.61,0,21.92,0c2.17,0,2.79,0.63,2.79,2.82c0,2.23-0.02,4.45,0.01,6.68
		c0.01,0.59-0.11,0.83-0.77,0.81c-1.68-0.05-3.36-0.05-5.04,0c-0.73,0.02-0.86-0.26-0.81-0.89c0.05-0.73-0.01-1.46,0.02-2.19
		c0.02-0.47-0.15-0.68-0.63-0.62c-0.18,0.02-0.36,0-0.55,0c-11.33,0-22.65,0.01-33.98-0.02c-0.9,0-1.17,0.22-1.15,1.13
		c0.06,2.57,0.01,2.57-2.6,2.57c-1.02,0-2.05-0.04-3.07,0.01c-0.64,0.03-0.89-0.11-0.87-0.82c0.05-2.41,0.01-4.82,0.02-7.22
		c0.01-1.45,0.76-2.21,2.23-2.25c1.39-0.04,2.78-0.01,4.16-0.01C293.49,118.48,299.6,118.48,305.7,118.48z"/>
	<path class="st0" d="M242.43,106.24c4.11,0,7.93,0,11.75-0.01c0.41,0,0.63,0.12,0.59,0.56c-0.01,0.07,0,0.15,0,0.22
		c0.09,2.29,0.09,2.29,2.35,2.29c6.65,0,13.3,0.01,19.95-0.02c0.84,0,1.15,0.18,1.1,1.07c-0.08,1.46-0.06,2.92-0.01,4.38
		c0.03,0.75-0.17,0.99-0.96,0.99c-8.04-0.05-16.08,0-24.11-0.1c-2.61-0.03-4.82,0.53-6.51,2.63c-0.59,0.73-1.29,1.36-2.17,2.28
		c0-1.46-0.05-2.57,0.02-3.68c0.05-0.83-0.16-1.1-1.05-1.09c-4.09,0.05-8.18,0-12.28,0.04c-0.79,0.01-1.08-0.14-1.04-1
		c0.08-1.49,0.07-2.99,0-4.49c-0.03-0.81,0.18-1.05,1.02-1.04c4.13,0.05,8.26,0.02,12.39,0.02c0.99,0,1.19-0.34,0.77-1.24
		C243.92,107.34,243.28,106.9,242.43,106.24z"/>
	<path class="st0" d="M300.37,141.96c-0.24,0.32-0.42,0.64-0.67,0.88c-3.71,3.72-7.45,7.42-11.14,11.16
		c-0.67,0.68-1.35,0.94-2.29,0.92c-3.18-0.05-6.36-0.02-9.53-0.02c-0.35,0-0.7,0-1.08,0c0.1-0.5,0.45-0.68,0.69-0.93
		c4.85-4.86,9.71-9.7,14.54-14.57c0.44-0.45,0.87-0.66,1.52-0.66c4.16,0.04,8.33,0.06,12.49,0.05c0.55,0,0.95,0.14,1.34,0.54
		c1.43,1.46,2.88,2.9,4.34,4.33c0.34,0.33,0.48,0.66,0.48,1.14c-0.02,3.06-0.04,6.13,0.01,9.19c0.01,0.74-0.23,0.91-0.93,0.9
		c-2.85-0.03-5.7-0.04-8.55,0c-0.79,0.01-0.97-0.24-0.96-0.99c0.04-3.61,0.02-7.22,0.01-10.83
		C300.64,142.8,300.75,142.47,300.37,141.96z"/>
	<path class="st0" d="M344.93,122.15c0.76-0.45,1.05-1.04,1.04-1.95c-0.05-3.68,0-7.37-0.04-11.06c-0.01-0.77,0.21-1,0.97-0.96
		c1.2,0.06,2.41,0.03,3.62-0.01c0.53-0.02,0.68,0.17,0.68,0.69c-0.02,4.52,0,9.05-0.02,13.57c0,1.04-0.53,1.87-1.25,2.59
		c-4.46,4.47-8.92,8.95-13.37,13.42c-1.07,1.07-2.13,2.16-3.43,3.47c0-2.75,0-5.17,0-7.59c0-0.43,0.33-0.63,0.59-0.88
		c1.71-1.7,3.4-3.41,5.14-5.08c0.49-0.47,0.68-0.94,0.68-1.62c-0.03-5.84,0-11.68-0.03-17.51c0-0.81,0.13-1.18,1.05-1.09
		c1.05,0.1,2.12,0.09,3.18,0.03c0.84-0.04,1.11,0.19,1.1,1.08c-0.05,4.01-0.03,8.03-0.02,12.04
		C344.8,121.57,344.7,121.86,344.93,122.15z"/>
	<path class="st0" d="M351.2,126.46c0,2.25,0,4.27,0,6.3c0,7.03-0.01,14.06,0.02,21.1c0,0.78-0.11,1.09-0.99,1.05
		c-1.56-0.08-3.14-0.01-4.71-0.02c-1.76-0.01-2.48-0.71-2.48-2.43c-0.01-5.68,0-11.37-0.01-17.05c0-0.54,0.12-0.95,0.52-1.35
		C346.06,131.6,348.53,129.12,351.2,126.46z"/>
	<path class="st0" d="M383.23,119.48c0,2.99-0.02,5.98,0.01,8.97c0.01,0.65-0.14,0.89-0.84,0.87c-1.53-0.05-3.07-0.04-4.6-0.01
		c-0.59,0.01-0.92-0.12-0.82-0.78c0.01-0.04,0.01-0.07,0-0.11c-0.34-1.93,0.31-3.4,1.86-4.64c1.27-1.02,2.33-2.3,3.52-3.44
		c0.39-0.37,0.36-0.57-0.01-0.93c-1.91-1.86-3.8-3.73-5.66-5.63c-0.36-0.36-0.72-0.41-1.17-0.41c-2.08,0.01-4.16-0.03-6.24,0.02
		c-0.73,0.02-1.04-0.13-0.99-0.94c0.07-1.16,0.04-2.33,0.01-3.5c-0.01-0.52,0.07-0.79,0.7-0.79c4.02,0.03,8.03-0.01,12.05,0.02
		c1.42,0.01,2.16,0.83,2.17,2.31c0.01,2.99,0,5.98,0,8.97C383.23,119.48,383.23,119.48,383.23,119.48z"/>
	<path class="st0" d="M333,131.27c0-0.24,0-0.48,0-0.72c0-7.14,0.02-14.28-0.02-21.42c0-0.84,0.22-1.05,1.03-1
		c1.16,0.07,2.33,0.04,3.5,0.02c0.51-0.01,0.79,0.05,0.79,0.68c-0.02,5.65-0.02,11.29-0.01,16.94c0,0.35-0.1,0.62-0.35,0.87
		c-1.57,1.58-3.12,3.16-4.68,4.75C333.17,131.35,333.09,131.31,333,131.27z"/>
	<path class="st0" d="M353.13,115.21c2.14,0,4.06,0.01,5.98-0.01c0.38,0,0.6,0.21,0.83,0.44c1.27,1.26,2.53,2.53,3.8,3.78
		c0.29,0.29,0.46,0.47,0.07,0.86c-3.37,3.32-6.72,6.67-10.25,10.18c0-2.17,0-4.15,0-6.13c0-0.39,0.3-0.56,0.52-0.79
		c1.05-1.06,2.09-2.14,3.18-3.17c0.41-0.39,0.39-0.62-0.01-1.01C355.92,118.06,354.61,116.71,353.13,115.21z"/>
	<path class="st0" d="M369.07,115.21c2.2,0,4.12,0.01,6.04-0.01c0.38,0,0.6,0.22,0.83,0.45c1.27,1.26,2.53,2.53,3.8,3.78
		c0.3,0.29,0.45,0.47,0.07,0.85c-3.37,3.32-6.72,6.66-10.24,10.16c0-2.16,0-4.14,0-6.12c0-0.39,0.31-0.56,0.53-0.79
		c1.02-1.04,2.03-2.1,3.1-3.08c0.52-0.48,0.44-0.73-0.03-1.17C371.84,118.02,370.56,116.7,369.07,115.21z"/>
	<path class="st0" d="M277.23,130.94c-8.76,0.03-17.53,0.02-26.29,0c-0.61,0-1.02,0.19-1.42,0.62c-1.44,1.5-2.92,2.96-4.38,4.45
		c-0.21,0.21-0.6,0.35-0.44,0.78c5.37,0,10.74,0,16.11,0.01c2.05,0,4.09,0.03,6.14,0c0.6-0.01,0.8,0.13,0.8,0.77
		c0.02,2.38,0.05,2.38-2.37,2.38c-6.65,0-13.3-0.02-19.95,0.02c-0.9,0.01-1.13-0.26-1.03-1.09c0.08-0.69,0.04-1.38,0.06-2.08
		c-2.79,2.51-5.34,5.26-8.02,7.89c-1.28,1.25-2.99,2.35-3.62,3.88c-0.63,1.53-0.09,3.52-0.18,5.3c-0.05,0.93,0.31,1.06,1.12,1.05
		c12.75-0.02,25.49-0.02,38.24-0.01c0.59,0,1.02-0.13,1.44-0.57c1.39-1.45,2.81-2.87,4.25-4.26c0.41-0.4,0.53-0.81,0.52-1.35
		c-0.02-5.62-0.03-11.23,0.01-16.85C278.21,131.11,277.98,130.94,277.23,130.94z M265.6,148.42c-3.18,0-6.36,0-9.54,0
		c-3.58,0-7.16-0.02-10.74,0.02c-0.77,0.01-0.97-0.19-0.95-0.96c0.04-2.3,0-2.3,2.36-2.3c6.61,0,13.23,0.02,19.84-0.02
		c0.86,0,1.22,0.13,1.18,1.1C267.67,148.42,267.73,148.42,265.6,148.42z"/>
	<path class="st0" d="M383.82,150.17c-0.27-0.26-0.5-0.3-0.71,0c-0.35,0.49-0.84,0.48-1.37,0.47c-1.1-0.02-2.19,0-3.29,0
		c-1.48,0-1.46,0-1.45-1.54c0-0.55,0.12-0.79,0.72-0.74c0.73,0.05,1.46,0.04,2.19,0.01c1.08-0.05,2.57,0.48,3.14-0.21
		c0.55-0.66,0.11-2.09,0.2-3.17c0.06-0.78-0.27-0.9-0.94-0.88c-1.53,0.04-3.07-0.03-4.6,0.03c-1.1,0.04-0.64-0.74-0.67-1.2
		c-0.03-0.46-0.31-1.13,0.68-1.08c1.53,0.07,3.07-0.03,4.6,0.04c0.8,0.04,1-0.23,0.93-0.97c-0.07-0.72-0.06-1.46,0-2.19
		c0.07-0.77-0.1-1.11-0.98-1.04c-1.24,0.09-2.48,0.02-3.72,0.02c-1.57,0-1.54,0-1.54-1.55c0-0.61,0.15-0.83,0.79-0.81
		c1.57,0.04,3.14-0.01,4.71,0.03c0.57,0.01,0.77-0.14,0.74-0.73c-0.05-0.91-0.05-1.83,0-2.73c0.04-0.62-0.17-0.79-0.79-0.79
		c-4.86,0.02-9.72,0.02-14.57,0.01c-0.38,0-0.68,0.06-0.97,0.36c-1.2,1.22-2.43,2.4-3.65,3.6c0.04,0.09,0.07,0.17,0.11,0.26
		c1.75,0,3.49,0.01,5.24,0c1.16-0.01,0.58,0.86,0.66,1.35c0.08,0.46,0.21,1.02-0.67,1c-2.19-0.05-4.38-0.01-6.57-0.02
		c-0.24,0-0.51,0.09-0.67-0.22c-0.3-0.6,0.1-3.11,0.59-3.6c1.26-1.27,2.52-2.53,3.78-3.81c0.96-0.97,1.49-2.11,1.48-3.52
		c-0.02-5.36,0-10.72-0.01-16.09c0-1.4-0.76-2.23-2.13-2.24c-4.02-0.03-8.04,0-12.05-0.02c-0.59,0-0.75,0.2-0.73,0.76
		c0.03,1.2,0.05,2.41-0.01,3.61c-0.03,0.69,0.18,0.86,0.85,0.85c2.08-0.04,4.16,0.01,6.25-0.03c0.64-0.01,1.07,0.18,1.52,0.64
		c1.7,1.75,3.43,3.49,5.2,5.17c0.56,0.54,0.64,0.81,0.03,1.41c-4.02,3.93-7.99,7.91-11.99,11.86c-0.42,0.41-0.6,0.83-0.6,1.42
		c-0.01,6.6-0.03,13.2-0.1,19.81c-0.01,0.91,0.14,1.24,1.17,1.23c10.89-0.04,21.77-0.03,32.66-0.03c0.31,0,0.65,0.14,1.12-0.33
		C386.87,153.09,385.34,151.64,383.82,150.17z M362.1,141.84c2.15,0.06,4.31,0.06,6.46,0c1.05-0.03,0.72,0.66,0.74,1.17
		c0.03,0.55,0.2,1.2-0.8,1.13c-1.05-0.08-2.12-0.02-3.18-0.02c-1.06,0-2.12-0.06-3.18,0.02c-1,0.07-0.82-0.58-0.79-1.13
		C361.38,142.5,361.05,141.81,362.1,141.84z M368.67,150.65c-1.09-0.03-2.18-0.01-3.28-0.01c-1.13,0-2.26-0.04-3.39,0.01
		c-0.9,0.04-0.69-0.6-0.63-1.03c0.06-0.46-0.47-1.27,0.61-1.27c2.22,0.01,4.44,0.02,6.66-0.01c1-0.01,0.64,0.7,0.63,1.14
		C369.28,149.93,369.68,150.68,368.67,150.65z"/>
</g>
<rect class="st4" width="457" height="247"/>
</svg>
