<?xml version="1.0" encoding="utf-8"?>
<!-- Generator: Adobe Illustrator 26.0.2, SVG Export Plug-In . SVG Version: 6.00 Build 0)  -->
<svg version="1.1" id="图层_1" xmlns="http://www.w3.org/2000/svg" xmlns:xlink="http://www.w3.org/1999/xlink" x="0px" y="0px"
	 viewBox="0 0 457 247" style="enable-background:new 0 0 457 247;" xml:space="preserve">
<style type="text/css">
	.st0{fill:#818181;}
	.st1{fill-rule:evenodd;clip-rule:evenodd;fill:#818181;}
	.st2{clip-path:url(#SVGID_00000004531292242088809730000016427068855485381775_);fill:#818181;}
	.st3{clip-path:url(#SVGID_00000102535008440908776770000018343392961113741193_);fill:#818181;}
	.st4{fill:none;}
</style>
<g>
	<g>
		<path class="st1" d="M293.52,161.58h3.97c0.46,0,0.84-0.38,0.84-0.84v-3.97c0-0.46-0.38-0.84-0.84-0.84h-3.97
			c-0.46,0-0.84,0.38-0.84,0.84v3.97C292.68,161.2,293.05,161.58,293.52,161.58z"/>
		<path class="st1" d="M212.45,151.47h-9.06v-6.1c0-0.46-0.38-0.84-0.84-0.84h-3.97c-0.46,0-0.84,0.38-0.84,0.84v15.34
			c0,0.46,0.38,0.84,0.84,0.84h3.97c0.46,0,0.84-0.38,0.84-0.84v-6.09h9.06v6.12c0,0.46,0.38,0.84,0.84,0.84h3.97
			c0.46,0,0.84-0.38,0.84-0.84v-15.34c0-0.46-0.38-0.84-0.84-0.84h-3.97c-0.46,0-0.84,0.38-0.84,0.84V151.47z"/>
		<path class="st1" d="M235.14,158.44h-7.4c-0.46,0-0.84-0.38-0.84-0.84v-12.19c0-0.46-0.38-0.84-0.84-0.84h-3.97
			c-0.46,0-0.84,0.38-0.84,0.84v11.99c0,2.32,1.88,4.2,4.2,4.2h11.98c2.32,0,4.2-1.88,4.2-4.2v-11.99c0-0.46-0.38-0.84-0.84-0.84
			h-3.97c-0.46,0-0.84,0.38-0.84,0.84v12.19C235.98,158.06,235.61,158.44,235.14,158.44z"/>
		<path class="st1" d="M259.54,158.44h-8.16c-0.46,0-0.84-0.38-0.84-0.84v-12.19c0-0.46-0.38-0.84-0.84-0.84h-3.97
			c-0.46,0-0.84,0.38-0.84,0.84v11.99c0,2.32,1.88,4.2,4.2,4.2h10.44v2.13c0,0.46-0.38,0.84-0.84,0.84h-7.32
			c-0.46,0-0.84,0.38-0.84,0.84v1.47c0,0.46,0.38,0.84,0.84,0.84h9.6c2.32,0,4.2-1.88,4.2-4.2v-18.1c0-0.46-0.38-0.84-0.84-0.84
			h-3.97c-0.46,0-0.84,0.38-0.84,0.84V158.44z"/>
		<path class="st1" d="M347.36,145.41v15.33c0,0.46,0.38,0.84,0.84,0.84h3.97c0.46,0,0.84-0.38,0.84-0.84v-13.02h6.12
			c0.46,0,0.84,0.38,0.84,0.84v12.18c0,0.46,0.38,0.84,0.84,0.84h3.97c0.46,0,0.84-0.38,0.84-0.84v-13.02h6.05
			c0.46,0,0.84,0.38,0.84,0.84v12.18c0,0.46,0.38,0.84,0.84,0.84h3.97c0.46,0,0.84-0.38,0.84-0.84v-11.98c0-2.32-1.88-4.2-4.2-4.2
			H348.2C347.74,144.57,347.36,144.94,347.36,145.41z"/>
		<path class="st1" d="M324.09,148.76v8.63c0,2.32,1.88,4.2,4.2,4.2h11.9c2.32,0,4.2-1.88,4.2-4.2v-8.63c0-2.32-1.88-4.2-4.2-4.2
			h-11.9C325.96,144.57,324.09,146.45,324.09,148.76z M329.73,157.6v-9.04c0-0.46,0.38-0.84,0.84-0.84h7.32
			c0.46,0,0.84,0.38,0.84,0.84v9.04c0,0.46-0.38,0.84-0.84,0.84h-7.32C330.11,158.44,329.73,158.06,329.73,157.6z"/>
		<path class="st1" d="M302.21,148.76v8.63c0,2.32,1.88,4.2,4.2,4.2h13.89c0.46,0,0.84-0.38,0.84-0.84v-1.47
			c0-0.46-0.38-0.84-0.84-0.84h-11.6c-0.46,0-0.84-0.38-0.84-0.84v-9.04c0-0.46,0.38-0.84,0.84-0.84h11.6
			c0.46,0,0.84-0.38,0.84-0.84v-1.47c0-0.46-0.38-0.84-0.84-0.84H306.4C304.09,144.57,302.21,146.45,302.21,148.76z"/>
		<path class="st1" d="M270.5,145.41v1.47c0,0.46,0.38,0.84,0.84,0.84h10.97c0.46,0,0.84,0.38,0.84,0.84v1.73h-10.45
			c-2.32,0-4.2,1.88-4.2,4.2v2.9c0,2.32,1.88,4.2,4.2,4.2h11.9c2.32,0,4.2-1.88,4.2-4.2v-8.63c0-2.32-1.88-4.2-4.2-4.2h-13.26
			C270.87,144.57,270.5,144.94,270.5,145.41z M274.14,157.6v-3.31c0-0.46,0.38-0.84,0.84-0.84h8.16v4.15c0,0.46-0.38,0.84-0.84,0.84
			h-7.32C274.52,158.44,274.14,158.06,274.14,157.6z"/>
	</g>
	<g>
		<path class="st1" d="M214.24,103.88h20.81c0.47,0,0.85-0.38,0.85-0.86v-1.86c0-0.47-0.38-0.86-0.85-0.86h-20.81v-0.86
			c0-0.47-0.38-0.86-0.85-0.86h-5.37c-0.47,0-0.85,0.38-0.85,0.86v6.62h-8.83c-0.47,0-0.85,0.38-0.85,0.86l0,21.71h0
			c-0.01,2.42-0.97,4.16-2.29,5.14c-0.29,0.22-0.24,0.67-0.1,0.99l0.62,2.7c0.21,0.38,0.83,0.53,1.22,0.36
			c4.53-1.95,7.56-6.7,7.61-11.98h0v-15.91h5.37l-0.57,2.35h-3.07c-0.47,0-0.85,0.38-0.85,0.86v1.57c0,0.47,0.38,0.86,0.85,0.86
			h2.19l-1.16,4.37c-0.18,0.55,0.23,1.12,0.81,1.12h29.82c0.47,0,0.85-0.38,0.85-0.86v-1.9c0-0.47-0.38-0.86-0.85-0.86h-22.68
			l0.51-1.98h19.28c0.47,0,0.85-0.38,0.85-0.86v-1.82c0-0.47-0.38-0.86-0.85-0.86h-18.35l0.52-1.99h22.66
			c0.47,0,0.85-0.38,0.85-0.86v-2.16c0-0.47-0.38-0.86-0.85-0.86h-25.65V103.88z"/>
		<path class="st1" d="M328.19,107.74l-14.26,0.01v-2.61h16.51c0.47,0,0.85-0.38,0.85-0.86v-2.21c0-0.47-0.38-0.86-0.85-0.86h-16.51
			v-1.76c0-0.47-0.38-0.86-0.85-0.86h-5.37c-0.47,0-0.85,0.38-0.85,0.86v1.76h-16.51c-0.47,0-0.85,0.38-0.85,0.86v2.21
			c0,0.47,0.38,0.86,0.85,0.86h16.51v2.61h-14.18c-0.47,0-0.85,0.38-0.85,0.86v25.18h-2.27c-0.47,0-0.85,0.38-0.85,0.86v2.4
			c0,0.47,0.38,0.86,0.85,0.86h41.56c0.47,0,0.85-0.38,0.85-0.86v-2.4c0-0.47-0.38-0.86-0.85-0.86h-2.1V108.6
			C329.04,108.13,328.66,107.74,328.19,107.74z M298.88,131.19h18.7c0.47,0,0.85-0.38,0.85-0.86v-1.97c0-0.47-0.38-0.86-0.85-0.86
			h-18.7v-2.85h18.7c0.47,0,0.85-0.38,0.85-0.86v-1.97c0-0.47-0.38-0.86-0.85-0.86h-18.7v-2.85h18.7c0.47,0,0.85-0.38,0.85-0.86
			v-1.97c0-0.47-0.38-0.86-0.85-0.86h-18.7v-2.78h23.09v22.11h-23.09V131.19z"/>
		<path class="st1" d="M338.32,101.22h-3.08c-0.47,0-0.85,0.38-0.85,0.86v2.21c0,0.47,0.38,0.86,0.85,0.86h3.08v13.89h-3.08
			c-0.47,0-0.85,0.38-0.85,0.86v2.21c0,0.47,0.38,0.86,0.85,0.86h3.08v9.98c0,0.47-0.38,0.86-0.85,0.86h-2.27
			c-0.47,0-0.85,0.38-0.85,0.86v2.4c0,0.47,0.38,0.86,0.85,0.86h5.87c2.34,0,4.23-1.92,4.23-4.28V99.46c0-0.47-0.38-0.86-0.85-0.86
			h-5.29c-0.47,0-0.85,0.38-0.85,0.86V101.22z"/>
		<path class="st1" d="M279.69,103.88h4.17c0.47,0,0.85-0.38,0.85-0.86v-2.21c0-0.47-0.38-0.86-0.85-0.86h-39.91
			c-0.47,0-0.85,0.38-0.85,0.86v2.21c0,0.47,0.38,0.86,0.85,0.86h28.61v13.42h-19.5c-0.56,0-0.96-0.53-0.82-1.08l2.36-8.92
			c0.14-0.54-0.26-1.08-0.82-1.08h-5.67c-0.38,0-0.72,0.26-0.82,0.63l-2.38,8.97c-0.72,2.72,1.31,5.39,4.09,5.39h14.55
			c-5.14,5.69-12.93,10.79-20.03,13.87c-0.36,0.18-0.43,0.49-0.29,1.08c0.07,0.3,0.23,0.87,0.23,0.87c0.1,0.83,0.82,0.93,1.19,0.83
			c10.12-2.77,21.08-8.6,27.91-16.24v11.29c0,0.47-0.38,0.86-0.85,0.86h-3.72c-0.47,0-0.85,0.38-0.85,0.86v2.4
			c0,0.47,0.38,0.86,0.85,0.86h7.47c2.34,0,4.23-1.92,4.23-4.28v-12.4h5.75c0.47,0,0.85-0.38,0.85-0.86v-2.21
			c0-0.47-0.38-0.86-0.85-0.86h-5.75V103.88z"/>
		<path class="st1" d="M235.05,122.95h-26.42c-0.47,0-0.85,0.38-0.85,0.86v1.23h-0.01c0,0.07,0.01,0.14,0.01,0.21
			c0,3.63-0.14,6.28-2.92,9.59c-0.23,0.28-0.22,0.62-0.09,0.98l0.37,1.68c0.22,0.39,0.7,0.53,1.1,0.35
			c4.26-1.99,7.52-6.21,8.48-10.98h14.12v6.76c0,2.36,1.9,4.28,4.23,4.28h6.8c0.47,0,0.85-0.38,0.85-0.86v-2.39
			c0-0.47-0.38-0.86-0.85-0.86h-3.13c-0.47,0-0.85-0.38-0.85-0.86l0-9.14C235.9,123.33,235.52,122.95,235.05,122.95z"/>
		<path class="st1" d="M375.59,105.3l-1.6-1.62c1.36-0.11,2.36-0.21,3.06-0.28c0.49-0.05,0.92-0.61,0.83-1.11l-0.8-3
			c-0.09-0.48-0.55-0.73-1.04-0.67c-7.8,0.9-14.12,1.34-21.02,1.56c-3.96,0.13-6.5,0.08-6.5,0.08c-0.47,0-0.85,0.38-0.85,0.86v2.21
			c0,0.47,0.38,0.86,0.85,0.86h1.91l-1.1,1.12c-0.33,0.33-0.33,0.88,0,1.21l2.69,2.72h-4.3c-0.47,0-0.85,0.38-0.85,0.86v2.21
			c0,0.47,0.38,0.86,0.85,0.86h3.38l-1.77,1.79c-0.33,0.33-0.33,0.88,0,1.21l1.58,1.6h-2.82c-0.47,0-0.85,0.38-0.85,0.86v18.43
			c0,0.47,0.38,0.86,0.85,0.86h28.74c0.47,0,0.85-0.38,0.85-0.86v-18.43c0-0.47-0.38-0.86-0.85-0.86H374l1.58-1.6
			c0.33-0.33,0.33-0.88,0-1.21l-1.77-1.79h3.38c0.47,0,0.85-0.38,0.85-0.86v-2.21c0-0.47-0.38-0.86-0.85-0.86h-4.3l2.69-2.72
			C375.92,106.18,375.92,105.63,375.59,105.3z M367.6,109.23h-2.11v-5.1c2.13-0.06,4.24-0.16,5.96-0.27L367.6,109.23z
			 M359.42,104.18v5.05h-2.11l-3.62-5.05H359.42z M356.65,113.15h2.7v4.6h-6L356.65,113.15z M353.43,121.28h5.92v4.75h-5.92V121.28z
			 M353.43,134.25v-4.74h5.92v4.74H353.43z M371.49,134.25h-5.92v-4.74h5.92V134.25z M365.57,126.03v-4.75h5.92v4.75H365.57z
			 M371.57,117.75h-6v-4.6h2.7L371.57,117.75z"/>
	</g>
	<g>
		<path class="st0" d="M181.95,139.8c-0.01,0.24-0.02,0.49-0.03,0.73C181.93,140.29,181.94,140.05,181.95,139.8
			c0-0.02,0-0.04,0-0.06C181.95,139.76,181.95,139.78,181.95,139.8z"/>
		<path class="st0" d="M130.59,132.09c4.12,1.73,19.7-7.96,19.53-12.09c-0.17-4.12-16.81-13.7-20.23-10.87
			C126.46,111.96,126.47,130.35,130.59,132.09z"/>
		<path class="st0" d="M181.96,139.36c0-0.2,0.01-0.39,0.01-0.59c0,0,0,0,0-0.01c0-0.19,0-0.39,0-0.58c0,0,0-0.01,0-0.01
			c0-0.19,0-0.39-0.01-0.58c0-0.01,0-0.01,0-0.02c0-0.19-0.01-0.38-0.02-0.57c0-0.01,0-0.02,0-0.02c-0.01-0.19-0.01-0.38-0.02-0.57
			c0-0.01,0-0.02,0-0.03c-0.01-0.19-0.02-0.38-0.03-0.56c0-0.01,0-0.02,0-0.03c-0.01-0.19-0.03-0.37-0.04-0.56c0-0.01,0-0.03,0-0.04
			c-0.01-0.18-0.03-0.37-0.05-0.55c0-0.01,0-0.03,0-0.04c-0.02-0.18-0.04-0.36-0.06-0.55c0-0.02,0-0.03-0.01-0.05
			c-0.02-0.18-0.04-0.36-0.06-0.54c0-0.02,0-0.04-0.01-0.06c-0.02-0.18-0.05-0.36-0.07-0.54c0-0.02-0.01-0.04-0.01-0.06
			c-0.02-0.18-0.05-0.35-0.08-0.53c0-0.02-0.01-0.04-0.01-0.06c-0.03-0.17-0.05-0.35-0.08-0.52c0-0.02-0.01-0.05-0.01-0.07
			c-0.03-0.17-0.06-0.35-0.09-0.52c0-0.02-0.01-0.05-0.01-0.07c-0.03-0.17-0.06-0.34-0.1-0.51c-0.01-0.03-0.01-0.05-0.02-0.08
			c-0.03-0.17-0.07-0.34-0.1-0.51c-0.01-0.03-0.01-0.06-0.02-0.08c-0.04-0.17-0.07-0.34-0.11-0.5c-0.01-0.03-0.01-0.06-0.02-0.09
			c-0.04-0.17-0.08-0.33-0.11-0.5c-0.01-0.03-0.01-0.06-0.02-0.09c-0.04-0.16-0.08-0.33-0.12-0.49c-0.01-0.03-0.02-0.06-0.02-0.1
			c-0.04-0.16-0.08-0.32-0.12-0.48c-0.01-0.03-0.02-0.07-0.03-0.1c-0.04-0.16-0.09-0.32-0.13-0.48c-0.01-0.04-0.02-0.07-0.03-0.11
			c-0.04-0.16-0.09-0.32-0.14-0.47c-0.01-0.04-0.02-0.07-0.03-0.11c-0.05-0.16-0.09-0.31-0.14-0.47c-0.01-0.04-0.02-0.08-0.04-0.11
			c-0.05-0.15-0.1-0.31-0.15-0.46c-0.01-0.04-0.03-0.08-0.04-0.12c-0.05-0.15-0.1-0.3-0.15-0.46c-0.01-0.04-0.03-0.08-0.04-0.12
			c-0.05-0.15-0.1-0.3-0.15-0.45c-0.01-0.04-0.03-0.09-0.04-0.13c-0.05-0.15-0.1-0.3-0.16-0.44c-0.02-0.04-0.03-0.09-0.05-0.13
			c-0.05-0.15-0.11-0.29-0.16-0.44c-0.02-0.05-0.03-0.09-0.05-0.14c-0.05-0.14-0.11-0.29-0.17-0.43c-0.02-0.05-0.04-0.09-0.06-0.14
			c-0.06-0.14-0.11-0.28-0.17-0.43c-0.02-0.05-0.04-0.1-0.06-0.14c-0.06-0.14-0.12-0.28-0.17-0.42c-0.02-0.05-0.04-0.1-0.06-0.15
			c-0.06-0.14-0.12-0.28-0.18-0.41c-0.02-0.05-0.04-0.1-0.07-0.15c-0.06-0.14-0.12-0.27-0.18-0.41c-0.02-0.05-0.05-0.1-0.07-0.16
			c-0.06-0.13-0.12-0.27-0.18-0.4c-0.02-0.05-0.05-0.11-0.08-0.16c-0.06-0.13-0.12-0.26-0.19-0.39c-0.03-0.05-0.05-0.11-0.08-0.16
			c-0.06-0.13-0.13-0.26-0.19-0.39c-0.03-0.06-0.06-0.11-0.08-0.17c-0.06-0.13-0.13-0.25-0.19-0.38c-0.03-0.06-0.06-0.11-0.09-0.17
			c-0.06-0.13-0.13-0.25-0.2-0.37c-0.03-0.06-0.06-0.12-0.09-0.17c-0.07-0.12-0.13-0.25-0.2-0.37c-0.03-0.06-0.06-0.12-0.1-0.18
			c-0.07-0.12-0.13-0.24-0.2-0.36c-0.03-0.06-0.07-0.12-0.1-0.18c-0.07-0.12-0.13-0.24-0.2-0.36c-0.04-0.06-0.07-0.12-0.11-0.18
			c-0.07-0.12-0.14-0.23-0.2-0.35c-0.04-0.06-0.07-0.12-0.11-0.19c-0.07-0.11-0.14-0.23-0.21-0.34c-0.04-0.06-0.08-0.13-0.12-0.19
			c-0.07-0.11-0.14-0.23-0.21-0.34c-0.04-0.06-0.08-0.13-0.12-0.19c-0.07-0.11-0.14-0.22-0.21-0.33c-0.04-0.07-0.08-0.13-0.13-0.2
			c-0.07-0.11-0.14-0.22-0.21-0.32c-0.04-0.07-0.09-0.13-0.13-0.2c-0.07-0.11-0.14-0.21-0.21-0.32c-0.05-0.07-0.09-0.13-0.14-0.2
			c-0.07-0.1-0.14-0.21-0.21-0.31c-0.05-0.07-0.1-0.14-0.14-0.2c-0.07-0.1-0.14-0.2-0.21-0.31c-0.05-0.07-0.1-0.14-0.15-0.21
			c-0.07-0.1-0.14-0.2-0.21-0.3c-0.05-0.07-0.1-0.14-0.15-0.21c-0.07-0.1-0.14-0.2-0.22-0.29c-0.05-0.07-0.11-0.14-0.16-0.21
			c-0.07-0.1-0.14-0.19-0.22-0.29c-0.05-0.07-0.11-0.14-0.16-0.21c-0.07-0.09-0.14-0.19-0.22-0.28c-0.06-0.07-0.11-0.14-0.17-0.22
			c-0.07-0.09-0.14-0.18-0.22-0.27c-0.06-0.07-0.12-0.14-0.18-0.22c-0.07-0.09-0.15-0.18-0.22-0.27c-0.06-0.07-0.12-0.15-0.18-0.22
			c-0.07-0.09-0.15-0.18-0.22-0.26c-0.06-0.07-0.13-0.15-0.19-0.22c-0.07-0.09-0.15-0.17-0.22-0.26c-0.06-0.08-0.13-0.15-0.2-0.22
			c-0.07-0.08-0.14-0.17-0.22-0.25c-0.07-0.08-0.14-0.15-0.2-0.23c-0.07-0.08-0.14-0.16-0.21-0.24c-0.07-0.08-0.14-0.16-0.21-0.23
			c-0.07-0.08-0.14-0.15-0.21-0.23c-0.07-0.08-0.15-0.16-0.22-0.24c-0.07-0.07-0.14-0.15-0.21-0.22c-0.08-0.08-0.16-0.17-0.24-0.25
			c-0.07-0.07-0.13-0.14-0.2-0.2c-0.09-0.09-0.17-0.18-0.26-0.27c-0.06-0.06-0.12-0.12-0.18-0.18c-0.12-0.12-0.24-0.24-0.37-0.36
			c-0.03-0.03-0.05-0.05-0.08-0.08c-0.1-0.19-0.21-0.37-0.31-0.56c-0.03-0.06-0.06-0.11-0.1-0.17c-0.07-0.13-0.14-0.25-0.21-0.38
			c-0.04-0.07-0.08-0.13-0.11-0.2c-0.07-0.11-0.13-0.23-0.2-0.34c-0.04-0.07-0.08-0.13-0.12-0.2c-0.07-0.11-0.13-0.22-0.2-0.33
			c-0.04-0.07-0.08-0.13-0.12-0.2c-0.07-0.11-0.13-0.22-0.2-0.32c-0.04-0.06-0.08-0.12-0.12-0.19c-0.07-0.11-0.14-0.22-0.21-0.33
			c-0.04-0.06-0.07-0.11-0.11-0.17c-0.07-0.11-0.15-0.23-0.22-0.34c-0.03-0.05-0.07-0.1-0.1-0.15c-0.08-0.12-0.16-0.24-0.24-0.36
			c-0.03-0.04-0.05-0.08-0.08-0.12c-0.09-0.13-0.18-0.26-0.27-0.39c-0.02-0.02-0.03-0.05-0.05-0.07c-0.85-1.23-1.7-2.35-2.56-3.37
			c-4.3-5.21-8.55-7.88-11.39-9.21c-0.21-0.1-0.41-0.19-0.6-0.28c-0.02-0.01-0.03-0.01-0.05-0.02c-0.04-0.02-0.09-0.04-0.13-0.06
			c-0.06-0.03-0.12-0.05-0.18-0.07c0,0,0,0,0,0c-0.06-0.02-0.11-0.04-0.17-0.06c0,0,0,0,0,0c-1.5-0.62-2.09-0.71-3.69-0.03
			c-2.1,0.89-5.18,2.38-6.79,3.84c-0.06,0.06-0.12,0.11-0.18,0.17c-1.11-0.12-2.23-0.22-3.37-0.26c-4.53-0.16-8.94,0.34-13.15,1.39
			c-0.01-0.01-0.03-0.02-0.04-0.02c0,0,0,0,0,0c-0.04-0.03-0.09-0.05-0.13-0.08c-0.05-0.03-0.11-0.07-0.16-0.1c0,0,0,0,0,0
			c-0.07-0.04-0.13-0.08-0.2-0.12c0,0,0,0,0,0c-0.34-0.21-0.69-0.41-1.05-0.62c0,0,0,0-0.01,0c0,0,0,0,0,0
			c-0.21-0.12-0.42-0.23-0.63-0.35c-0.03-0.02-0.06-0.03-0.09-0.05c0,0,0,0,0,0c-0.1-0.06-0.21-0.11-0.31-0.17
			c-0.02-0.01-0.03-0.02-0.05-0.03c0,0,0,0,0,0c-0.22-0.11-0.44-0.23-0.67-0.34c-0.03-0.01-0.05-0.03-0.08-0.04c0,0,0,0,0,0
			c-0.02-0.01-0.04-0.02-0.06-0.03c0,0,0,0,0,0c-0.11-0.05-0.22-0.11-0.33-0.16c0,0,0,0,0,0c-1.14-0.55-2.39-1.08-3.75-1.57
			c-0.01-0.01-0.03-0.01-0.04-0.02c0,0,0,0,0,0c-0.55-0.2-1.12-0.39-1.71-0.58c0,0,0,0,0,0c-0.02-0.01-0.04-0.01-0.06-0.02
			c-0.66-0.21-1.34-0.4-2.04-0.59c0,0,0,0,0,0c-0.04-0.01-0.08-0.02-0.12-0.03c-0.36-0.09-0.73-0.19-1.1-0.27
			c-0.02-0.01-0.04-0.01-0.07-0.02c0,0,0,0,0,0c-0.18-0.04-0.36-0.08-0.54-0.12c-0.01,0-0.02,0-0.02-0.01c0,0,0,0,0,0
			c-0.18-0.04-0.35-0.08-0.53-0.12c-0.02,0-0.03-0.01-0.05-0.01c-0.05-0.01-0.1-0.02-0.15-0.03c-0.05-0.01-0.1-0.02-0.15-0.03
			c-0.01,0-0.02,0-0.03-0.01c-0.03-0.01-0.07-0.01-0.1-0.02c-2.04-0.41-3.6-0.36-5.15,2.35c-0.02,0.04-0.05,0.08-0.07,0.12
			c0,0,0,0,0,0c0,0,0,0,0,0c0,0,0,0.01-0.01,0.01c0,0,0,0,0,0.01c-1.22,2.15-2.82,5.33-4.13,9.13c0,0.01-0.01,0.02-0.01,0.03
			c-0.07,0.2-0.13,0.39-0.2,0.59c-0.01,0.03-0.02,0.07-0.03,0.1c-0.06,0.19-0.13,0.39-0.19,0.59c0,0,0,0.01,0,0.01c0,0,0,0,0,0
			c-0.07,0.21-0.13,0.43-0.2,0.65c0,0,0,0,0,0c0,0.01-0.01,0.02-0.01,0.03c0,0,0,0,0,0c-0.03,0.1-0.06,0.2-0.09,0.3
			c-0.04,0.13-0.08,0.26-0.11,0.39c0,0,0,0,0,0c-0.06,0.2-0.11,0.41-0.17,0.61c0,0,0,0,0,0c-0.09,0.35-0.18,0.7-0.27,1.05
			c-0.03,0.11-0.05,0.22-0.08,0.34c0,0,0,0,0,0c-0.03,0.14-0.06,0.28-0.09,0.41c-0.02,0.1-0.04,0.2-0.07,0.29c0,0,0,0,0,0
			c-0.01,0.05-0.02,0.1-0.03,0.15c0,0,0,0,0,0c-0.04,0.19-0.08,0.38-0.12,0.57c0,0,0,0,0,0c-0.06,0.3-0.11,0.59-0.17,0.89
			c0,0,0,0,0,0c0,0.02-0.01,0.03-0.01,0.05c-0.11,0.63-0.2,1.27-0.28,1.92c0,0.04-0.01,0.07-0.01,0.11c0,0,0,0,0,0
			c-0.01,0.05-0.01,0.1-0.02,0.16c0,0,0,0,0,0c-0.02,0.2-0.05,0.4-0.07,0.61l0,0c0,0.02,0,0.03-0.01,0.05
			c-6.82,7.86-11.09,17.62-11.45,27.7c-0.01,0.2-0.01,0.39-0.02,0.59c0,0.06,0,0.12,0,0.19c0,0.13,0,0.27,0,0.4
			c0,0.07,0,0.14,0,0.22c0,0.12,0,0.25,0,0.37c0,0.07,0,0.15,0,0.22c0,0.12,0,0.24,0.01,0.36c0,0.07,0,0.14,0.01,0.22
			c0,0.12,0.01,0.25,0.01,0.37c0,0.07,0.01,0.14,0.01,0.2c0.01,0.13,0.01,0.26,0.02,0.39c0,0.06,0.01,0.12,0.01,0.18
			c0.01,0.14,0.02,0.28,0.03,0.43c0,0.05,0.01,0.09,0.01,0.14c0.01,0.17,0.03,0.35,0.05,0.52c0,0.01,0,0.03,0,0.04
			c0.06,0.58,0.13,1.15,0.21,1.72c0,0.01,0,0.02,0,0.02c0.03,0.18,0.05,0.35,0.08,0.53c0,0.02,0.01,0.04,0.01,0.06
			c0.03,0.17,0.06,0.33,0.09,0.5c0,0.02,0.01,0.05,0.01,0.07c0.03,0.16,0.06,0.33,0.09,0.49c0,0.02,0.01,0.04,0.01,0.06
			c0.03,0.17,0.07,0.33,0.1,0.5c0,0.01,0.01,0.03,0.01,0.04c0.72,3.26,1.91,6.29,3.51,9.05c0.02,0.04,0.05,0.08,0.07,0.12
			c0.11,0.18,0.21,0.36,0.32,0.54c0,0,0,0.01,0.01,0.01c0.11,0.18,0.23,0.37,0.35,0.55c0.02,0.04,0.05,0.08,0.07,0.11
			c0.1,0.16,0.21,0.32,0.32,0.48c0.01,0.02,0.03,0.04,0.04,0.06c0.12,0.18,0.24,0.35,0.37,0.53c0.02,0.03,0.05,0.07,0.07,0.1
			c0.11,0.15,0.22,0.3,0.33,0.45c0.02,0.03,0.04,0.06,0.06,0.09c0.13,0.17,0.26,0.34,0.39,0.51c0.02,0.03,0.04,0.05,0.06,0.08
			c0.12,0.15,0.23,0.3,0.35,0.44c0.03,0.03,0.05,0.07,0.08,0.1c0.14,0.17,0.27,0.33,0.41,0.5c0.01,0.01,0.02,0.03,0.03,0.04
			c0.13,0.15,0.26,0.3,0.39,0.45c0.03,0.03,0.06,0.07,0.09,0.1c0.29,0.32,0.58,0.64,0.88,0.96c0.03,0.03,0.07,0.07,0.1,0.1
			c0.14,0.15,0.29,0.3,0.43,0.44c0.01,0.01,0.02,0.02,0.02,0.02c0.15,0.15,0.31,0.31,0.47,0.46c0.03,0.03,0.07,0.06,0.1,0.1
			c0.14,0.13,0.28,0.26,0.42,0.39c0.02,0.02,0.04,0.04,0.07,0.06c0.16,0.15,0.32,0.3,0.49,0.44c0.03,0.03,0.06,0.06,0.09,0.08
			c0.14,0.12,0.28,0.25,0.43,0.37c0.03,0.03,0.06,0.05,0.09,0.08c0.17,0.14,0.34,0.28,0.51,0.42c0.03,0.02,0.05,0.04,0.08,0.06
			c0.15,0.12,0.3,0.24,0.45,0.36c0.04,0.03,0.07,0.06,0.11,0.09c0.17,0.14,0.35,0.27,0.53,0.41c0.01,0.01,0.03,0.02,0.04,0.03
			c0.16,0.12,0.33,0.25,0.5,0.37c0.04,0.03,0.08,0.06,0.12,0.09c0.36,0.26,0.73,0.52,1.1,0.78c0.04,0.03,0.09,0.06,0.13,0.09
			c0.17,0.12,0.34,0.23,0.51,0.34c0.02,0.01,0.04,0.02,0.05,0.04c0.19,0.12,0.38,0.25,0.57,0.37c0.04,0.03,0.09,0.05,0.13,0.08
			c0.16,0.1,0.33,0.21,0.5,0.31c0.03,0.02,0.07,0.04,0.1,0.06c0.19,0.12,0.39,0.23,0.59,0.35c0.04,0.02,0.08,0.05,0.12,0.07
			c0.17,0.1,0.33,0.19,0.5,0.29c0.04,0.02,0.08,0.05,0.13,0.07c0.2,0.11,0.4,0.22,0.6,0.33c0.03,0.02,0.06,0.03,0.1,0.05
			c0.18,0.09,0.35,0.19,0.53,0.28c0.05,0.03,0.1,0.05,0.14,0.08c0.21,0.11,0.41,0.21,0.62,0.32c0.02,0.01,0.03,0.02,0.05,0.02
			c0.19,0.1,0.39,0.19,0.58,0.29c0.05,0.03,0.1,0.05,0.16,0.08c0.21,0.1,0.41,0.2,0.62,0.29c0,0,0.01,0,0.01,0.01
			c0.21,0.1,0.43,0.2,0.65,0.29c0.05,0.02,0.11,0.05,0.16,0.07c0.19,0.08,0.38,0.17,0.57,0.25c0.03,0.01,0.06,0.03,0.09,0.04
			c0.22,0.09,0.44,0.18,0.66,0.27c0.05,0.02,0.1,0.04,0.16,0.06c0.18,0.08,0.37,0.15,0.56,0.22c0.04,0.02,0.09,0.04,0.13,0.05
			c0.22,0.09,0.44,0.17,0.67,0.26c0.05,0.02,0.09,0.03,0.14,0.05c0.19,0.07,0.38,0.14,0.56,0.21c0.05,0.02,0.11,0.04,0.16,0.06
			c0.23,0.08,0.45,0.16,0.68,0.24c0.04,0.01,0.07,0.03,0.11,0.04c0.2,0.07,0.4,0.13,0.59,0.2c0.06,0.02,0.12,0.04,0.18,0.06
			c0.23,0.08,0.46,0.15,0.7,0.22c0.02,0,0.03,0.01,0.05,0.01c0.22,0.07,0.44,0.14,0.66,0.2c0.06,0.02,0.12,0.04,0.19,0.06
			c0.22,0.07,0.44,0.13,0.66,0.19c0.02,0.01,0.04,0.01,0.05,0.02c0.24,0.07,0.48,0.13,0.72,0.2c0.06,0.02,0.12,0.03,0.19,0.05
			c0.2,0.05,0.41,0.11,0.61,0.16c0.04,0.01,0.08,0.02,0.12,0.03c0.24,0.06,0.48,0.12,0.72,0.18c0.06,0.01,0.12,0.03,0.18,0.04
			c0.2,0.05,0.4,0.09,0.6,0.14c0.06,0.01,0.11,0.03,0.17,0.04c0.24,0.06,0.49,0.11,0.73,0.16c0.05,0.01,0.11,0.02,0.16,0.03
			c0.2,0.04,0.41,0.09,0.61,0.13c0.06,0.01,0.13,0.03,0.19,0.04c0.25,0.05,0.5,0.1,0.74,0.15c0.04,0.01,0.08,0.01,0.12,0.02
			c0.22,0.04,0.43,0.08,0.65,0.12c0.07,0.01,0.14,0.02,0.2,0.04c0.25,0.04,0.51,0.09,0.76,0.13c0.01,0,0.02,0,0.04,0.01
			c0.24,0.04,0.49,0.08,0.73,0.12c0.07,0.01,0.14,0.02,0.21,0.03c0.23,0.03,0.46,0.07,0.69,0.1c0.03,0,0.06,0.01,0.09,0.01
			c0.26,0.04,0.51,0.07,0.77,0.1c0.07,0.01,0.14,0.02,0.21,0.03c0.22,0.03,0.43,0.05,0.65,0.08c0.05,0.01,0.1,0.01,0.15,0.02
			c0.26,0.03,0.52,0.06,0.78,0.09c0.06,0.01,0.13,0.01,0.2,0.02c0.21,0.02,0.43,0.04,0.64,0.06c0.06,0.01,0.13,0.01,0.19,0.02
			c0.26,0.02,0.52,0.05,0.78,0.07c0.06,0,0.11,0.01,0.17,0.01c0.22,0.02,0.44,0.03,0.66,0.05c0.07,0.01,0.14,0.01,0.21,0.01
			c0.26,0.02,0.53,0.04,0.79,0.05c0.04,0,0.08,0,0.12,0.01c0.23,0.01,0.47,0.03,0.7,0.04c0.07,0,0.15,0.01,0.22,0.01
			c0.27,0.01,0.53,0.02,0.8,0.03c0,0,0.01,0,0.01,0c0.21,0.01,0.42,0.01,0.63,0.02c0,0,0.01,0,0.01,0c0.2,0.01,0.41,0.01,0.61,0.02
			c0.04,0,0.09,0,0.13,0c0.17,0,0.33,0.01,0.49,0.01c0.06,0,0.12,0,0.19,0c0.15,0,0.29,0,0.44,0c0.07,0,0.14,0,0.22,0
			c0.13,0,0.27,0,0.4,0c0.08,0,0.16,0,0.24,0c0.13,0,0.25,0,0.38,0c0.08,0,0.17,0,0.25,0c0.12,0,0.24,0,0.36,0c0.09,0,0.17,0,0.26,0
			c0.12,0,0.24,0,0.36-0.01c0.09,0,0.18,0,0.26-0.01c0.12,0,0.23-0.01,0.35-0.01c0.09,0,0.18-0.01,0.27-0.01
			c0.11,0,0.22-0.01,0.34-0.01c0.09,0,0.18-0.01,0.28-0.01c0.11,0,0.22-0.01,0.33-0.01c0.09,0,0.19-0.01,0.28-0.01
			c0.11-0.01,0.22-0.01,0.32-0.02c0.1,0,0.19-0.01,0.29-0.02c0.11-0.01,0.21-0.01,0.32-0.02c0.1-0.01,0.19-0.01,0.29-0.02
			c0.1-0.01,0.21-0.01,0.31-0.02c0.1-0.01,0.19-0.01,0.29-0.02c0.1-0.01,0.2-0.01,0.31-0.02c0.1-0.01,0.2-0.02,0.29-0.02
			c0.1-0.01,0.2-0.02,0.3-0.02c0.1-0.01,0.2-0.02,0.3-0.03c0.1-0.01,0.2-0.02,0.3-0.03c0.1-0.01,0.2-0.02,0.3-0.03
			c0.1-0.01,0.19-0.02,0.29-0.03c0.1-0.01,0.2-0.02,0.3-0.03c0.1-0.01,0.19-0.02,0.29-0.03c0.1-0.01,0.2-0.02,0.3-0.03
			c0.1-0.01,0.19-0.02,0.29-0.03c0.1-0.01,0.2-0.02,0.3-0.04c0.09-0.01,0.19-0.02,0.28-0.03c0.1-0.01,0.2-0.03,0.3-0.04
			c0.09-0.01,0.18-0.02,0.28-0.04c0.1-0.01,0.2-0.03,0.31-0.04c0.09-0.01,0.18-0.02,0.27-0.04c0.1-0.01,0.21-0.03,0.31-0.04
			c0.09-0.01,0.18-0.03,0.27-0.04c0.1-0.02,0.21-0.03,0.31-0.05c0.09-0.01,0.17-0.03,0.26-0.04c0.1-0.02,0.21-0.03,0.31-0.05
			c0.09-0.01,0.17-0.03,0.26-0.04c0.1-0.02,0.21-0.04,0.31-0.05c0.08-0.01,0.17-0.03,0.25-0.04c0.1-0.02,0.21-0.04,0.31-0.06
			c0.08-0.02,0.17-0.03,0.25-0.05c0.1-0.02,0.21-0.04,0.31-0.06c0.08-0.02,0.16-0.03,0.25-0.05c0.11-0.02,0.21-0.04,0.32-0.06
			c0.08-0.02,0.16-0.03,0.24-0.05c0.11-0.02,0.21-0.04,0.32-0.06c0.08-0.02,0.16-0.03,0.24-0.05c0.11-0.02,0.21-0.05,0.32-0.07
			c0.08-0.02,0.16-0.03,0.23-0.05c0.11-0.02,0.21-0.05,0.32-0.07c0.08-0.02,0.15-0.03,0.23-0.05c0.11-0.02,0.21-0.05,0.32-0.07
			c0.08-0.02,0.15-0.04,0.23-0.05c0.11-0.03,0.21-0.05,0.32-0.08c0.07-0.02,0.15-0.04,0.22-0.05c0.11-0.03,0.21-0.05,0.32-0.08
			c0.07-0.02,0.14-0.04,0.22-0.06c0.11-0.03,0.21-0.06,0.32-0.08c0.07-0.02,0.14-0.04,0.21-0.06c0.11-0.03,0.21-0.06,0.32-0.09
			c0.07-0.02,0.14-0.04,0.21-0.06c0.11-0.03,0.22-0.06,0.32-0.09c0.07-0.02,0.13-0.04,0.2-0.06c0.11-0.03,0.22-0.06,0.33-0.1
			c0.07-0.02,0.13-0.04,0.2-0.06c0.11-0.03,0.22-0.07,0.33-0.1c0.06-0.02,0.13-0.04,0.19-0.06c0.11-0.03,0.22-0.07,0.33-0.1
			c0.06-0.02,0.13-0.04,0.19-0.06c0.11-0.04,0.22-0.07,0.33-0.11c0.06-0.02,0.12-0.04,0.18-0.06c0.11-0.04,0.22-0.07,0.33-0.11
			c0.06-0.02,0.12-0.04,0.18-0.06c0.11-0.04,0.22-0.08,0.33-0.11c0.06-0.02,0.12-0.04,0.17-0.06c0.11-0.04,0.22-0.08,0.33-0.12
			c0.06-0.02,0.11-0.04,0.17-0.06c0.11-0.04,0.22-0.08,0.33-0.12c0.05-0.02,0.11-0.04,0.16-0.06c0.11-0.04,0.22-0.08,0.33-0.13
			c0.05-0.02,0.11-0.04,0.16-0.06c0.11-0.04,0.22-0.09,0.33-0.13c0.05-0.02,0.1-0.04,0.15-0.06c0.11-0.05,0.22-0.09,0.34-0.14
			c0.05-0.02,0.1-0.04,0.15-0.06c0.11-0.05,0.23-0.09,0.34-0.14c0.05-0.02,0.1-0.04,0.14-0.06c0.11-0.05,0.23-0.1,0.34-0.15
			c0.05-0.02,0.09-0.04,0.14-0.06c0.11-0.05,0.23-0.1,0.34-0.15c0.04-0.02,0.09-0.04,0.13-0.06c0.11-0.05,0.23-0.1,0.34-0.16
			c0.04-0.02,0.08-0.04,0.13-0.06c0.11-0.05,0.23-0.11,0.34-0.16c0.04-0.02,0.08-0.04,0.12-0.06c0.12-0.06,0.23-0.11,0.34-0.17
			c0.04-0.02,0.08-0.04,0.11-0.06c0.12-0.06,0.23-0.12,0.35-0.17c0.04-0.02,0.07-0.04,0.11-0.05c0.12-0.06,0.23-0.12,0.35-0.18
			c0.03-0.02,0.07-0.04,0.1-0.05c0.12-0.06,0.23-0.12,0.35-0.19c0.03-0.02,0.06-0.03,0.09-0.05c0.12-0.06,0.24-0.13,0.35-0.19
			c0.03-0.02,0.06-0.03,0.09-0.05c0.12-0.07,0.24-0.13,0.35-0.2c0.03-0.02,0.05-0.03,0.08-0.05c0.12-0.07,0.24-0.14,0.36-0.21
			c0.02-0.01,0.05-0.03,0.07-0.04c0.12-0.07,0.24-0.14,0.36-0.21c0.02-0.01,0.04-0.03,0.06-0.04c0.12-0.07,0.24-0.15,0.36-0.22
			c0.02-0.01,0.04-0.02,0.06-0.04c0.12-0.08,0.25-0.15,0.37-0.23c0.02-0.01,0.03-0.02,0.05-0.03c0.12-0.08,0.25-0.16,0.37-0.24
			c0.01-0.01,0.03-0.02,0.04-0.03c0.13-0.08,0.25-0.17,0.37-0.25c0.01-0.01,0.02-0.01,0.03-0.02c0.13-0.09,0.25-0.17,0.38-0.26
			c0.01,0,0.01-0.01,0.02-0.01c0.13-0.09,0.26-0.18,0.39-0.27c0,0,0.01,0,0.01-0.01c7.84-5.59,12.86-13.75,13.47-24.5c0,0,0,0,0,0
			c0,0,0,0,0,0c0.01-0.26,0.03-0.53,0.04-0.8C181.96,139.66,181.96,139.51,181.96,139.36C181.96,139.36,181.96,139.36,181.96,139.36
			C181.96,139.36,181.96,139.36,181.96,139.36z M179.74,139.36c-0.05,1.31-0.16,2.58-0.34,3.81c-1.64-2.03-3.71-4.24-6.28-6.42
			c-0.59-0.5-0.25-1.4,0.53-1.37c2.26,0.07,4.29,0.33,6.06,0.67C179.76,137.15,179.77,138.26,179.74,139.36z M170.13,160.84
			c-0.85-3.8-2.33-8.44-4.82-11.85c-0.35-0.49,0.1-1.22,0.7-1.12c4.21,0.65,7.73,2.51,10.48,4.63
			C174.88,155.66,172.74,158.44,170.13,160.84z M87.05,142.22c2.28-1.14,6.09-2.65,11.16-3.32c0.77-0.1,1.2,0.76,0.66,1.32
			c-4.2,4.37-6.79,8.65-8.33,11.76C88.86,149.02,87.67,145.76,87.05,142.22z M154.95,156.84c-0.21,0.5-0.78,0.76-1.29,0.57
			c-2.36-0.89-4.03-2.21-5.07-3.23c-2.51,0.8-5.65,1.38-9.72,1.7c-1.18,0.09-2.33,0.13-3.44,0.11c-2.39-0.04-4.6-0.32-6.56-0.72
			c-0.75,1.19-2.21,3-4.84,4.66c-0.48,0.3-1.12,0.17-1.44-0.31c-2.08-3.11-2.8-6.32-3.04-7.66c-0.39-0.21-0.62-0.36-0.67-0.39
			c-0.52-0.33-0.67-1.01-0.35-1.53c0.33-0.52,1.01-0.68,1.53-0.35c0.08,0.05,7.87,4.84,18.63,3.98c9.66-0.77,13.61-3,16.58-6.12
			c0.47-0.49,1.27-0.46,1.7,0.1c0.33,0.44,0.26,1.07-0.12,1.47c-0.16,0.17-0.33,0.34-0.49,0.5
			C156.42,150.62,156.43,153.23,154.95,156.84z M140.97,142.48c-1.46,0.08-2.93,0.15-4.42,0.24c-1.7,0.1-3.39,0.22-5.05,0.33
			c-4.56,0.31-9.02,0.62-13.08,0.54c-6.1-0.11-11.28-1.08-14.52-4.18c-2.53-2.42-3.7-5.89-3.58-10.61
			c0.41-16.08,14.84-29.48,32.85-30.5c19.02-1.07,36.07,11.04,38.02,27.02c0.52,4.28-0.27,7.61-2.42,10.17
			C163.92,141.28,152.77,141.86,140.97,142.48z M96.3,159.27c2.56-3.55,6.96-7.9,13.28-9.6c0.58-0.16,1.11,0.52,0.81,1.04
			c-2.76,4.79-3.57,11.51-3.8,15.58C102.68,164.39,99.21,162.05,96.3,159.27z"/>
	</g>
</g>
<rect class="st4" width="457" height="247"/>
</svg>
