<?xml version="1.0" encoding="utf-8"?>
<!-- Generator: Adobe Illustrator 26.0.2, SVG Export Plug-In . SVG Version: 6.00 Build 0)  -->
<svg version="1.1" id="图层_1" xmlns="http://www.w3.org/2000/svg" xmlns:xlink="http://www.w3.org/1999/xlink" x="0px" y="0px"
	 viewBox="0 0 457 247" style="enable-background:new 0 0 457 247;" xml:space="preserve">
<style type="text/css">
	.st0{fill:#818181;}
	.st1{fill-rule:evenodd;clip-rule:evenodd;fill:#818181;}
	.st2{clip-path:url(#SVGID_00000065770922360609743260000002106536516592009856_);fill:#818181;}
	.st3{clip-path:url(#SVGID_00000008864039681766398160000018401719734387686585_);fill:#818181;}
	.st4{fill:none;}
</style>
<polygon class="st0" points="259,118.77 259.04,101.41 264.22,101.43 264.18,116.23 273.53,116.26 273.57,101.45 278.73,101.47 
	278.68,118.83 "/>
<polygon class="st0" points="302.94,118.83 302.98,101.56 308.18,101.58 308.14,116.29 320.78,116.32 318.41,118.88 "/>
<rect x="316.81" y="107.68" transform="matrix(2.679455e-03 -1 1 2.679455e-03 214.312 435.4635)" class="st0" width="17.33" height="5.21"/>
<polygon class="st0" points="380.91,119.04 380.96,101.78 400.1,101.83 397.72,104.36 386.15,104.33 386.14,108.02 399.47,108.06 
	397.29,110.62 386.13,110.58 386.11,119.05 "/>
<path class="st0" d="M237.53,118.59l0.04-17.24l17.99,0.05c0.78,0,1.19,0.66,1.26,1.34l-0.03,10.4l-14.01-0.04l-0.01,5.5
	L237.53,118.59z M251.63,110.57l0.02-5.87c0-0.76-0.33-0.76-0.46-0.76l-8.42-0.02l-0.02,6.62L251.63,110.57z"/>
<g>
	<path class="st0" d="M281.07,101.47l16.32,0.05c0.77,0,1.27,0.63,1.26,1.6l-0.01,5.03l1.53,0.01l-0.04,10.61l-19.1-0.05
		L281.07,101.47z M294.93,116.19l0.01-5.52l-8.7-0.02l-0.01,5.52L294.93,116.19z M294.95,108.11l0.01-3.3
		c0-0.08-0.02-0.75-0.46-0.75l-8.24-0.02l-0.01,4.05L294.95,108.11z"/>
</g>
<polygon class="st0" points="215.7,118.54 215.74,101.29 235.22,101.35 232.6,103.89 220.92,103.86 220.91,108.53 234.06,108.57 
	234.06,111.3 220.9,111.26 220.88,116 232.56,116.03 235.18,118.59 "/>
<g>
	<polygon class="st0" points="330.89,118.85 330.93,101.62 350.46,101.68 347.84,104.23 336.17,104.2 336.14,116.31 350.45,116.35 
		347.83,118.9 	"/>
</g>
<polygon class="st0" points="307.42,145.8 304.19,143.11 319.21,143.15 319.22,137.97 304.85,137.93 304.88,128.5 324.8,128.56 
	322.46,131.13 310.08,131.1 310.07,135.36 324.46,135.4 324.43,145.84 "/>
<g>
	<path class="st0" d="M228.63,145.58l0.02-7.36l-9.31-0.03l-0.02,7.36l-5.27-0.02l0.05-17.28l18.52,0.06c0.79,0,1.27,0.83,1.27,1.6
		l-0.05,15.68L228.63,145.58z M228.52,135.65l0.01-4.02c0-0.18-0.04-0.75-0.47-0.76l-8.62-0.02l-0.01,4.77L228.52,135.65z"/>
</g>
<polygon class="st0" points="260.43,145.72 260.48,128.38 280.05,128.44 277.42,130.99 265.68,130.96 265.67,135.66 278.9,135.7 
	278.9,138.44 265.66,138.41 265.65,143.17 277.39,143.2 280.01,145.78 "/>
<polygon class="st0" points="190.84,145.48 190.89,128.19 211.47,128.25 208.72,130.94 196.15,130.91 196.12,142.91 205.48,142.94 
	205.5,136.1 210.71,136.11 210.69,145.54 "/>
<polygon class="st0" points="241.92,145.7 241.94,135.77 247.12,139.28 247.12,139.28 252.32,135.8 252.29,145.73 257.54,145.74 
	257.59,128.38 247.13,135.29 247.13,135.29 236.72,128.32 236.68,145.68 "/>
<path class="st0" d="M297.2,138.38l4.71,0l0.02-8.29c0-0.76-0.48-1.59-1.25-1.6l-18.78-0.05l-0.05,17.28l5.29,0.01l0.04-14.73
	l9.17,0.04c0.43,0,0.46,0.57,0.46,0.75l-0.01,3.38l-8.6-0.03l9.37,10.62l6.17,0.02L297.2,138.38z"/>
<path class="st0" d="M207.12,110.25l-8.79-0.02l14.27,14.92l0.02-5.84l-5.41-5.84l5.39,0.01l0.03-10.59c0-0.75,0.04-1.61-1.03-1.62
	l-20.63-0.06l-0.03,12.09l5.43,5.91l0.04-15.4l9.94,0.03c0.64,0,0.79,0.26,0.79,0.89L207.12,110.25z"/>
<g>
	<g>
		<path class="st0" d="M148.61,108.75c-17.87,8.48-48.04,29.85-48.04,29.85s8.39,4.53,18.42,7.55c10.7,3.22,20.56,4.93,25.62,3.8
			c11.48-2.56,23.8-27.3,27.77-38.23c0,0-16.97,7.16-22.29,9.59c-4.64,2.13-22.3,10.67-22.3,10.67l27.78-8.34
			c-0.49,1.14-7.82,17.58-17.18,19.43c-9.7,1.92-26.9-4.94-26.91-4.94c1.41-1.07,28.12-18.93,61.9-31.63
			c1.39-0.57,3.44-3.96,3.5-5.83C176.88,100.67,161.88,101.98,148.61,108.75z"/>
		<path class="st0" d="M96.93,139.8c-1.2-2.07,0.28-4.92,9.35-11.59c8.19-6.03,37.71-30.71,65.91-37.28c0,0-14.77-2.45-35.89,4.13
			c-7.54,2.34-18.65,12.85-38.98,32.64c-2.76,1.53-12.64-4.18-18.32-6.93c0,0,9.43,14.98,12.72,19.48
			c5.11,6.98,14.34,11.04,14.34,11.04S99.88,144.87,96.93,139.8z"/>
	</g>
	<path class="st0" d="M63.2,117.1c0,0,4.58,12.2,7.62,14.06c3.04,1.87,7.39,4.12,16.01,6.3c0,0-5.65-4.43-11.47-9.48
		C69.54,122.92,63.2,117.1,63.2,117.1z"/>
</g>
<path class="st0" d="M376.65,101.71h-17.47v12.52l4.22,4.8h14.49v-15.96C377.89,102.39,377.41,101.71,376.65,101.71z M372.71,116.43
	h-5.49l-2.87-3.31v-8.83h8.36V116.43z"/>
<rect class="st4" width="457" height="247"/>
</svg>
