<?xml version="1.0" encoding="utf-8"?>
<!-- Generator: Adobe Illustrator 26.0.2, SVG Export Plug-In . SVG Version: 6.00 Build 0)  -->
<svg version="1.1" id="图层_1" xmlns="http://www.w3.org/2000/svg" xmlns:xlink="http://www.w3.org/1999/xlink" x="0px" y="0px"
	 viewBox="0 0 457 247" style="enable-background:new 0 0 457 247;" xml:space="preserve">
<style type="text/css">
	.st0{fill:#818181;}
	.st1{fill-rule:evenodd;clip-rule:evenodd;fill:#818181;}
	.st2{clip-path:url(#SVGID_00000086668209127943001720000010151610799947751096_);fill:#818181;}
	.st3{clip-path:url(#SVGID_00000140721123292178853250000005001951165713739184_);fill:#818181;}
	.st4{fill:none;}
</style>
<g>
	<path class="st0" d="M185.84,139.33h0.86v3.38h3.97v-3.38h0.86v7.91h-0.86v-3.76h-3.97v3.76h-0.86V139.33z"/>
	<path class="st0" d="M196.23,139.19c1.87,0,3.13,1.54,3.13,4.08c0,2.54-1.26,4.09-3.13,4.09c-1.87,0-3.13-1.56-3.13-4.09
		C193.1,140.75,194.36,139.19,196.23,139.19z M196.23,146.6c1.38,0,2.24-1.19,2.24-3.32c0-2.13-0.86-3.32-2.24-3.32
		s-2.24,1.19-2.24,3.32C193.99,145.41,194.85,146.6,196.23,146.6z"/>
	<path class="st0" d="M200.92,139.33h1.25l3.63,6.17v-6.17h0.82v7.91h-0.68l-4.2-7v7h-0.82V139.33z"/>
	<path class="st0" d="M213.36,146.37c-0.49,0.68-1.17,1-2.09,1c-1.88,0-3.1-1.51-3.1-4.05c0-2.64,1.17-4.12,3.13-4.12
		c1.39,0,2.31,0.78,2.75,2.32l-0.9,0.17c-0.31-1.15-0.93-1.74-1.88-1.74c-1.39,0-2.2,1.16-2.2,3.3c0,2.15,0.86,3.36,2.25,3.36
		c1.15,0,1.91-0.7,1.91-1.9v-0.56h-1.83v-0.75h2.73v3.84h-0.75L213.36,146.37z"/>
	<path class="st0" d="M219.31,139.33h0.86v4.17l3.34-4.17h0.96l-2.47,3.04l2.82,4.87h-1.02l-2.37-4.19l-1.26,1.53v2.66h-0.86V139.33
		z"/>
</g>
<g>
	<path class="st0" d="M228.24,139.19c1.87,0,3.13,1.54,3.13,4.08c0,2.54-1.26,4.09-3.13,4.09c-1.87,0-3.13-1.56-3.13-4.09
		C225.11,140.75,226.37,139.19,228.24,139.19z M228.24,146.6c1.38,0,2.24-1.19,2.24-3.32c0-2.13-0.86-3.32-2.24-3.32
		s-2.24,1.19-2.24,3.32C226,145.41,226.86,146.6,228.24,146.6z"/>
	<path class="st0" d="M232.93,139.33h1.25l3.63,6.17v-6.17h0.82v7.91h-0.68l-4.2-7v7h-0.82V139.33z"/>
	<path class="st0" d="M245.37,146.37c-0.49,0.68-1.17,1-2.09,1c-1.88,0-3.1-1.51-3.1-4.05c0-2.64,1.17-4.12,3.13-4.12
		c1.39,0,2.31,0.78,2.75,2.32l-0.9,0.17c-0.31-1.15-0.93-1.74-1.88-1.74c-1.39,0-2.2,1.16-2.2,3.3c0,2.15,0.86,3.36,2.25,3.36
		c1.15,0,1.91-0.7,1.91-1.9v-0.56h-1.83v-0.75h2.73v3.84h-0.75L245.37,146.37z"/>
</g>
<g>
	<path class="st0" d="M247.61,144.01h2.67v0.73h-2.67V144.01z"/>
	<path class="st0" d="M251.2,146.65l4-6.59h-3.62v-0.73h4.66v0.56l-4,6.59h3.97v0.75h-5.01V146.65z"/>
	<path class="st0" d="M257.81,139.33h0.86v3.38h3.97v-3.38h0.86v7.91h-0.86v-3.76h-3.97v3.76h-0.86V139.33z"/>
	<path class="st0" d="M266.47,139.33v5.1c0,0.49,0.01,0.91,0.21,1.29c0.28,0.56,0.92,0.9,1.77,0.9c0.86,0,1.5-0.34,1.78-0.9
		c0.21-0.42,0.21-0.87,0.21-1.43v-4.95h0.86v5.24c0,1.84-1,2.8-2.85,2.8c-1.87,0-2.84-0.95-2.84-2.8v-5.24H266.47z"/>
	<path class="st0" d="M273.4,139.33h0.86v3.38h3.97v-3.38h0.86v7.91h-0.86v-3.76h-3.97v3.76h-0.86V139.33z"/>
	<path class="st0" d="M282.79,139.33h1.33l2.43,7.91h-0.92l-0.71-2.46h-2.94l-0.7,2.46h-0.93L282.79,139.33z M284.68,144.04
		l-1.18-4.12h-0.12l-1.19,4.12H284.68z"/>
	<path class="st0" d="M287.86,139.33h0.89v7.91h-0.89V139.33z"/>
	<path class="st0" d="M290.31,144.01h2.67v0.73h-2.67V144.01z"/>
	<path class="st0" d="M294.53,139.33h1.35l2.21,6.68l2.22-6.68h1.27v7.91h-0.84v-6.97l-2.38,6.97h-0.59l-2.38-6.97v6.97h-0.84
		V139.33z"/>
	<path class="st0" d="M305.26,139.33h1.33l2.43,7.91h-0.92l-0.71-2.46h-2.94l-0.7,2.46h-0.93L305.26,139.33z M307.15,144.04
		l-1.18-4.12h-0.12l-1.19,4.12H307.15z"/>
	<path class="st0" d="M312.76,147.36c-1.92,0-3.04-1.45-3.04-4.09c0-2.6,1.18-4.08,2.97-4.08c1.47,0,2.38,0.8,2.72,2.36l-0.82,0.21
		c-0.24-1.19-0.9-1.83-1.83-1.83c-1.36,0-2.17,1.17-2.17,3.37c0,2.14,0.82,3.3,2.19,3.3c1.03,0,1.74-0.68,1.96-1.92l0.8,0.17
		C315.17,146.53,314.24,147.36,312.76,147.36z"/>
	<path class="st0" d="M318.45,139.33h1.33l2.43,7.91h-0.92l-0.71-2.46h-2.94l-0.7,2.46h-0.93L318.45,139.33z M320.34,144.04
		l-1.18-4.12h-0.12l-1.19,4.12H320.34z"/>
	<path class="st0" d="M326.04,139.19c1.87,0,3.13,1.54,3.13,4.08c0,2.54-1.26,4.09-3.13,4.09c-1.87,0-3.13-1.56-3.13-4.09
		C322.91,140.75,324.17,139.19,326.04,139.19z M326.04,146.6c1.38,0,2.24-1.19,2.24-3.32c0-2.13-0.86-3.32-2.24-3.32
		c-1.38,0-2.24,1.19-2.24,3.32C323.8,145.41,324.66,146.6,326.04,146.6z"/>
	<path class="st0" d="M334.02,139.33h2.14c2.08,0,3.06,0.55,3.06,1.99c0,0.83-0.44,1.43-1.29,1.75c0.94,0.36,1.52,1.05,1.52,2.03
		c0,1.41-1.02,2.13-3.03,2.13h-2.41V139.33z M334.89,140.04v2.68h1.68c1.15,0,1.77-0.5,1.77-1.4c0-0.89-0.66-1.28-2.01-1.28H334.89z
		 M334.89,143.45v3.03h1.63c1.4,0,2.05-0.44,2.05-1.49c0-1-0.7-1.54-2.05-1.54H334.89z"/>
	<path class="st0" d="M341.03,139.33h2.22c2.13,0,3.16,0.58,3.16,2.09c0,1.03-0.55,1.71-1.64,2.02l1.86,3.8h-0.96l-1.74-3.59h-2.03
		v3.59h-0.86V139.33z M341.9,140.06v2.85h1.32c1.59,0,2.31-0.39,2.31-1.42c0-1.16-0.69-1.43-2.27-1.43H341.9z"/>
	<path class="st0" d="M348.24,139.33h0.89v7.91h-0.89V139.33z"/>
	<path class="st0" d="M351.3,139.33h1.88c1.06,0,1.84,0.13,2.49,0.62c0.86,0.66,1.37,1.82,1.37,3.32c0,2.62-1.36,3.96-4.06,3.96
		h-1.68V139.33z M352.17,140.06v6.4h0.7c1.01,0,1.74-0.1,2.3-0.55c0.66-0.51,1.03-1.42,1.03-2.62c0-1.27-0.36-2.19-1.04-2.71
		c-0.59-0.46-1.27-0.51-2.17-0.51H352.17z"/>
	<path class="st0" d="M363.33,146.37c-0.49,0.68-1.17,1-2.09,1c-1.88,0-3.1-1.51-3.1-4.05c0-2.64,1.17-4.12,3.13-4.12
		c1.39,0,2.31,0.78,2.75,2.32l-0.9,0.17c-0.31-1.15-0.93-1.74-1.88-1.74c-1.39,0-2.2,1.16-2.2,3.3c0,2.15,0.86,3.36,2.25,3.36
		c1.15,0,1.91-0.7,1.91-1.9v-0.56h-1.83v-0.75h2.73v3.84h-0.75L363.33,146.37z"/>
	<path class="st0" d="M365.94,139.33h4.67v0.74h-3.79v2.64h2.69v0.74h-2.69v3.03h3.98v0.75h-4.86V139.33z"/>
</g>
<path class="st1" d="M371.05,104.5v0.65l1.93-0.65v-1.29h-0.64L371.05,104.5z M372.99,98.05h1.29v1.29c0,0.86-0.65,1.29-1.94,1.29
	v0.64c1.72,0,3.01,0.86,3.87,2.58c0,1.18-2.37,3.13-7.1,5.81l-1.29,2.58l4.52,0.65h3.87l1.93,1.93l-1.29,1.29h-3.23l1.29,7.75
	c0,5.16-1.08,7.75-3.23,7.75l-2.58-1.94c1.29,0,2.15-2.8,2.58-8.39l-0.65-5.16c-3.66,0-6.02,2.58-7.1,7.75l0.65,2.58v0.64h-1.29
	c-0.86,0-1.29-0.64-1.29-1.93c0.64-4.09,2.58-7.31,5.8-9.68h0.65v-0.65h-1.94l-7.75,5.16l-1.29-1.29v-0.65l7.11-7.1l-0.65-2.58
	c2.15,0,4.3-2.16,6.45-6.46h-0.64l-5.16,0.65v-0.65C364.6,100.63,367.4,99.34,372.99,98.05z M356.21,92.88h1.93v7.75l0.65,2.58
	c-1.72,2.91-2.8,6.13-3.23,9.68h0.65l3.87-3.23v1.29c-3.44,3.87-5.16,6.24-5.16,7.1l-1.29,8.39h-0.65l-1.29-1.29v-1.93l1.29-5.16
	h-1.29c0,0.86-1.72,2.37-5.16,4.52h-1.29l-1.29-1.29v-1.94l8.39-9.68h-1.29l-3.23,1.93l-1.29-1.93l9.03-5.81l-0.65-7.75v-1.94
	L356.21,92.88z M323.45,117.41h0.65c5.7,3.44,11.29,6.24,16.78,8.39l1.29,1.93c-1.08,1.83-2.58,3.12-4.52,3.88
	C328.18,128.92,323.45,124.19,323.45,117.41z M320.22,92.24l3.88,4.52c-0.86,1.4-1.51,4.84-1.94,10.33
	c3.23-1.72,6.02-2.58,8.39-2.58c1.93,0.86,3.02,1.72,3.23,2.58c0,1.93-4.3,4.09-12.91,6.46c-2.05,7.21-4.84,11.94-8.39,14.2
	c-3.12,2.58-5.27,3.88-6.45,3.88l-1.94-3.23c0-0.86,2.37-3.02,7.11-6.46l4.52-7.1c0-0.86-1.72-1.29-5.16-1.29l-3.23-2.58l10.33-3.23
	V95.47c-1.29,0-1.93-0.43-1.93-1.29L320.22,92.24z M286.97,103.21l0.65,3.22l-1.94,1.94v1.29c2.04,0,3.55,0.43,4.52,1.29l0.65-2.58
	l-1.29-6.46L286.97,103.21z M268.9,98.69c1.29,0.43,1.93,1.72,1.93,3.88l-2.58,1.94l-1.29-4.52L268.9,98.69z M286.33,96.11h4.52
	c1.72,0,2.58,4.52,2.58,13.56c0,3.02-3.02,4.74-9.04,5.16l-1.29,1.93l4.52-0.64h5.81l1.29,1.29l-0.65,0.65l-5.16-0.65l-5.8,0.65
	v1.29c3.33,4.3,8.92,6.46,16.78,6.46l0.65,0.65v2.58l-2.58,2.58c-6.35,0-11.51-2.16-15.49-6.46h-1.29c0,2.16-3.01,3.88-9.03,5.16
	v-1.29c3.12,0,5.7-3.23,7.75-9.69h-0.65c-7.75,1.4-11.62,4.85-11.62,10.33l-1.94,1.29h-1.93l-1.93-1.93l2.58-10.33l-1.29-5.81
	l0.65-0.65h0.65c2.15,2.8,3.23,4.95,3.23,6.46c0.86,0,2.58-3.44,5.16-10.33h1.29v1.29c-1.29,1.72-2.58,5.16-3.87,10.33h0.64
	c6.46-1.4,9.69-3.77,9.69-7.1v-1.29l-1.29-1.29v-0.65l3.23-3.87h-1.93l4.52-5.81h0.65v1.29h3.87l-0.65-3.22h-2.58
	c-5.16,2.69-7.75,5.27-7.75,7.75h1.94l-4.52,7.75h-1.29v-0.65c0.65-8.18,1.72-12.26,3.23-12.26h0.64v1.29L286.33,96.11z
	 M283.74,92.24l1.94,1.93l-4.52,1.94v-0.64l-0.64-2.58l0.64-0.65H283.74z M254.21,121.93h1.94c2.15,1.08,3.22,2.8,3.22,5.16
	l-1.93,1.29C256.37,128.39,255.29,126.23,254.21,121.93z M242.6,114.83v0.65h1.29l0.65-0.65c3.02-1.4,4.52-2.47,4.52-3.23v-0.64
	h-0.64L242.6,114.83z M226.46,109.02h1.29c0,2.16,1.5,4.52,4.52,7.11l-1.93,3.87v0.65l3.22-1.93v0.64
	c-2.04,3.99-5.91,8.07-11.62,12.27l-1.29-1.29v-2.58l3.88-4.52v-1.29c-1.29-1.61-1.93-3.12-1.93-4.52v-0.65
	c0.75-1.72,2.04-2.58,3.87-2.58V109.02z M225.81,103.21l4.52,0.64h3.87v1.94l-1.29,1.29h-4.52l-2.58-2.58V103.21z M251.63,98.05
	l1.29,1.29v1.29l-0.65,0.64l0.65,0.65v0.65l-0.65,2.58l1.29,1.29l-1.29,3.88l1.29,1.29v0.65c-1.72,1.18-2.58,3.77-2.58,7.75v6.46
	c0,2.26-0.86,3.98-2.58,5.16h-1.29c-1.4,0-2.91-0.65-4.52-1.94l-1.93,1.94l-1.29-1.29v-1.29c0-3.02,1.29-6.02,3.88-9.04l1.29,1.29
	v1.29l-1.29,5.81c3.44,0,5.16-2.37,5.16-7.1l0.64-5.16h-0.64l-12.91,5.8l-0.65-0.64v-1.29c1.61-2.04,5.91-5.27,12.91-9.68v-0.65
	h-0.65c-2.69,0.76-4.84,2.04-6.45,3.88l-1.94-1.94c1.4-6.02,2.48-9.03,3.23-9.03c1.72,0,2.58,1.51,2.58,4.52
	c3.44,0,5.16-0.86,5.16-2.58l0.65-2.58l-0.65-3.23l0.65-0.64H251.63z M203.22,119.35l-1.29,5.81h2.58l0.64-3.23v-2.58H203.22z
	 M192.24,107.08h1.29v1.93c-4.41,15.07-8.28,22.6-11.62,22.6h-0.64l-1.94-1.94v-1.29c0.97-1.07,2.04-4.3,3.23-9.68v-3.88h1.29
	c2.15,1.29,3.22,2.8,3.22,4.52C190.52,114.83,192.24,110.74,192.24,107.08z M183.86,99.34h1.29l4.52,4.52v1.29l-3.22,2.58h-0.65
	v-0.65l0.65-0.65v-0.64L183.86,99.34z M203.87,92.88h2.58l1.29,1.29v7.1l-1.29,1.94l1.93,2.58l-5.81,6.45h0.65
	c1.29,0,1.93-0.65,1.93-1.93h3.23l1.29,1.29l-4.52,4.52c1.72,0.21,2.58,0.86,2.58,1.93v0.65c0,2.26-1.29,5.49-3.87,9.68l1.93,0.65
	c7.32,0,10.98-2.16,10.98-6.46l0.65-1.93h1.29v6.45c-1.4,2.58-3.77,3.88-7.1,3.88h-0.65h-0.65h-1.29h-7.1l-1.29-1.29v-7.75
	l-1.29-1.93v-0.65l3.22-3.87v-0.65c-2.15,1.07-5.8,5.6-10.97,13.56c-0.86,0-1.29-0.65-1.29-1.93c0-1.72,2.58-5.81,7.75-12.27v-0.64
	h-0.65l-1.94,1.29h-0.65l-1.29-1.29v-1.94c0-0.86,0.65-1.29,1.93-1.29l0.65-0.65v-4.52h-1.93v-1.29c1.72,0,2.58-1.72,2.58-5.16
	l1.93-1.29c1.94,1.72,3.44,2.58,4.52,2.58l1.29-4.52L203.87,92.88z"/>
<path class="st1" d="M165.61,84.36l-18.57-16.02c4.21,28.43-0.1,47.63-8.18,63.03c-4.46,8.5-11.2,17.85-18.69,22.93l0.38,0.89
	c6.17-1.1,20.13-7.45,27.41-17.62C156.86,125.12,164.54,108.25,165.61,84.36"/>
<g>
	<defs>
		<path id="SVGID_1_" d="M68.26,136.51c0,0,1.41-16.26,39.95-12.11c31.93,1.36,59.42,19.45,80.8,38.78l-37.4,0.81
			c-5.64-8.46-14-16.57-19.36-20.83c-11.71-9.3-35.93-18.5-51.35-14.92c-10.22,2.38-11.85,9.64-11.85,9.64l-0.9-1.13
			c0.03-0.08,0.07-0.15,0.11-0.22L68.26,136.51z"/>
	</defs>
	<use xlink:href="#SVGID_1_"  style="overflow:visible;fill-rule:evenodd;clip-rule:evenodd;fill:#818181;"/>
	<clipPath id="SVGID_00000136391230597286587940000013733685668536264634_">
		<use xlink:href="#SVGID_1_"  style="overflow:visible;"/>
	</clipPath>
	
		<rect x="68.16" y="120.25" style="clip-path:url(#SVGID_00000136391230597286587940000013733685668536264634_);fill:#818181;" width="120.85" height="43.74"/>
</g>
<g>
	<defs>
		<path id="SVGID_00000089575686809158051890000014291546914797657221_" d="M113.65,79.31c6.94,19.53,4.31,54.52-15.16,67.36
			c-4.92,3.24-11.76,5.4-20.96,3.69c0,0-8.78-2.29-8.62-11.25c0.02-1.26,0.59-2.43,0.76-2.86l-0.83-1.75
			c-0.62,1.61-1.1,3.5-0.94,5.39c0.24,2.83,1.72,6.93,7.07,11.17c6.24,4.94,18.69,5.24,29.96,0.87
			c31.81-12.32,37.4-54.55,31.65-82.94L113.65,79.31z"/>
	</defs>
	
		<use xlink:href="#SVGID_00000089575686809158051890000014291546914797657221_"  style="overflow:visible;fill-rule:evenodd;clip-rule:evenodd;fill:#818181;"/>
	<clipPath id="SVGID_00000112627475319725024560000004740104903085416084_">
		<use xlink:href="#SVGID_00000089575686809158051890000014291546914797657221_"  style="overflow:visible;"/>
	</clipPath>
	
		<rect x="67.74" y="69" style="clip-path:url(#SVGID_00000112627475319725024560000004740104903085416084_);fill:#818181;" width="74.6" height="87.3"/>
</g>
<rect class="st4" width="457" height="247"/>
</svg>
