<svg xmlns="http://www.w3.org/2000/svg" viewBox="0 0 87.51 70.3"><defs><style>.cls-1{fill:#414141;}</style></defs><g id="图层_2" data-name="图层 2"><g id="图层_1-2" data-name="图层 1"><path class="cls-1" d="M64.83,34.43a3.27,3.27,0,0,1-1.95-.9.93.93,0,0,1-.15-1.1l.3-.5a1.11,1.11,0,0,0,.2-.3c.07-.13.21-.42.4-.85a7.48,7.48,0,0,0,.46-1.3,11.18,11.18,0,0,0,.24-1.6,6.71,6.71,0,0,0,0-1.8,7.71,7.71,0,0,0-.59-1.85,6.27,6.27,0,0,0-1.25-1.8,6.73,6.73,0,0,0-3.65-1.81,13.93,13.93,0,0,0-4.51-.05,37,37,0,0,0-4.25.9c-1.33.37-2.43.72-3.29,1.05l-1.3.6a14.05,14.05,0,0,1-1.65.4,1.85,1.85,0,0,1-1-.05,2.71,2.71,0,0,1-.55-.3c-.14-.1-.18-.33-.15-.7s.06-.68.1-.95.12-.68.25-1.25.23-1,.3-1.35a15.73,15.73,0,0,0-.16-2.24,10.35,10.35,0,0,0-.65-2.35,5.11,5.11,0,0,0-1.45-2.11,7.7,7.7,0,0,0-2.4-1.3,9.4,9.4,0,0,0-3.76-.3,21.84,21.84,0,0,0-5.2,1.2A32,32,0,0,0,22,15.37a40.54,40.54,0,0,0-6.25,4.9q-2.65,2.55-4.86,4.94t-3.4,3.91l-1.1,1.6a33,33,0,0,0-4.9,8.61A18,18,0,0,0,0,45.83v2.1A21.46,21.46,0,0,0,8.55,62.7a33.17,33.17,0,0,0,7.65,4,51.38,51.38,0,0,0,8.46,2.4,78.67,78.67,0,0,0,8.55,1.05A51.66,51.66,0,0,0,48.57,69a46.15,46.15,0,0,0,14.81-6A24.71,24.71,0,0,0,73,52.64,15.88,15.88,0,0,0,74.79,46,10,10,0,0,0,73.74,41a13.07,13.07,0,0,0-2.86-3.45,14.2,14.2,0,0,0-3.3-2.2,11.06,11.06,0,0,0-2.75-.9ZM34.32,65.54Q23.52,66,16,61.34T8.42,49.43q0-7.11,7.5-12.26t18.4-5.65q10.91-.49,18.41,3.6t7.5,11.21q0,7.2-7.65,13a32.16,32.16,0,0,1-18.26,6.25ZM31.43,37.83a16.68,16.68,0,0,0-5.21,1.35,11.81,11.81,0,0,0-3.6,2.4,15.51,15.51,0,0,0-2.2,2.9,11,11,0,0,0-1.25,3.05,18.42,18.42,0,0,0-.45,2.75c-.07.83-.11,1.48-.11,1.95l.11.81v.4a6.38,6.38,0,0,0,.2,1.2,8.53,8.53,0,0,0,.55,1.64,6.65,6.65,0,0,0,1.14,1.65,7.2,7.2,0,0,0,1.9,1.51q6.6,3.21,12.31,2A15.57,15.57,0,0,0,44,55.64a8.9,8.9,0,0,0,1.84-4.21,11.83,11.83,0,0,0-.2-5,12.88,12.88,0,0,0-2.25-4.65,10.2,10.2,0,0,0-4.75-3.26,15.61,15.61,0,0,0-7.24-.64ZM27.82,56.74a4.51,4.51,0,0,1-1.15,0,3.85,3.85,0,0,1-1-.21c-.3-.1-.6-.22-.89-.35a2.07,2.07,0,0,1-.76-.54c-.19-.23-.37-.46-.54-.7a3.22,3.22,0,0,1-.4-.81,2.75,2.75,0,0,1-.16-1,4.29,4.29,0,0,1,.6-2.15,5.64,5.64,0,0,1,1.65-1.8,4.55,4.55,0,0,1,2.35-.86,6,6,0,0,1,1.75,0,4.56,4.56,0,0,1,1.46.5,4.7,4.7,0,0,1,1.05.8,2.68,2.68,0,0,1,.65,1,4.48,4.48,0,0,1,.2,1.3,3.71,3.71,0,0,1-.65,2.1,5.61,5.61,0,0,1-1.75,1.71,5.16,5.16,0,0,1-2.41.81Zm8.5-7.2a2.17,2.17,0,0,1-1.45.45,1.17,1.17,0,0,1-1-.65l-.2-.4a.83.83,0,0,1-.11-.4v-.4a1.06,1.06,0,0,1,.11-.5l.2-.4a.62.62,0,0,1,.3-.3l.3-.4A2.08,2.08,0,0,1,36,46.05a1.26,1.26,0,0,1,1.05.8,1.24,1.24,0,0,1,.24.9,2.4,2.4,0,0,1-.29.94,3.7,3.7,0,0,1-.65.85ZM71.84,28.63a2.19,2.19,0,0,0,1.1-.3,2.57,2.57,0,0,0,.81-.76,2.87,2.87,0,0,0,.4-.94.4.4,0,0,0,.1-.3q1.2-11.41-8-13a14.12,14.12,0,0,0-5-.11,2.07,2.07,0,0,0-1.2.35,3.33,3.33,0,0,0-.85.9,2.15,2.15,0,0,0-.35,1.15,2.39,2.39,0,0,0,2.4,2.4c5.2-1.21,8,.47,8.4,5a8.27,8.27,0,0,1-.2,3.2,2.32,2.32,0,0,0,.7,1.71,2.26,2.26,0,0,0,1.69.71ZM70.14.42q-4.4-1-11.81.4a.29.29,0,0,0-.2.1l-.1.21-.11.1a3.29,3.29,0,0,0-1.8,1.25,3.35,3.35,0,0,0-.7,2.05,3.37,3.37,0,0,0,1,2.5,3.27,3.27,0,0,0,2.4,1h.3a2.06,2.06,0,0,0,.45-.1,4.26,4.26,0,0,1,.76-.15,5.52,5.52,0,0,0,.85-.21,7.15,7.15,0,0,0,.8-.3,4,4,0,0,1,1.35-.15,24.63,24.63,0,0,1,2.46.15A14.81,14.81,0,0,1,69,8a25.18,25.18,0,0,1,3.51,1.5,17.47,17.47,0,0,1,6.55,6.2,16.23,16.23,0,0,1,1,11.4.35.35,0,0,1,0,.2,5.15,5.15,0,0,0-.15.5c-.07.27-.14.51-.21.75s-.13.54-.2.9a5.12,5.12,0,0,0-.1.95,2.28,2.28,0,0,0,.49,1.5,2.79,2.79,0,0,0,1.25.86,5.77,5.77,0,0,0,1.75.25q2.81,0,3.3-3.41a29.51,29.51,0,0,0,1.35-7.45A23.29,23.29,0,0,0,87,15.93a20.51,20.51,0,0,0-1.95-5,17.29,17.29,0,0,0-3-4,24.24,24.24,0,0,0-3.81-3,25,25,0,0,0-4-2.15,26.12,26.12,0,0,0-4-1.31Z"/></g></g></svg>