<svg xmlns="http://www.w3.org/2000/svg" viewBox="0 0 71.5 61.85"><defs><style>.cls-1{fill:#818181;}</style></defs><g id="图层_2" data-name="图层 2"><g id="图层_1-2" data-name="图层 1"><path class="cls-1" d="M3.11,30.32c2.51,3.73,11.36,8.45,11.36,8.45l-8.41.11A17.49,17.49,0,0,0,9.94,43.6c3.05,3,11.59,5.61,11.59,5.61A62.88,62.88,0,0,1,11.31,55,44.29,44.29,0,0,1,.6,57c-3.63.22,9.74,6.09,24.69,4.61s25.26-8.51,33.22-20.2,7.26-26.9,7.26-26.9.88-1,3-2.95A20.4,20.4,0,0,0,71.5,8.64l-5.28.58,3.43-6.17s-2.09,1-3.54,1.5-3.39,1.07-3.39,1.07A16.47,16.47,0,0,0,51,0a15.57,15.57,0,0,0-7,1.78C32.78,7.37,36.39,20,36.39,20a47,47,0,0,1-20.77-5.39C4.36,8.92,1.63,3.76,1.63,3.76s-1.74,3.06-1,8.78S6.8,25.59,6.8,25.59L.37,23a17.38,17.38,0,0,0,2.74,7.34Z"/></g></g></svg>