<?xml version="1.0" encoding="UTF-8"?><svg id="_层_2" xmlns="http://www.w3.org/2000/svg" viewBox="0 0 117.1 117.1"><defs><style>.cls-1{fill:none;}</style></defs><g id="_层_1-2"><g><rect class="cls-1" x="0" width="117.1" height="117.1"/><g><path d="M26.9,9.25h.32c.63,.47,1.13,1.29,1.5,2.45,.53,.58,1.11,1.11,1.74,1.58,.63,.47,1.16,1.08,1.58,1.82,.74,.53,1.11,1.34,1.11,2.45,0,.74-.13,1.45-.4,2.14-.11,.47-.16,1-.16,1.58-.21,.26-.24,.55-.08,.87,.16,.37,.42,.47,.79,.32,3.32-.48,6.67-.5,10.05-.08,.63,.11,1.19,.13,1.66,.08,.26,.21,.71,.4,1.34,.55,.63,.16,1.08,.37,1.35,.63,.32,.05,.58,.21,.79,.47,.21,.26,.42,.5,.63,.71,.05,.42,0,.82-.16,1.19-.21,.47-.53,.71-.95,.71-1-.05-1.98-.03-2.93,.08-.42,.26-.87,.37-1.35,.32-1.95-.42-3.61-.29-4.99,.4-.95,.32-1.93,.5-2.93,.55-.21,.11-.71,.26-1.5,.47-.95,.26-1.64,.55-2.06,.87-.05,.69,0,1.4,.16,2.14,.42-.37,.84-.37,1.27,0,.26,0,.71,.16,1.35,.47,.63,.32,1.16,.42,1.58,.32,.05-.16,.11-.24,.16-.24,.11-.05,.24,0,.4,.16,.16,.21,.37,.24,.63,.08,.1,.05,.32,.03,.63-.08,.32-.11,.53-.05,.63,.16,1.32,.21,2.19,.4,2.61,.55,.11-.16,.26-.16,.48,0,.21,.16,.37,.21,.47,.16,.16,.42,.55,.92,1.19,1.5,.58,.53,.95,.98,1.11,1.34-.11,.26-.11,.55,0,.87,.1,.37,.05,.63-.16,.79,.32,.84-.26,1.5-1.74,1.98-.11,.26-.26,.4-.47,.4s-.42,.05-.63,.16c-.16,.47-.74,.71-1.74,.71-.58,.21-1.19,.29-1.82,.24-1.85,.16-3.48,.58-4.91,1.27-.79,0-1.19,.61-1.19,1.82,.32,.42,.98,1.06,1.98,1.9,.63,.53,1.13,1,1.5,1.42,.74,.47,1.85,1.35,3.32,2.61,1.48,1.32,2.64,2.22,3.48,2.69,.63,.32,1.66,.9,3.09,1.74,1.79,1.06,3.19,1.79,4.19,2.22,3.85,1.37,7.09,3.3,9.73,5.78,2,1.48,3.77,3.11,5.3,4.91,.47,.26,.34,.66-.4,1.19-.63,.16-1.21,.21-1.74,.16-.95,.37-1.93,.34-2.93-.08-.47-.05-.98-.26-1.5-.63-.26,.16-.34,.34-.24,.55,.11,.21,.13,.4,.08,.55-.63-.05-1.29,.11-1.98,.48,0,.21-.08,.34-.24,.4-.16,0-.34-.08-.55-.24-.11,.21-.26,.26-.47,.16-.26-.11-.47-.16-.63-.16-.16-.16-.53-.24-1.11-.24-.53,0-.95-.11-1.27-.32-.74-.26-1.21-.37-1.42-.32-.16-.16-.4-.26-.71-.32-.37-.05-.61-.16-.71-.32-.53,.11-.98,.05-1.35-.16-.37-.16-.74-.32-1.11-.47-.53-.37-1.08-.76-1.66-1.19-.95-.95-1.71-1.58-2.29-1.9-.21-.05-.42-.21-.63-.47-.21-.26-.37-.37-.48-.32-2.96-2.43-4.93-4.27-5.93-5.54-.42-.42-1.11-.95-2.06-1.58-.16-.21-.26-.29-.32-.24,0,.26,.03,.71,.08,1.35,.05,.53,.08,1.03,.08,1.5,.21,1.53,.32,3.11,.32,4.75,0,1.27-.05,2.06-.16,2.37-.05,.9-.11,1.77-.16,2.61-.21,.79-.42,1.56-.63,2.29,0,1.21-.08,2.32-.24,3.32,0,.68-.11,1.27-.32,1.74-.11,.32-.32,.53-.63,.63-.26,.05-.55,.16-.87,.32-.42-.05-.79,.32-1.11,1.11-.74,1.16-1.24,2.45-1.5,3.88-.11,.05-.21,.29-.32,.71-.11,.37-.26,.58-.48,.63-.05-.26-.19-.4-.4-.4-.26,0-.47,.11-.63,.32,0,.32-.13,.48-.4,.48s-.47,.13-.63,.4c-.16,.26-.29,.34-.4,.24-.05-.26-.08-.55-.08-.87-.05-.32-.26-.48-.63-.48s-.55-.11-.55-.32c.05-.32-.08-.53-.4-.63-.26-.11-.53-.13-.79-.08,.05-.53-.19-1.35-.71-2.45-.37-.79-.58-1.45-.63-1.98,.42-.42,.47-.82,.16-1.19-.37-.37-.61-.82-.71-1.35-.26-.26-.4-.55-.4-.87s-.03-.61-.08-.87c.69-.42,1.37-.84,2.06-1.27,.32-.63,.66-1.63,1.03-3.01,.26-4.17,.53-8.33,.79-12.5,.21-.37,.13-.61-.24-.71-.32-.11-.61-.05-.87,.16-.26,.21-.61,.61-1.03,1.19-.47,.63-.87,1.08-1.19,1.35-.21,.37-.74,.98-1.58,1.82-.79,.79-1.35,1.5-1.66,2.14-3.75,4.11-6.54,6.83-8.39,8.15-1.21,.37-2.43,.74-3.64,1.11-.58,.21-1.16,.47-1.74,.79-.58,.37-1.19,.4-1.82,.08-.58,.05-.98-.21-1.19-.79-.16-.53-.32-1.03-.47-1.5-.16-.32-.05-.53,.32-.63,.32-.11,.47-.24,.47-.4,.37,.37,.76,.37,1.19,0,.16,.16,.37,.11,.63-.16,.26-.21,.34-.42,.24-.63-.11,.05-.19,.05-.24,0,0-.26,.13-.53,.4-.79,.21,.05,.42,.11,.63,.16,.21,.05,.32-.05,.32-.32-.16-.11-.19-.24-.08-.4,.16-.16,.32-.11,.47,.16l.95-1.11c-.11-.37-.05-.66,.16-.87,.11,.11,.18,.13,.24,.08,.05-.16,.08-.32,.08-.47,.58-.26,.98-.61,1.19-1.03,.21-.16,.42-.37,.63-.63,.21-.26,.21-.5,0-.71l3.01-3.01c1.63-1.53,3.06-3.09,4.27-4.67,1.16-1.63,2.43-3.22,3.8-4.75,.32-.21,.42-.37,.32-.48-.05-.1-.24-.1-.55,0-.53,.21-1.4,.32-2.61,.32-.84,0-1.5,.05-1.98,.16-.84,.26-1.56,.34-2.14,.24-.37-.37-.77-.45-1.19-.24-1,.69-2.11,.47-3.32-.63-.11-1.79-.21-2.98-.32-3.56,.42-1.48,.92-2.9,1.5-4.27,.11-.37,.18-.71,.24-1.03,.05-.05,.16-.03,.32,.08,.21-.58,.5-.98,.87-1.19,1.16-1,2.27-.92,3.32,.24,1.58-1.05,3.09-2.19,4.51-3.4,1.48-1.32,2.95-2.66,4.43-4.04,1.16-.53,1.63-1.24,1.42-2.14-.58,.21-1.19,.42-1.82,.63-1.37,.53-2.74,1.08-4.12,1.66l-2.37,.95-1.74,.87c-.42,.21-1.03,.37-1.82,.47-1.11,.11-1.85,.37-2.22,.79-1.79,.53-3.09,1.03-3.88,1.5-.47-.05-1.13,.11-1.98,.47-.58,.05-1.11-.08-1.58-.4-.53-.32-.87-.76-1.03-1.35-.42-1.58-.61-2.77-.55-3.56-.05-.11-.03-.29,.08-.55,.16-.26,.16-.42,0-.47-.16-.21-.05-.4,.32-.55s.71-.21,1.03-.16c-.11,.16-.11,.26,0,.32,.21-.05,.42-.05,.63,0-.05,.16,0,.26,.16,.32,.26,.05,.53,.05,.79,0,1-.53,2.58-1.13,4.75-1.82,1.69-.53,2.93-.98,3.72-1.35,2.11-.74,4.22-1.53,6.33-2.37,2.11-.9,4.22-1.58,6.33-2.06,.16-.47,.24-1.29,.24-2.45,.11-.95,0-1.82-.32-2.61-.32-.84-.61-1.66-.87-2.45-.26-1.05-.55-1.66-.87-1.82-.53,.74-1.21,1-2.06,.79,0-.37-.03-.69-.08-.95,.1-.1,.21-.4,.32-.87,.1-.42,.32-.76,.63-1.03,.21-.21,.42-.47,.63-.79,.26-.32,.53-.45,.79-.4,.26-.37,.55-.76,.87-1.19,.26-.42,.63-.58,1.11-.47,.69-.05,1.32-.18,1.9-.4Zm-3.72,25.17l-.32,.16c-.05,.16-.26,.45-.63,.87-.32,.37-.5,.69-.55,.95,.32-.11,.66-.21,1.03-.32,.37-.05,.61-.24,.71-.55,0-.74-.08-1.11-.24-1.11Zm9.1-2.61v.08c.26,.21,.26,.19,0-.08Zm.24,.55l-.08-.08c-.11,.37-.08,.4,.08,.08Z"/><path d="M81.57,31.53c.22,.07,.45,0,.63,.08,.7,.33,1.44,.94,2.2,1.12,.76,.18,1.36,.35,1.91,.86,.55,.51,.73,1.09,.62,1.8-.11,.71-.17,1.58-.37,2.21-.45,1.41-1.26,2.33-2.39,3.15-.42,.31-.69,.62-1.08,.9s-.65,.63-.86,1.03c-.2,.4-.68,.73-.81,1.12-.22,.68-.15,1.64-.3,2.25-.15,.62,.03,1.22,.03,1.67,0,.53,.01,.7,.59,.93,1.64,.65,3.47,1.29,5.18,1.86,.32-.43,1.02-2.11,1.14-2.38,.62-1.38,1.1-2.37,1.53-3.55,.14-.39,.27-.74,.41-.88,.13-.14,.06,.16,0,.26-.06,.1-.08,.68,.1,.85-.19,1.32-.67,2.36-.77,3.74-.04,.54,.15,1.44,.05,2.13-.1,.7-.13,1.41,.15,2.18,.29,.76,.19,1.65-.15,2.52-.15,.39-.21,.99-.42,1.46s-.71,1.08-.69,1.67c.01,.4,.13,.73-.24,1.04-.36,.31-.58,.31-1.05,.46-1.04,.32-1.93-.09-2.76-.79-.31-.8-.68-1.47-1.3-2.12-.16-.16-.35-.4-.27-.7,.08-.3-.06-.32-.07-.66-.03-1.15-.86-2.33-1.65-3.17-.11-.11-.41-.13-.4,.15,.01,.28-.08,.65-.04,1.02,.26,2.5,.29,4.21-.05,6.97-.2,1.67-.04,4.47,.09,6.48,.1,1.65,.18,3.86,.03,5.49-.07,.76-.15,1.13-.17,1.79-.02,.67-.38,1.02-.63,1.63-.09,.23-.26,.69-.55,.86-.28,.17-.63,.66-.61,.92,.04,.66-.25,.92-.74,1.1-.49,.19-1.05,.19-1.4,.46-1.05,.81-1.75,1.05-2.9,.3-.29-.94-.78-1.79-.76-2.82,.02-1.03-.16-1.9,.02-3.02,.17-1.13,.44-2.39,.51-3.68,.18-3.12,1.08-6.18,.88-9.37-.03-.43,.12-.76-.08-1.12-.03-.06-.18-.04-.21,.19-.03,.23-.14,.8-.36,1.13-.22,.33-.34,.6-.53,1.06-.76,1.78-1.73,3.5-2.43,5.41-.2,.55-.31,1.34-.63,1.95-.45,.86-1.09,1.7-1.44,2.7s-.77,2.05-1.2,3.02c-1.28-.17-1.33-1.66-1.25-2.68s.29-2.5,.4-3.4c.11-.9,.17-2.6,.26-3.11,.41-2.52,.97-6.24,1.24-8.12,.52-3.65,1.39-5.59,2.43-8.62,.08-.25,.11-.38,0-.35-.42,.1-.82,.18-1.28,.2-.46,.02-.8,.17-1.29,.28-.5,.11-1.02,.45-1.49,.78-.47,.34-1.3,.65-1.81,.8-1.57,.46-2.48-.06-3.35-1.36-.36-.53-.41-1.03-.46-1.76s-.04-1.88-.11-2.68c-.27-.24-.35-.4-.37-.78-.02-.39,.22-.46,.52-.63,.22-.12,.32-.52,.55-.72s.4-.53,.54-.8c.11,.3,.35,.54,.5,.82,.15,.27,.27,.49,.58,.31,.31-.18,.57-.3,.84-.55,3.08-2.91,6.31-5.45,9.96-7.65,.97-.58,2.09-1.11,3.05-1.74s2.03-1,3.07-1.47c.29-.13,.67-.4,.99-.32,.32,.08,.51-.17,.73-.1Zm-2.49-12.24h.56c1.21,.42,2.11,1.23,2.72,2.44,1.53,1.39,3.07,2.79,4.6,4.18,.6,.47,.91,1.12,.91,1.95s-.26,1.51-.77,2.02c-.46,.14-.93,.35-1.39,.63-.51,.28-1,.28-1.46,0-.79,.37-1.88,.07-3.28-.91-.56-.93-1.74-1.3-3.56-1.12-.84,.05-1.58,.3-2.23,.77-.7,.51-1.39,.95-2.09,1.32-.23,.23-.39,.28-.49,.14-.09-.32-.02-.67,.21-1.05-.19-.37-.19-.74,0-1.12,.19-.37,.37-.74,.56-1.12,.09-.09,.18-.28,.28-.56,.09-.28,.21-.44,.35-.49,.18-.28,.35-.58,.49-.91-.88-.18-1.74-.51-2.58-.98-.65-.18-1.19-.49-1.6-.91-.51-.46-.63-.93-.35-1.39,1.21-.32,2.35-.81,3.42-1.46,.37-.05,.81-.37,1.32-.98,.33-.37,1.05-.39,2.16-.07,.74,.05,1.49-.09,2.23-.42Zm28.8,9.48c.74,0,1.6,.07,2.58,.21,.46-.14,.93,.02,1.39,.49,.42,.42,.77,.63,1.05,.63,1.53,.79,2.53,1.42,3,1.88,.88,1.3,1.28,2.53,1.19,3.7-.28,.65-.58,1.3-.91,1.95-.28,.56-.7,.93-1.25,1.12-.56,.23-1.07,.51-1.53,.84-.61,.6-1.26,1.12-1.95,1.53-.19,.09-.4,.16-.63,.21-.23,.05-.35,.19-.35,.42-.51,.6-1.02,1.21-1.53,1.81-.51,.74-1.02,1.46-1.54,2.16-.09,.37-.37,.88-.84,1.53-.56,.84-.88,1.46-.98,1.88-.37,.37-.19,.81,.56,1.33,1.3,.74,2.9,2.12,4.81,4.11,.6,.65,1.07,1.37,1.39,2.16,1.39,2.32,2.18,4.39,2.37,6.21,.32,.93,.49,1.91,.49,2.93,.05,.56-.09,1.05-.42,1.46-.09,.37-.26,.7-.49,.98-.98,.51-2.42,.6-4.32,.28-.51,0-.98-.14-1.39-.42-.37-.28-.77-.53-1.19-.77-.05-.18-.23-.3-.56-.35-.19-.05-.33-.12-.42-.21-.51-.09-1.02-.21-1.53-.35-.56-.51-1.19-.81-1.88-.91-.51-.09-1.19-.46-2.02-1.12-.56-.46-1.02-.77-1.4-.91-.28-.14-.56-.3-.84-.49-.28-.18-.56-.14-.84,.14-.19,.7-.28,1.72-.28,3.07,.05,.84,.07,1.65,.07,2.44v6.83l-.14,2.44c-.6,.56-1.21,1.35-1.81,2.37-.14,.42-.28,.81-.42,1.19-.28,.93-.56,1.84-.84,2.72-.05,.46-.3,.7-.77,.7-.42,0-.74-.14-.98-.42-.14,.05-.33,0-.56-.14-.23-.14-.44-.12-.63,.07-.14-.05-.26,0-.35,.14-.09,.18-.16,.21-.21,.07-.65-1.3-.98-2.16-.98-2.58-.33-1.63-.49-3.28-.49-4.95,.09-1.07,.25-4.32,.49-9.76,.32-2.97,.49-6.21,.49-9.69,.14-.14,.14-.32,0-.56-.09-.18-.07-.3,.07-.35,.14-.74,.25-1.51,.35-2.3,.09-1.58,.16-3.18,.21-4.81,0-1.63,.21-3.18,.63-4.67,0-1.91,.12-3.77,.35-5.58,.09-.28-.02-.53-.35-.77-.28-.18-.4-.35-.35-.49-.93-.74-1.72-1.6-2.37-2.58,.05-.42,.23-.79,.56-1.12,.37-.32,.67-.65,.91-.98,.33-.33,.65-.72,.98-1.19,.23-.28,.49-.23,.77,.14,.37,.14,.93,.21,1.67,.21,.93,0,1.58,.09,1.95,.28,.33,0,.63,.14,.91,.42,.14,.14,.35,.39,.63,.77,.09,.28,.26,.4,.49,.35,.23-.05,.37-.21,.42-.49,.46-.23,1.86-1.12,4.18-2.65,.79-.37,1.58-.77,2.37-1.19,.7-.6,1.7-1.07,3-1.39Zm-3.69,10.67l-.21,.14c-.65,.6-1.81,1.18-3.49,1.74-.7,0-1.35,.21-1.95,.63-.19,.42-.44,.81-.77,1.18-.37,.47-.56,1.05-.56,1.74-.05,1.16-.09,2.3-.14,3.42,.04,.56,.16,1.09,.35,1.6,.05,.56,.09,1.09,.14,1.6,.14,.74,.26,1.49,.35,2.23v4.32c0,.56,.25,.84,.77,.84,.23,.14,.44,.16,.63,.07,.05,.05,.07,.12,.07,.21,.98,.23,1.65,.26,2.02,.07,.79,.14,1.56,.26,2.3,.35,1.39,.09,2.37,.09,2.93,0,.04-1.02-.44-1.77-1.46-2.23-1.58-1.12-2.93-3.07-4.04-5.86-.09-.93-.26-1.88-.49-2.86-.28-.98-.3-1.93-.07-2.86,.28-.7,.86-1.67,1.74-2.93,.74-1.07,1.25-1.91,1.53-2.51,.28-.37,.44-.67,.49-.91h-.14Z"/><path d="M11.01,104.22c0,.72-.22,1.31-.64,1.73-.42,.42-1.01,.64-1.73,.64H3.45v-13.42h5.19c.72,0,1.31,.22,1.73,.64,.42,.42,.64,1.01,.64,1.73v2.23c0,.85-.28,1.47-.82,1.89,.54,.46,.82,1.09,.82,1.91v2.64Zm-2.64-5.67v-3.08h-2.29v3.08h2.29Zm0,5.76v-3.5h-2.29v3.5h2.29Z"/><path d="M31.81,106.6h-2.64v-5.53h-2.29v5.53h-2.64v-13.42h5.19c.72,0,1.31,.22,1.73,.64s.64,1.01,.64,1.73v2.43c0,.87-.28,1.51-.82,1.93,.54,.46,.82,1.07,.82,1.85v4.83Zm-2.64-7.87v-3.26h-2.29v3.26h2.29Z"/><path d="M51.37,106.6h-6.32v-13.42h6.1v2.29h-3.46v2.58h3.24v2.29h-3.24v3.96h3.68v2.29Z"/><path d="M72.17,104.22c0,.72-.22,1.31-.64,1.73s-1.01,.64-1.73,.64h-2.82c-.72,0-1.31-.22-1.73-.64-.42-.42-.64-1.01-.64-1.73v-8.67c0-.72,.22-1.31,.64-1.73,.42-.42,1.01-.64,1.73-.64h2.82c.72,0,1.31,.22,1.73,.64,.42,.42,.64,1.01,.64,1.73v2.13h-2.64v-2.21h-2.29v8.83h2.29v-2.21h2.64v2.13Z"/><path d="M91.72,106.6h-6.32v-13.42h6.1v2.29h-3.46v2.58h3.24v2.29h-3.24v3.96h3.68v2.29Z"/><path d="M113.65,106.6h-4.39l-1.89-11.75h-.12v11.75h-2.29v-13.42h4.35l1.93,11.75h.12v-11.75h2.29v13.42Z"/></g></g></g></svg>