<svg xmlns="http://www.w3.org/2000/svg" viewBox="0 0 77.08 77.08"><defs><style>.cls-1{fill:#fff;}.cls-2{fill:#28c445;}</style></defs><g id="图层_2" data-name="图层 2"><g id="图层_1-2" data-name="图层 1"><circle class="cls-1" cx="38.54" cy="38.54" r="34.64"/><path class="cls-2" d="M25.47,25.58a2.51,2.51,0,0,0-2.68,2.24,2.5,2.5,0,0,0,2.68,2.23,2.11,2.11,0,0,0,2.24-2.23A2.09,2.09,0,0,0,25.47,25.58Zm18.15,13a1.92,1.92,0,0,0-1.73,1.79,1.88,1.88,0,0,0,1.73,1.79,2,2,0,0,0,2.24-1.79,2,2,0,0,0-2.24-1.79Zm-5.75-8.49a2.14,2.14,0,0,0,2.24-2.23,2.12,2.12,0,0,0-2.24-2.24,2.51,2.51,0,0,0-2.68,2.24A2.5,2.5,0,0,0,37.87,30.05Zm15.47,8.49a1.92,1.92,0,0,0-1.73,1.79,1.88,1.88,0,0,0,1.73,1.79,2.06,2.06,0,0,0,2.24-1.79,2.06,2.06,0,0,0-2.24-1.79Z"/><path class="cls-2" d="M38.54,0A38.54,38.54,0,1,0,77.08,38.54,38.55,38.55,0,0,0,38.54,0ZM31.22,48.43a25.28,25.28,0,0,1-6.14-1l-6.14,3.13,1.73-5.42c-4.42-3.13-7.1-7.21-7.1-12.07,0-8.54,8-15.25,17.65-15.25,8.66,0,16.31,5.37,17.82,12.57-.56-.05-1.11-.11-1.67-.11-8.38.11-15,6.42-15,14.24A14,14,0,0,0,33,48.32C32.4,48.37,31.78,48.43,31.22,48.43Zm26.15,6.25,1.34,4.47L53.9,56.47a21.4,21.4,0,0,1-5.3.9c-8.44,0-15.09-5.81-15.09-13s6.6-13,15-13c8,0,15,5.87,15,13,0,4-2.63,7.59-6.14,10.27Z"/></g></g></svg>