<?xml version="1.0" encoding="utf-8"?>
<!-- Generator: Adobe Illustrator 27.3.1, SVG Export Plug-In . SVG Version: 6.00 Build 0)  -->
<svg version="1.1" id="图层_1" xmlns="http://www.w3.org/2000/svg" xmlns:xlink="http://www.w3.org/1999/xlink" x="0px" y="0px"
	 viewBox="0 0 121.6 42.5" style="enable-background:new 0 0 121.6 42.5;" xml:space="preserve">
<style type="text/css">
	.st0{fill-rule:evenodd;clip-rule:evenodd;fill:#00A0E9;}
	.st1{fill-rule:evenodd;clip-rule:evenodd;fill:#F08300;}
</style>
<path class="st0" d="M95.7,27.5h1c0.2,0,0.4,0,0.5-0.1c0.1,0,0.2-0.1,0.3-0.2c0.1-0.1,0.1-0.2,0.1-0.3c0-0.2-0.1-0.3-0.2-0.4
	c-0.1-0.1-0.3-0.2-0.6-0.2h-1.1V27.5z M98.1,29.5L98.1,29.5c-0.4,0.3-1,0.6-1.6,0.6c-1.4,0-2.5-1.1-2.5-2.5c0-1.4,1.1-2.5,2.5-2.5
	c1.4,0,2.5,1.1,2.5,2.5c0,0.7-0.3,1.3-0.7,1.7l0,0l-0.5-0.8c-0.1-0.2-0.3-0.4-0.4-0.5c-0.1-0.1-0.2-0.1-0.3-0.2
	c0.3,0,0.6-0.2,0.8-0.3c0.2-0.2,0.2-0.4,0.2-0.7c0-0.2-0.1-0.4-0.2-0.5c-0.1-0.2-0.2-0.3-0.4-0.3c-0.2-0.1-0.4-0.1-0.7-0.1h-1.6v3.6
	h0.5v-1.6h0.6c0.1,0,0.2,0,0.3,0c0.1,0,0.1,0.1,0.2,0.1c0.1,0,0.2,0.1,0.2,0.2c0.1,0.1,0.2,0.3,0.3,0.5l0.5,0.8H98.1z M96.5,24.8
	c1.6,0,2.9,1.3,2.9,2.8c0,1.6-1.3,2.8-2.9,2.8c-1.6,0-2.9-1.3-2.9-2.8C93.7,26,94.9,24.8,96.5,24.8z"/>
<path class="st0" d="M81.3,5c-0.1,0.3-0.2,0.5-0.2,0.7H95l0.5,0.6l-0.3,1.1H80.6c-0.4,1.3-0.7,2.3-1,3.1H85l-0.5,1.7h-5.4
	c-1.1,3.4,1.3-4.1-1,3.1h13l1.5,1.7H77.6l3,2.6h6.3l-0.1,0.5h5.1l-0.5,1.7h-5l-0.1,0.5l-0.7,0.8h-2.4l0.2-1.6h-7l-1.1,3.3l0,0.1h0
	l0,0.1h15.2l-0.4,1.7H75.9l0.2,0.6h0l0,0.1l3.1,2.5h8.4l4.4-3l2.7-10l-3.4-3.8H86l1-3.7h2.3l-0.1,1.4h7L97.5,6L93.9,2h-7.6L81.3,5z
	 M45.9,29.7h7L57,15.3c3.1,0,5.4,0,8.5,0L64.7,17h-7.7l0,3.1h5.9l-0.9,1.7h-5v0.1h0c0,1.1,0,2.1-0.1,3.1h3.4l-0.9,1.7H57
	c0,1-0.1,2-0.1,3.1h2.4l7.8-14.4h0.4l0,0H73L72.6,17h-5.5L67,17.3c-0.3,1.2-0.6,2.1-0.7,2.8h5.4l-0.5,1.7h-5.4
	c-0.2,0.9-0.4,1.6-0.8,3.1h5.3L70,26.6h-5.4c-0.3,0.8-0.6,1.9-1,3.1h7.1L78.3,2L69,2c-0.9,1.7-1.5,2.8-2,3.7h8l-0.5,1.7h-8.4
	c-0.5,0.9-0.9,1.7-1.6,3.1h9.2l-0.5,1.7h-9.6c-0.2,0.4-0.5,0.9-0.7,1.4L62.5,2l-9,0c-0.4,1.3-0.7,2.5-1,3.7h7.8l0,1.7h-8.3
	c-0.3,1.1-0.6,2.1-0.9,3.1h9.3l0,1.7h-9.8c-0.3,1.1-0.6,2.1-0.9,3.1h5.6L55.4,16c-0.1,0.2-0.1,0.4-0.2,0.6L55.1,17h-5.7
	c-0.3,1.1-0.6,2.1-0.9,3.1h5.7l-0.5,1.7h-5.6c-0.3,1-0.6,2-0.9,3.1h5.6l-0.5,1.7h-5.6C46.5,27.6,46.2,28.6,45.9,29.7z M28,29.6
	c0.3-1,0.6-2,0.9-3H41l0.5-1.7H29.4c0.3-1,0.6-2.1,0.9-3.1h6.3l0.5-1.7h-6.3c0.3-1,0.6-2.1,0.9-3.1h12l0.5-1.7H32.1
	c0.3-1,0.6-2.1,0.9-3.1h6.2l0.5-1.7h-6.2c0.3-1,0.6-2.1,0.9-3.1h11.8l0.5-1.7H34.9c0.3-1.2,0.7-2.4,1-3.6h13.7l-1.9,7.2h-6.4l-1,3.4
	h6.5l-1.9,7h-6.5l-1,3.2H44l-1.8,6.8L28,29.6z"/>
<polygon class="st1" points="24.7,26.7 23.8,29.8 21.1,26.7 "/>
<polygon class="st1" points="26,21.9 25.3,24.7 19.4,24.7 17,21.9 "/>
<polygon class="st1" points="27.4,17.1 26.6,19.9 15.3,19.9 12.9,17.1 "/>
<polygon class="st1" points="28.7,12.3 27.9,15.1 11.2,15.1 8.8,12.3 "/>
<polygon class="st1" points="30,7.5 29.2,10.3 7.1,10.3 4.7,7.5 "/>
<polygon class="st1" points="0,2 31.5,2 30.6,5.5 3,5.5 "/>
<path class="st0" d="M95.7,27.5h1c0.2,0,0.4,0,0.5-0.1c0.1,0,0.2-0.1,0.3-0.2c0.1-0.1,0.1-0.2,0.1-0.3c0-0.2-0.1-0.3-0.2-0.4
	c-0.1-0.1-0.3-0.2-0.6-0.2h-1.1V27.5z M98.1,29.5L98.1,29.5c-0.4,0.3-1,0.6-1.6,0.6c-1.4,0-2.5-1.1-2.5-2.5c0-1.4,1.1-2.5,2.5-2.5
	c1.4,0,2.5,1.1,2.5,2.5c0,0.7-0.3,1.3-0.7,1.7l0,0l-0.5-0.8c-0.1-0.2-0.3-0.4-0.4-0.5c-0.1-0.1-0.2-0.1-0.3-0.2
	c0.3,0,0.6-0.2,0.8-0.3c0.2-0.2,0.2-0.4,0.2-0.7c0-0.2-0.1-0.4-0.2-0.5c-0.1-0.2-0.2-0.3-0.4-0.3c-0.2-0.1-0.4-0.1-0.7-0.1h-1.6v3.6
	h0.5v-1.6h0.6c0.1,0,0.2,0,0.3,0c0.1,0,0.1,0.1,0.2,0.1c0.1,0,0.2,0.1,0.2,0.2c0.1,0.1,0.2,0.3,0.3,0.5l0.5,0.8H98.1z M96.5,24.8
	c1.6,0,2.9,1.3,2.9,2.8c0,1.6-1.3,2.8-2.9,2.8c-1.6,0-2.9-1.3-2.9-2.8C93.7,26,94.9,24.8,96.5,24.8z"/>
<path class="st0" d="M81.3,5c-0.1,0.3-0.2,0.5-0.2,0.7H95l0.5,0.6l-0.3,1.1H80.6c-0.4,1.3-0.7,2.3-1,3.1H85l-0.5,1.7h-5.4
	c-1.1,3.4,1.3-4.1-1,3.1h13l1.5,1.7H77.6l3,2.6h6.3l-0.1,0.5h5.1l-0.5,1.7h-5l-0.1,0.5l-0.7,0.8h-2.4l0.2-1.6h-7l-1.1,3.3l0,0.1h0
	l0,0.1h15.2l-0.4,1.7H75.9l0.2,0.6h0l0,0.1l3.1,2.5h8.4l4.4-3l2.7-10l-3.4-3.8H86l1-3.7h2.3l-0.1,1.4h7L97.5,6L93.9,2h-7.6L81.3,5z
	 M45.9,29.7h7L57,15.3c3.1,0,5.4,0,8.5,0L64.7,17h-7.7l0,3.1h5.9l-0.9,1.7h-5v0.1h0c0,1.1,0,2.1-0.1,3.1h3.4l-0.9,1.7H57
	c0,1-0.1,2-0.1,3.1h2.4l7.8-14.4h0.4l0,0H73L72.6,17h-5.5L67,17.3c-0.3,1.2-0.6,2.1-0.7,2.8h5.4l-0.5,1.7h-5.4
	c-0.2,0.9-0.4,1.6-0.8,3.1h5.3L70,26.6h-5.4c-0.3,0.8-0.6,1.9-1,3.1h7.1L78.3,2L69,2c-0.9,1.7-1.5,2.8-2,3.7h8l-0.5,1.7h-8.4
	c-0.5,0.9-0.9,1.7-1.6,3.1h9.2l-0.5,1.7h-9.6c-0.2,0.4-0.5,0.9-0.7,1.4L62.5,2l-9,0c-0.4,1.3-0.7,2.5-1,3.7h7.8l0,1.7h-8.3
	c-0.3,1.1-0.6,2.1-0.9,3.1h9.3l0,1.7h-9.8c-0.3,1.1-0.6,2.1-0.9,3.1h5.6L55.4,16c-0.1,0.2-0.1,0.4-0.2,0.6L55.1,17h-5.7
	c-0.3,1.1-0.6,2.1-0.9,3.1h5.7l-0.5,1.7h-5.6c-0.3,1-0.6,2-0.9,3.1h5.6l-0.5,1.7h-5.6C46.5,27.6,46.2,28.6,45.9,29.7z M28,29.6
	c0.3-1,0.6-2,0.9-3H41l0.5-1.7H29.4c0.3-1,0.6-2.1,0.9-3.1h6.3l0.5-1.7h-6.3c0.3-1,0.6-2.1,0.9-3.1h12l0.5-1.7H32.1
	c0.3-1,0.6-2.1,0.9-3.1h6.2l0.5-1.7h-6.2c0.3-1,0.6-2.1,0.9-3.1h11.8l0.5-1.7H34.9c0.3-1.2,0.7-2.4,1-3.6h13.7l-1.9,7.2h-6.4l-1,3.4
	h6.5l-1.9,7h-6.5l-1,3.2H44l-1.8,6.8L28,29.6z"/>
<polygon class="st1" points="24.7,26.7 23.8,29.8 21.1,26.7 "/>
<polygon class="st1" points="26,21.9 25.3,24.7 19.4,24.7 17,21.9 "/>
<polygon class="st1" points="27.4,17.1 26.6,19.9 15.3,19.9 12.9,17.1 "/>
<polygon class="st1" points="28.7,12.3 27.9,15.1 11.2,15.1 8.8,12.3 "/>
<polygon class="st1" points="30,7.5 29.2,10.3 7.1,10.3 4.7,7.5 "/>
<polygon class="st1" points="0,2 31.5,2 30.6,5.5 3,5.5 "/>
<path class="st1" d="M116.9,12.3H99.7L99,15.1h17.9V12.3z M116.9,7.5H101l-0.8,2.8h16.6V7.5z M116.9,2.1h-14.5l-0.9,3.3h15.4V2.1z"
	/>
<g>
	<path d="M45,35.8h0.9v1h1.3v5.3h-0.8v-0.3h-1.8v0.4h-0.8v-5.4H45V35.8z M44.5,38.9H45v-1.3h-0.5V38.9z M44.5,41H45v-1.3h-0.5V41z
		 M46.3,37.6h-0.5v1.3h0.5V37.6z M45.9,41h0.5v-1.3h-0.5V41z M49.3,38.8c0.6,0.5,0.8,1.1,0.8,1.8c0,0.3-0.1,0.5-0.2,0.7
		c-0.1,0.2-0.3,0.3-0.5,0.4c-0.2,0.1-0.5,0.1-0.9,0.1c0-0.3-0.1-0.6-0.2-0.9c0.1,0,0.2,0,0.4,0c0.3,0,0.4-0.1,0.4-0.4
		c0-0.2-0.1-0.4-0.2-0.7c-0.1-0.3-0.3-0.5-0.6-0.8c0.2-0.5,0.4-1.1,0.6-1.9h-0.7v5.6h-0.9v-6.3h2.5v0.6L49.3,38.8z"/>
	<path d="M55,35.7l0.9,0.2c-0.1,0.3-0.2,0.5-0.3,0.8h2v0.9h-0.5c-0.1,1.2-0.4,2.2-0.8,3c0.3,0.4,0.8,0.7,1.3,0.9
		c-0.2,0.3-0.4,0.6-0.6,0.9c-0.5-0.3-0.9-0.7-1.3-1.1c-0.4,0.4-0.9,0.8-1.5,1.1c-0.2-0.3-0.3-0.6-0.5-0.8l-2.8,0.4l-0.1-1l0.4,0V38
		H52v3l0.5-0.1v-3.8H51v-0.9h3.3v0.9h-1v1.4h0.4C54.3,37.8,54.7,36.9,55,35.7z M54.1,39.4h-0.8v1.5l1-0.1c0,0.1,0,0.3-0.1,0.6
		c0.4-0.2,0.7-0.5,0.9-0.7c-0.3-0.5-0.5-1.1-0.6-1.8c-0.1,0.1-0.2,0.2-0.2,0.3c-0.1-0.1-0.1-0.2-0.2-0.3V39.4z M55.8,39.8
		c0.3-0.6,0.5-1.3,0.5-2.1h-1.1c0,0,0,0,0,0C55.3,38.5,55.5,39.2,55.8,39.8z"/>
	<path d="M59.7,38.3c0.3,0,0.5,0.1,0.7,0.3c0.2,0.2,0.3,0.4,0.3,0.7c0,0.3-0.1,0.5-0.3,0.7c-0.2,0.2-0.4,0.3-0.7,0.3
		c-0.3,0-0.5-0.1-0.7-0.3c-0.2-0.2-0.3-0.4-0.3-0.7c0-0.3,0.1-0.5,0.3-0.7C59.2,38.4,59.4,38.3,59.7,38.3z"/>
	<path d="M64.6,35.8h1V37h2.5v3.8h-1v-0.5h-1.5v2.2h-1v-2.2H63v0.5h-1V37h2.5V35.8z M63,39.4h1.5v-1.5H63V39.4z M67.1,37.9h-1.5v1.5
		h1.5V37.9z"/>
	<path d="M69.1,40.3c0.4-0.5,0.7-1,0.9-1.7h-0.9v-0.9h0.9V37L69.3,37c0-0.3-0.1-0.6-0.1-0.8c1-0.1,1.8-0.2,2.5-0.3l0.2,0.8l-0.9,0.1
		v0.9h0.7l-0.2-0.4l0.8-0.3c0.2,0.5,0.4,1.1,0.6,1.8l-0.8,0.3c-0.1-0.4-0.3-0.9-0.4-1.3v0.7h-0.7v0.8l0.3-0.3
		c0.3,0.3,0.6,0.5,0.9,0.8l-0.6,0.6c-0.2-0.3-0.4-0.5-0.6-0.7v2.6h-0.9v-2.2c-0.2,0.5-0.4,0.9-0.7,1.2
		C69.3,41.1,69.2,40.7,69.1,40.3z M73.1,35.8h0.9l0,1.9c0,0.6,0.1,1.3,0.4,2c0.3,0.8,0.8,1.4,1.5,1.9c-0.2,0.3-0.5,0.6-0.7,0.9
		c-0.8-0.6-1.3-1.5-1.6-2.6c-0.3,1-0.8,1.9-1.8,2.6c-0.2-0.3-0.4-0.6-0.6-0.8c0.5-0.4,0.9-0.8,1.2-1.3c0.3-0.5,0.5-0.9,0.6-1.4
		C73.1,38.5,73.1,37.5,73.1,35.8z M75,37l0.8,0.3c-0.3,0.8-0.6,1.5-0.9,2l-0.7-0.4C74.5,38.3,74.7,37.7,75,37z"/>
</g>
</svg>
