<svg xmlns="http://www.w3.org/2000/svg" viewBox="0 0 324.32 110.96"><g id="图层_2" data-name="图层 2"><g id="图层_1-2" data-name="图层 1"><path d="M16.1,44.48A16.11,16.11,0,0,1,4.3,39.69C-.12,35.26,0,29.79,0,22.24s-.12-13,4.3-17.45A16.11,16.11,0,0,1,16.1,0c8.17,0,14.55,4.67,16.09,13.82H23.53c-.86-3.5-3.07-6.2-7.37-6.2a7.07,7.07,0,0,0-5.47,2.27C9,11.73,8.54,13.82,8.54,22.24S9,32.74,10.69,34.59a7.07,7.07,0,0,0,5.47,2.27c4.3,0,6.51-2.7,7.37-6.21h8.66C30.65,39.81,24.2,44.48,16.1,44.48Z"/><path d="M62.79,44.11,54.25,26.66H48.1V44.11H39.56V.37H56.7c8.91,0,14.19,6.08,14.19,13.39a11.78,11.78,0,0,1-8,11.49l9.77,18.86ZM56.15,8h-8V19.54h8c3.75,0,6.2-2.4,6.2-5.78S59.9,8,56.15,8Z"/><path d="M79.74,44.11V.37h79.38V8H88.28V18.25h67.83v7.61H88.28V36.49h70.84v7.62Z"/><path d="M194.46,44.11l-2.58-7.74H176.34l-2.65,7.74h-8.9L180.7.37h6.69l16,43.74Zm-10.2-30.84-5.53,15.91h10.88Z"/><path d="M222.71,8V44.11h-8.54V8H202.74V.37h31.4V8Z"/><path d="M241.08,44.11V.37h8.54V44.11Z"/><path d="M275.73,44.11h-6.39L254.9.37h8.85l8.78,28.5L281.32.37h8.9Z"/><path d="M295.51,44.11V.37h28.81V8H304.05V18.25h17.26v7.61H304.05V36.49h20.27v7.62Z"/><path d="M11.81,74.47V85.22H29.07v7.62H11.81V110.6H3.27V66.86H32.08v7.61Z"/><path d="M62.74,110.6,54.2,93.15H48.05V110.6H39.51V66.86H56.65c8.91,0,14.2,6.08,14.2,13.39a11.79,11.79,0,0,1-8,11.49l9.77,18.86ZM56.1,74.47H48.05V86H56.1c3.75,0,6.21-2.39,6.21-5.77S59.85,74.47,56.1,74.47Z"/><path d="M79.69,110.6V66.86h79.43v7.61H88.23V84.73h67.88v7.62H88.23V103h70.89v7.62Z"/><path d="M167.48,110.6V66.86h28.81v7.61H176V84.73h17.26v7.62H176V103h20.27v7.62Z"/><path d="M232,106.42c-2.88,2.89-7,4.18-11.54,4.18H204.65V66.86h15.79c4.54,0,8.66,1.29,11.54,4.17C236.9,76,236.41,82,236.41,88.54S236.9,101.5,232,106.42ZM226,77.18a7.61,7.61,0,0,0-6.39-2.71h-6.45V103h6.45a7.63,7.63,0,0,0,6.39-2.7c1.59-2,1.84-5.1,1.84-11.74S227.62,79.14,226,77.18Z"/><path d="M271.61,106.17a17,17,0,0,1-23.65,0c-4.43-4.42-4.3-9.89-4.3-17.44s-.13-13,4.3-17.45a17,17,0,0,1,23.65,0C276,75.7,276,81.17,276,88.73S276,101.75,271.61,106.17Zm-6.33-29.73a7.11,7.11,0,0,0-5.47-2.34,7.22,7.22,0,0,0-5.52,2.34c-1.66,1.84-2.09,3.87-2.09,12.29s.43,10.44,2.09,12.28a7.19,7.19,0,0,0,5.52,2.34,7.08,7.08,0,0,0,5.47-2.34c1.66-1.84,2.15-3.87,2.15-12.28S266.94,78.28,265.28,76.44Z"/><path d="M315.78,110.6V85.1l-8.35,16.59h-5.78L293.23,85.1v25.5h-8.54V66.86h8.42l11.43,23.65L315.9,66.86h8.42V110.6Z"/></g></g></svg>