<?xml version="1.0" encoding="UTF-8"?><svg id="_层_2" xmlns="http://www.w3.org/2000/svg" viewBox="0 0 747.07 119.12"><g id="_层_1-2"><g id="_层_2-2"><g id="_层_1-2"><rect y=".09" width="12.04" height="119.02"/><path d="M10,108.14h31.45c8.97,0,15.54-1.69,19.73-5.08,4.19-3.39,6.28-8.16,6.27-14.32v-4.42c.09-3.88-.75-7.72-2.45-11.21-1.63-3.19-4.28-5.76-7.52-7.29-4.04-1.82-8.44-2.69-12.87-2.54H10v-11H44.6c6.96,0,12.24-1.6,15.84-4.79s5.4-7.93,5.39-14.21v-3.39c0-6.28-1.94-10.99-5.81-14.12-3.87-3.13-9.62-4.7-17.23-4.71H10V.09H44.8c7.33,0,13.43,1.2,18.3,3.6,4.67,2.19,8.53,5.81,11.03,10.32,2.57,4.93,3.84,10.44,3.68,16v3.19c.03,3.81-.73,7.58-2.21,11.09-1.48,3.44-3.77,6.46-6.69,8.8-3.22,2.55-7.03,4.25-11.08,4.92,4.22,.54,8.23,2.21,11.58,4.83,3.19,2.56,5.73,5.84,7.4,9.58,1.75,3.96,2.64,8.26,2.59,12.59v4c.11,5.57-1.27,11.07-4,15.92-2.66,4.56-6.64,8.21-11.4,10.49-5.5,2.57-11.52,3.83-17.59,3.69H10v-10.97Z"/><rect x="133.53" y="0" width="11.46" height="119.1"/><path d="M140.62,57.8h35.79c3.81,.08,7.58-.86,10.9-2.74,3.11-1.8,5.6-4.5,7.16-7.74,1.71-3.63,2.58-7.61,2.53-11.62v-2.46c.08-4.04-.76-8.04-2.47-11.7-1.54-3.27-4.03-6-7.16-7.82-3.35-1.89-7.15-2.83-11-2.74h-35.75V0h35.24c5.97-.13,11.87,1.26,17.14,4.05,4.84,2.63,8.8,6.63,11.38,11.5,2.76,5.36,4.14,11.33,4,17.36v2.78c.13,6.05-1.24,12.04-4,17.43-2.56,4.91-6.52,8.94-11.38,11.59-5.26,2.78-11.15,4.18-17.1,4.05h-35.28v-10.97Z"/><polygon points="175.06 65.09 185.56 61.32 212.93 119.11 199.32 119.11 175.06 65.09"/><rect x="267.07" y=".09" width="11.81" height="119.02"/><polygon points="275.19 .09 346.47 .09 342.45 11.06 275.19 11.06 275.19 .09"/><polygon points="275.19 54.53 338.43 54.53 334.41 65.49 275.19 65.49 275.19 54.53"/><polygon points="275.19 108.14 346.47 108.14 342.45 119.11 275.19 119.11 275.19 108.14"/><rect x="534.14" y=".09" width="11.81" height="119.02"/><polygon points="542.25 .09 613.53 .09 609.52 11.06 542.25 11.06 542.25 .09"/><polygon points="542.25 54.53 605.5 54.53 601.48 65.49 542.25 65.49 542.25 54.53"/><polygon points="542.25 108.14 613.53 108.14 609.52 119.11 542.25 119.11 542.25 108.14"/><polygon points="667.67 .09 679.39 .09 739.61 105.44 735.26 103.23 735.26 .09 747.07 .09 747.07 119.03 735.18 119.03 673.9 13.03 679.48 16.3 679.48 119.03 667.67 119.03 667.67 .09"/><path d="M480,99.24c-6,5.49-14.35,8.89-27,8.89-27.89,0-39-22.27-39-48.67s11.08-48.46,38.67-48.46c12.62,0,21.23,3.47,27.33,8.94V5.68C472.82,2.14,463.91,0,453,0c-35.32,0-52.4,27.13-52.4,59.86s15.4,59.24,51.77,59.24c11.35,0,20.41-2.18,27.63-5.92v-13.95Z"/></g></g></g></svg>