<?xml version="1.0" encoding="utf-8"?>
<!-- Generator: Adobe Illustrator 26.0.2, SVG Export Plug-In . SVG Version: 6.00 Build 0)  -->
<svg version="1.1" id="图层_1" xmlns="http://www.w3.org/2000/svg" xmlns:xlink="http://www.w3.org/1999/xlink" x="0px" y="0px"
	 viewBox="0 0 457 247" style="enable-background:new 0 0 457 247;" xml:space="preserve">
<style type="text/css">
	.st0{fill:#818181;}
	.st1{fill-rule:evenodd;clip-rule:evenodd;fill:#818181;}
	.st2{clip-path:url(#SVGID_00000087375158385340693740000008631515302564018845_);fill:#818181;}
	.st3{clip-path:url(#SVGID_00000004526913708738233790000006192700220706886832_);fill:#818181;}
	.st4{fill:none;}
</style>
<g>
	<path class="st0" d="M273.97,180.14c0,1.78-0.03,3.32,0.01,4.86c0.02,0.62-0.19,0.77-0.78,0.76c-1.48-0.02-1.48,0.01-1.48-1.51
		c0-2.24,0.01-4.48-0.01-6.72c-0.01-0.56,0.1-0.77,0.74-0.81c0.93-0.05,1.57,0.25,2.11,0.99c0.49,0.67,1.09,1.26,1.61,1.91
		c0.29,0.36,0.48,0.38,0.79,0.01c0.65-0.8,1.35-1.57,2.02-2.35c0.37-0.42,1.73-0.71,2.21-0.48c0.25,0.12,0.19,0.33,0.19,0.51
		c0,2.64,0,5.29,0.01,7.93c0,0.43-0.18,0.51-0.57,0.53c-1.68,0.08-1.68,0.09-1.68-1.57c0-1.26,0-2.52,0-4.02
		c-0.74,0.85-1.36,1.53-1.94,2.25c-0.45,0.56-0.79,0.64-1.27,0.01C275.38,181.7,274.73,181.02,273.97,180.14z"/>
	<path class="st0" d="M310.16,180.04c0,1.83-0.02,3.43,0.01,5.03c0.01,0.57-0.17,0.72-0.73,0.72c-1.53-0.01-1.53,0.02-1.53-1.54
		c0-2.24,0.02-4.48-0.01-6.72c-0.01-0.62,0.19-0.74,0.78-0.77c0.91-0.05,1.55,0.21,2.13,0.94c1.18,1.48,2.47,2.87,3.71,4.29
		c0.35-0.14,0.22-0.41,0.22-0.61c0.01-1.32,0.03-2.64,0-3.96c-0.01-0.49,0.16-0.63,0.64-0.64c1.64-0.03,1.64-0.05,1.64,1.62
		c0,2.21-0.02,4.42,0.01,6.63c0.01,0.61-0.19,0.75-0.78,0.77c-0.78,0.03-1.32-0.17-1.83-0.81
		C313.1,183.37,311.69,181.81,310.16,180.04z"/>
	<path class="st0" d="M254.8,179.96c0,1.83-0.03,3.4,0.02,4.97c0.02,0.65-0.17,0.83-0.81,0.81c-1.45-0.04-1.45,0-1.45-1.46
		c0-2.3,0.02-4.59-0.01-6.89c-0.01-0.59,0.2-0.68,0.73-0.73c0.95-0.08,1.59,0.22,2.19,0.98c1.08,1.37,2.28,2.65,3.44,3.97
		c0.12,0.14,0.19,0.36,0.52,0.35c0-1.48,0.03-2.96-0.01-4.44c-0.02-0.62,0.12-0.86,0.8-0.84c1.47,0.04,1.47,0,1.47,1.45
		c0,2.3-0.02,4.59,0.01,6.89c0.01,0.57-0.18,0.69-0.73,0.73c-0.86,0.06-1.43-0.25-1.97-0.91
		C257.69,183.26,256.31,181.72,254.8,179.96z"/>
	<path class="st0" d="M142.88,182.11c0-1.77,0.02-3.29-0.01-4.8c-0.01-0.53,0.16-0.68,0.68-0.67c1.57,0.01,1.57-0.02,1.57,1.59
		c0,2.18-0.02,4.36,0.01,6.54c0.01,0.63-0.11,0.88-0.83,0.9c-0.8,0.01-1.31-0.25-1.81-0.86c-1.3-1.59-2.67-3.13-4.19-4.89
		c0,1.77-0.04,3.31,0.02,4.83c0.03,0.74-0.21,0.98-0.91,0.87c-0.2-0.03-0.4-0.03-0.6,0c-0.6,0.09-0.78-0.14-0.77-0.75
		c0.03-2.5,0.03-4.99,0-7.49c-0.01-0.61,0.18-0.73,0.77-0.77c0.96-0.07,1.58,0.26,2.18,1.01
		C140.16,179.09,141.45,180.48,142.88,182.11z"/>
	<path class="st0" d="M119.64,181.04c0-1.24,0.02-2.47-0.01-3.71c-0.01-0.48,0.06-0.73,0.64-0.72c1.78,0.04,3.56,0.04,5.35,0.01
		c0.67-0.01,0.58,0.4,0.56,0.79c-0.02,0.38,0.21,0.92-0.54,0.9c-1.03-0.03-2.07,0.02-3.1-0.03c-0.86-0.04-0.61,0.55-0.63,0.99
		c-0.02,0.44-0.13,0.94,0.64,0.88c0.89-0.06,1.79,0.04,2.67-0.03c0.76-0.06,0.74,0.36,0.74,0.89c0.01,0.52-0.01,0.87-0.71,0.82
		c-0.89-0.06-1.78,0.01-2.67-0.03c-0.51-0.02-0.71,0.1-0.69,0.66c0.06,1.82-0.19,1.44,1.43,1.48c0.8,0.02,1.61,0.03,2.41,0
		c0.78-0.03,0.49,0.54,0.52,0.9c0.03,0.37,0.16,0.8-0.53,0.79c-1.84-0.04-3.68-0.03-5.52-0.01c-0.48,0.01-0.57-0.2-0.56-0.61
		C119.65,183.68,119.64,182.36,119.64,181.04z"/>
	<path class="st0" d="M291.5,181.2c0-1.26,0.02-2.53-0.01-3.79c-0.01-0.47,0.12-0.66,0.62-0.65c1.78,0.03,3.57,0.04,5.35,0.01
		c0.73-0.01,0.57,0.46,0.58,0.86c0.01,0.41,0.08,0.81-0.58,0.78c-1.03-0.04-2.07,0.02-3.1-0.03c-0.89-0.04-0.57,0.59-0.6,1
		c-0.03,0.42-0.19,0.95,0.61,0.9c0.95-0.06,1.9,0.03,2.84-0.02c0.73-0.04,0.59,0.44,0.58,0.85c0,0.4,0.15,0.89-0.58,0.86
		c-0.92-0.05-1.84,0.02-2.76-0.03c-0.57-0.03-0.73,0.17-0.72,0.73c0.01,1.41-0.02,1.41,1.4,1.41c0.72,0,1.44-0.01,2.16,0.01
		c0.26,0.01,0.68-0.17,0.76,0.17c0.1,0.43,0.07,0.92,0,1.36c-0.03,0.22-0.34,0.14-0.53,0.14c-1.81,0-3.62-0.01-5.43,0
		c-0.45,0-0.6-0.15-0.59-0.6C291.51,183.85,291.5,182.53,291.5,181.2z"/>
	<path class="st0" d="M172.8,181.12c0-1.29,0.01-2.59-0.01-3.88c-0.01-0.45,0.14-0.6,0.59-0.59c1.78,0.02,3.57,0.04,5.35,0
		c0.79-0.02,0.58,0.5,0.61,0.92c0.04,0.48-0.01,0.83-0.67,0.79c-1-0.06-2.01,0.02-3.02-0.03c-0.89-0.04-0.57,0.59-0.6,1
		c-0.03,0.43-0.17,0.95,0.62,0.9c0.92-0.05,1.84,0.03,2.76-0.03c0.73-0.05,0.69,0.37,0.68,0.86c0,0.46,0.03,0.84-0.65,0.8
		c-0.92-0.06-1.84,0-2.76-0.02c-0.45-0.01-0.66,0.08-0.68,0.6c-0.04,1.58-0.07,1.58,1.5,1.58c0.63,0,1.26,0,1.9,0
		c0.91,0,1.27,0.54,0.97,1.39c-0.1,0.28-0.3,0.23-0.48,0.23c-1.87,0.01-3.74-0.01-5.61,0.01c-0.53,0.01-0.52-0.29-0.52-0.66
		C172.8,183.7,172.8,182.41,172.8,181.12z"/>
	<path class="st0" d="M159.01,176.65c1.15,0,2.3,0.04,3.44-0.02c0.7-0.04,0.91,0.15,0.92,0.88c0.02,0.81-0.34,0.88-0.97,0.84
		c-0.57-0.04-1.15,0.01-1.72-0.03c-0.51-0.04-0.62,0.17-0.62,0.64c0.02,1.95-0.01,3.9,0.02,5.85c0.01,0.61-0.1,0.85-0.78,0.83
		c-1.47-0.05-1.47,0-1.47-1.51c0-1.66-0.04-3.33,0.02-4.99c0.02-0.71-0.22-0.89-0.87-0.83c-0.54,0.05-1.09-0.05-1.63,0.01
		c-0.69,0.07-0.82-0.23-0.79-0.84c0.02-0.55,0.02-0.91,0.76-0.87C156.54,176.7,157.78,176.65,159.01,176.65z"/>
	<path class="st0" d="M209.34,176.68c1.23,0,2.47,0.04,3.7-0.01c0.77-0.03,0.62,0.46,0.64,0.9c0.01,0.45,0.07,0.87-0.63,0.8
		c-0.63-0.06-1.26,0.03-1.89-0.03c-0.63-0.06-0.76,0.2-0.75,0.78c0.03,1.92-0.01,3.84,0.02,5.76c0.01,0.59-0.15,0.79-0.76,0.78
		c-1.49-0.02-1.49,0.01-1.49-1.49c0-1.72-0.02-3.44,0.01-5.16c0.01-0.53-0.16-0.71-0.68-0.68c-0.69,0.04-1.38-0.01-2.06,0.02
		c-0.78,0.03-0.49-0.54-0.52-0.9c-0.03-0.38-0.14-0.82,0.54-0.8C206.75,176.7,208.05,176.67,209.34,176.68
		C209.34,176.67,209.34,176.68,209.34,176.68z"/>
	<path class="st0" d="M331.93,182.21c0,0.98-0.03,1.95,0.01,2.93c0.03,0.55-0.17,0.66-0.68,0.66c-1.58,0-1.58,0.02-1.58-1.56
		c0-1.72-0.01-3.44,0.01-5.17c0.01-0.47-0.11-0.68-0.62-0.65c-0.69,0.04-1.38-0.02-2.07,0.02c-0.73,0.04-0.57-0.46-0.58-0.86
		c-0.01-0.39-0.11-0.79,0.56-0.78c2.56,0.03,5.11,0.03,7.67,0.01c0.92-0.01,0.44,0.66,0.53,1.04c0.11,0.47-0.11,0.67-0.61,0.63
		c-0.69-0.05-1.38-0.02-2.07-0.05c-0.45-0.02-0.6,0.15-0.59,0.6C331.95,180.08,331.93,181.14,331.93,182.21z"/>
	<path class="st0" d="M242.4,181.3c0,1.26-0.02,2.53,0.01,3.79c0.01,0.48-0.14,0.64-0.63,0.65c-1.62,0.03-1.62,0.05-1.62-1.57
		c0-2.24,0.02-4.48-0.01-6.72c-0.01-0.61,0.19-0.78,0.78-0.77c1.47,0.02,1.47-0.01,1.47,1.44C242.4,179.17,242.4,180.24,242.4,181.3
		z"/>
	<path class="st0" d="M206.1,168.73c0.36-0.22,0.77-0.19,1.17-0.19c3.46,0,6.92,0,10.39,0c0.2,0.3,0.4,0.6,0.69,1.03
		c-1.1,0-2.03,0-2.97,0c-2.64,0-5.28-0.03-7.92,0.02C206.74,169.61,206.32,169.38,206.1,168.73z"/>
	<path class="st0" d="M338.62,126.46c-0.21-0.28-0.21-0.56,0-0.85C338.61,125.89,338.61,126.18,338.62,126.46z"/>
	<path class="st0" d="M217.65,168.54c-0.27,0.28-0.62,0.27-0.97,0.27c-3.36,0.03-6.72-0.02-10.08,0.03c-0.18,0-0.34-0.04-0.5-0.1
		c-0.57-0.02-1.15-0.05-1.72-0.04c-0.63,0.01-1.28,0.08-1.59-0.67c-0.02-0.05-0.08-0.12-0.12-0.12c-1.22,0.11-2.01-1.07-3.2-1.07
		c-2.3,0.01-4.6,0-6.89,0.01c-0.82,0-1.55-0.18-2-0.93c-0.25-0.42-0.65-0.3-1-0.3c-6.49-0.05-12.98-0.1-19.47-0.14
		c-0.55,0-1-0.07-1.48-0.46c-0.71-0.58-1.61-0.8-2.55-0.91c-1.79-0.2-3.31,0.27-4.66,1.45c-1.07,0.94-2.4,1.6-3.13,2.9
		c-0.19,0.33-0.43,0.17-0.67,0.14c-2.08-0.24-4.15-0.61-6.26-0.27c-0.09,0.01-0.19-0.01-0.25,0.04c-1.02,0.76-1.39-0.29-1.98-0.72
		c-0.24-0.18-0.1-0.35,0.05-0.5c0.39-0.37,0.64-0.8,0.72-1.33c0.04-0.24,0.23-0.31,0.41-0.4c1.07-0.55,2.13-1.12,3.07-1.88
		c1.73-0.97,2.28-2.45,1.96-4.35c-0.14-0.79,0.07-1.45,0.81-1.87c0.01-0.28,0.09-0.63-0.19-0.79c-0.73-0.41-0.64-1.08-0.62-1.73
		c0.04-1.53-0.05-3.06,0.02-4.59c-0.02-0.25,0.01-0.58,0.07-1.05c0.93-0.53,0.73-1.42,0.74-2.25c0.01-0.72-0.14-1.43,0.66-1.95
		c0.47-0.3,0.09-0.96,0.17-1.45c-0.23-0.39-0.41-0.86-0.81-1.08c-0.84-0.47-0.88-1.2-0.87-2.03c0.02-3.09-0.01-6.17,0-9.26
		c0-0.29-0.15-0.63,0.13-0.89c0.6-0.33,0.77-0.82,0.67-1.49c-0.24-1.59-0.15-3.18-0.01-4.78c0.05-0.54,0.23-0.92,0.73-1.14
		c0.24-0.3,0.17-0.65,0.17-0.99c0-2.49,0-4.98,0.01-7.47c0-0.29-0.16-0.63,0.15-0.88c1.13-1.38,1.29-2.59,0.03-3.79
		c-0.2-0.19-0.19-0.4-0.19-0.63c0.01-4.04,0.02-8.08,0.03-12.12c-0.14-0.17-0.29-0.34-0.43-0.51c-0.45-0.04-0.43-0.38-0.43-0.7
		c0-1.98,0.02-3.96-0.02-5.93c-0.01-0.54,0.36-0.74,0.66-1.02c0.29-0.28,0.58-0.55,0.87-0.82c0.33-0.57,0.27-1.22,0.3-1.83
		c0.06-1.14,0.03-2.28,0.04-3.42c0.01-0.63-0.13-1.18-0.75-1.51c-0.2-0.1-0.4-0.25-0.2-0.54c0.51-0.73,0.69-1.62,1.1-2.4
		c0.73-2.2-0.16-4.14-0.99-6.1c-0.25-0.59-0.78-0.79-1.25-0.71c-1.32,0.22-1.77-0.56-2.11-1.57c-0.9-1.13-1.99-2.05-3.16-2.88
		c-0.4-0.28-0.47-0.51-0.1-0.86c0.18-0.17,0.36-0.39,0.43-0.62c0.15-0.49,0.2-0.96,0.96-0.89c0.52,0.05,0.94,0.1,1.17,0.63
		c0.16,0.38,0.52,0.28,0.83,0.28c1.78,0,3.55,0.02,5.33-0.01c0.54-0.01,0.89,0.12,1.19,0.6c0.53,0.85,1.17,1.6,2.37,1.18
		c0.29-0.1,0.56,0.07,0.75,0.31c0.46,0.57,0.9,1.15,1.35,1.72c0.75,0.74,1.5,1.48,2.25,2.22c0.28,0.19,0.15,0.47,0.15,0.71
		c0.01,2.38,0,4.77,0.01,7.15c0,0.38-0.01,0.71-0.39,0.97c-0.62,0.43-0.71,1.16-0.14,1.52c1.59,1.01,1.35,2.51,1.38,4.01
		c0.01,0.81-0.12,1.46-0.87,1.87c-0.01,0.29-0.01,0.58-0.02,0.87c0,1.78,0,3.56,0,5.33c-0.04,0-0.08,0-0.12,0c0,0.01,0,0.01,0,0.02
		c0.04-0.01,0.08-0.02,0.12-0.02c0.01,3.61,0.03,7.23,0.02,10.84c0,0.57,0.12,0.97,0.64,1.27c0.83,0.49,1.18,1.28,1.29,2.22
		c0.24,2.12,0.21,4.24,0.15,6.36c0.03,2.76-0.08,5.52-0.32,8.28c-0.01,0.54-0.04,1.08-0.01,1.61c0.05,0.75-0.19,1.32-0.88,1.66
		c0,0,0,0,0,0c0,0,0,0,0,0c0,1.85-0.01,3.71-0.01,5.56c0,0.2-0.03,0.5,0.08,0.57c1.25,0.79,0.68,2.04,0.81,3.11
		c0.02,0.14-0.02,0.28-0.03,0.42c0,0.51-0.01,1.03,0,1.54c0.01,0.47-0.08,0.75-0.63,0.92c-0.82,0.25-1.17,1.83-0.65,2.52
		c0.69,0.91,0.6,2.08-0.21,2.83c-0.43,0.69-0.13,1.44-0.21,2.16c-0.09,0.91,0.23,1.84-0.72,2.63c-0.47,0.39-0.05,1.36-0.17,2.06l0,0
		c0.01,1.06,0.02,2.12,0.03,3.17c0,0.23-0.01,0.44-0.21,0.62c-0.68,0.62-0.92,1.28-0.18,2.04c0.12,0.13,0.13,0.37,0.19,0.56
		c0.37,1.31,0.37,1.3,1.76,1.37c1.46,0.08,2.92,0.24,4.39,0.02c0.39-0.06,0.72-0.11,0.94-0.48c0.27-0.45,0.73-0.72,1.13-1.05
		c0.81-0.67,1.66-0.74,2.65-0.45c1.46,0.43,2.92,0.88,4.44,1.02c1.99,0.18,3.86,0,5.5-1.38c0.68-0.57,1.68-0.52,2.57-0.6
		c3.18-0.3,6.37-0.34,9.56-0.36c5.43-0.04,10.87,0.11,16.3,0.2c0.73,0.01,0.91,0.24,0.89,0.94c-0.05,2.56-0.04,5.11-0.06,7.67
		C216.13,165.62,216.79,167.11,217.65,168.54z M276.83,129.04c0.02,3.77,0.02,7.55-0.28,11.31c-0.02,0.24,0.07,0.53-0.19,0.71
		c-0.78,1.16-1.11,2.5-1.54,3.8c-0.45,1.39-0.86,2.8-1.5,4.12c-0.29,0.59-0.59,1.18-1.1,1.62c0.42,2.8-0.25,5.42-1.36,7.96
		c-0.04,0.58-0.2,1.15-0.51,1.62c-0.58,0.87-0.66,1.81-0.56,2.79c0.08,0.84-0.09,1.51-0.87,1.95c0,0.89,0.01,1.78,0.01,2.67
		c0,1.57-0.5,2.07-2.07,2.08c-0.11,0-0.23,0.04-0.32,0.1c-0.47,0.29-0.58,0.11-0.57-0.37c0.03-1.49,0.03-2.98,0.05-4.47
		c-0.66-2.12-1.38-4.22-1.92-6.37c-0.53-1.14-0.8-2.33-0.66-3.58c0.14-1.2-0.32-2.11-1.19-2.89c-0.44-0.4-0.82-0.87-1.23-1.32
		c-0.63-0.57-1.07-1.27-1.39-2.04c-0.44-1.06-0.53-2,0.38-2.98c1.32-1.44,2.16-3.23,3.06-4.96c0.75-2.05,1.42-4.11,1.59-6.31
		c0.06-0.83-0.21-1.35-0.83-1.83c-1.16-0.9-2.42-1.65-3.7-2.36c-0.47-0.26-0.94-0.54-1.41-0.82c-1.26-0.61-2.49-1.29-3.65-2.08
		c-0.12-0.08-0.22-0.19-0.35-0.25c-0.46-0.23-1.03-0.27-1.4-0.03c-0.31,0.2,0.11,0.66,0.17,1.01c0.02,0.14,0.06,0.28,0.08,0.42
		c0.35,0.48,0.21,1.04,0.23,1.57c0.02,0.37,0.03,0.74,0,1.11c-0.13,1.35-0.11,2.63,1.33,3.36c0.46,0.28,0.78,0.74,1.34,0.9
		c0.39,0.11,0.38,0.47,0.2,0.78c-0.4,0.72-1.03,1.3-1.23,2.15c-0.07,0.29-0.4,0.14-0.6,0.14c-1.03-0.03-2.07-0.02-3.09-0.14
		c-2.74-0.33-5.18,0.68-7.66,1.57c-1.37,0.49-2.75,0.98-4.11,1.51c-0.46,0.18-0.69,0.14-0.94-0.33c-0.44-0.81-0.4-1.8-1.01-2.53
		c-0.13-0.16,0.04-0.31,0.14-0.45c0.67-0.9,1.31-1.83,2.15-2.57c0.45-0.4,0.74-0.84,0.83-1.42c-0.01-1.84,0.68-3.25,2.41-4.09
		c1.05-0.52,1.03-0.57,0.14-1.36c-0.35-0.79,0.06-1.56,0.11-2.33c0.05-0.85,0.25-1.7,0.44-2.54c0.14-0.63-0.17-1.18-0.23-1.77
		c-0.06-0.57-0.19-1.13,0.06-1.68c-0.04-0.34,0.07-0.69,0.31-0.85c0.92-0.61,0.88-1.51,0.84-2.44c-0.02-0.37,0.01-0.75-0.01-1.12
		c-0.03-0.48,0.05-0.86,0.47-1.2c0.42-0.34,0.56-0.78-0.05-1.18c-0.5-0.32-0.58-0.86-0.47-1.38c0.15-0.77,0.16-1.54,0.16-2.31
		c-0.45-1.49-0.11-2.84,0.78-4.05c1.18-1.61,1.6-3.45,1.73-5.38c0.04-0.61,0.19-1.03,0.73-1.3c0.79-1.38,0.7-2.93,0.86-4.43
		c0.17-1.57,0.39-3.12,1.22-4.51c0.35-1.04,0.8-2.04,1.5-2.88c0.43-0.51,0.5-1,0.31-1.58c-0.31-0.97-0.23-1.83,0.73-2.41
		c0.37-0.23,0.29-0.67,0.54-0.95c0.62-2.21,1.46-4.33,2.91-6.15c0.23-0.28,0.22-0.56,0.25-0.87c0.08-1.04-0.2-2.1,0.15-3.12
		c0.68-0.75,1.14-1.71,2.23-2.04c0.46-0.14,0.49-0.68,0.52-1.1c0.04-0.72,0-1.44,0.04-2.15c0.07-1.19,0.53-1.82,1.4-2
		c0.91-0.19,1.79,0.3,2.31,1.28c0.27,0.51,0.49,1.07,0.52,1.63c0.08,1.65,0.73,3.1,1.46,4.53c0.52,0.75,1.04,1.5,1.58,2.25
		c0.23,0.32,0.33,0.67,0.29,1.05c-0.22,2.4,0.39,4.66,1.09,6.91c0.87,2.64,2.1,5.17,2.56,7.94c0.62,2.37,1.25,4.74,1.86,7.11
		c0.1,0.39,0.19,0.77,0.52,1.05c0.39,0.16,0.56,0.42,0.53,0.86c-0.04,0.6,0,1.2-0.01,1.8c-0.02,0.74-0.05,1.47,0.58,2.04
		c0.26,0.23,0.38,0.61,0.29,0.95c-0.19,0.75,0.16,1.25,0.68,1.7c0.31,0.74,0.21,1.54,0.12,2.27c-0.5,3.76,0.26,7.44,0.59,11.15
		c0.02,0.19,0.12,0.37,0.18,0.55c0.32,0.57,0.29,1.2,0.3,1.82c0.03,1.44,0.03,2.89,0.04,4.33c0,0,0,0,0,0
		C276.93,127.16,276.83,128.1,276.83,129.04z M265.84,120.06c-0.33-0.34-0.27-0.78-0.27-1.19c-0.01-2.33-0.01-4.65,0-6.98
		c0-0.83,0.03-1.66-0.29-2.46c-0.08-0.21-0.12-0.45,0.03-0.66c-0.3-0.38-0.33-0.87-0.37-1.33c-0.06-0.71-0.17-1.42-0.28-2.12
		c-0.18-1.13-0.8-1.89-1.95-2.12c-1.57-0.31-2.57-1.28-3.2-2.7c-0.04-0.1-0.09-0.2-0.12-0.3c-0.08,0.65,0,1.31-0.02,1.96
		c-0.02,0.56-0.1,1.07-0.5,1.51c-0.29,0.32-0.43,0.74-0.56,1.15c-0.19,0.62-0.47,1.17-1.04,1.53c-0.38,0.24-0.51,0.61-0.49,1.03
		c0.02,0.75-0.16,1.48-0.21,2.22c-0.02,0.33-0.09,0.65-0.4,0.84c0.23,0.24,0.18,0.52,0.08,0.78c-0.54,1.48-0.35,3.01-0.23,4.52
		c0.07,0.92,0.11,1.83,0.02,2.75c-0.06,0.29-0.18,0.58-0.14,0.89c0.02,0.25,0.2,0.29,0.41,0.29c0.7,0,1.39,0,2.09-0.01
		c0.69,0.1,1.41,0.12,2,0.57c0.61-0.16,1.09,0.17,1.57,0.46c0.79,0.47,1.54,1,2.34,1.44c0.96,0.53,1.26,0.33,1.3-0.75
		C265.63,120.94,265.47,120.42,265.84,120.06z M255.79,149c-0.54-1.01-0.43-2.13,0.27-3.09c0.37-0.52,0.36-1.02,0.08-1.53
		c-0.57-1.05-1.21-2-2.68-1.72c-0.55,0.11-1.15-0.02-1.72,0.03c-0.68,0.06-1.23-0.08-1.63-0.67c-0.3-0.44-0.54-0.36-0.79,0.08
		c-0.86,1.51-2.15,2.46-3.77,3.1c-2.18,0.85-4.13,2.22-6.43,2.81c-0.24,0.06-0.46,0.22-0.68,0.36c-0.67,0.4-1.27,0.97-1.3,1.73
		c-0.05,1.61-0.96,2.09-2.36,2.09c-0.87,0.06-1.76,0.33-2.6-0.06c-0.46-0.21-0.73-0.17-0.94,0.3c-0.18,0.42-0.48,0.54-0.87,0.23
		c0,0,0,0,0,0h0c-0.05-0.13-0.27-0.15-0.09-0.4c0.27-0.39,0.47-0.85,0.62-1.31c0.67-2.11,1.19-4.28,2.4-6.19
		c0.33-0.52,0.5-1.15,0.74-1.73c0.37-0.84,0.72-1.72,0.72-2.63c-0.01-2.69,0.11-5.35,1.24-7.86c0.51-1.15,1.13-2.33,1.21-3.55
		c0.18-2.91,0.16-5.84,0.01-8.77c0,0,0,0,0,0v0c0.06-1.22,0.66-2.16,1.51-2.98c0.7-0.67,1.24-1.43,1.02-2.48
		c0.16-0.72-0.25-1.52,0.24-2.17c0.77-1.03,1.22-2.19,1.55-3.42c0.33-1.24,0.68-2.48,1.02-3.72c0.52-0.37,0.63-0.89,0.64-1.5
		c0.05-2.95,0.12-5.9,0.18-8.85c0.9-2.23,1.71-4.48,1.9-6.9c0.13-0.79,0.27-1.58,0.38-2.37c0.06-0.44,0.18-0.86,0.58-1.1
		c1.18-0.71,1.36-1.76,1.21-2.92c0.01-0.1,0-0.22-0.06-0.38c-0.2-0.65,0.11-1.05,0.6-1.43c1.51-1.18,2.12-2.76,1.98-4.66
		c-0.03-0.42-0.13-0.85,0.02-1.27c0.33-0.2,0.52-0.53,0.75-0.82c1.3-1.59,1.72-3.61,2.62-5.39c0.18-0.35,0.39-1.18-0.62-1.05
		c-0.27,0.03-0.46-0.1-0.55-0.32c-0.24-0.62-0.74-0.59-1.28-0.59c-8.79,0-17.58,0-26.36-0.01c-0.32,0-0.63,0.03-0.95,0.01
		c-0.44-0.03-0.6,0.14-0.59,0.6c0.03,2.58,0.03,5.16,0.05,7.75c0,1.84,0,3.68,0,5.52c0.05,1.02-0.08,1.95-0.91,2.71
		c-0.37,0.34-0.53,0.88-0.3,1.43c0.06,0.93,0.64,1.84,0.19,2.77c-0.47,0.97-0.08,1.55,0.7,2.1c0.35,0.25,0.53,0.35,0.77-0.08
		c0.26-0.46,0.68-0.68,1.23-0.63c0.88,0.09,1.4-0.4,1.74-1.13c0.45-0.96,0.72-1.99,0.86-3.04c0.29-1.43,0.57-2.87,0.86-4.3
		c0.31-1.47,0.85-2.84,1.68-4.1c0.11-0.16,0.23-0.32,0.45-0.36c0.84-0.16,1.68-0.36,2.53-0.49c0.93-0.15,1.73,0.08,2.19,0.98
		c0.18,0.36,0.44,0.47,0.83,0.46c0.95-0.02,1.9-0.02,2.84,0c0.49,0.01,1.1-0.2,1.38,0.41c0.28,0.62-0.5,0.74-0.65,1.17
		c-0.06,0.15-0.08,0.3-0.08,0.45c-0.1,0.89,0.14,1.79-0.14,2.67c0,0,0,0,0,0c-0.37,0.27-0.66,0.59-0.82,1.03
		c-1.43,1.92-2.52,4.02-3.44,6.22c-0.6,1.2-1.39,2.38-1.41,3.73c-0.02,1.56-0.15,3.06-0.68,4.53h0c-0.47,0.85-0.92,1.7-1.41,2.53
		c-0.36,0.61-0.56,1.24-0.49,1.95c0.1,1.06-0.28,1.96-0.93,2.76c-0.43,0.53-0.54,1.11-0.25,1.74c0.88,0.84,0.52,1.71,0.15,2.65
		c-0.84,2.15-1.61,4.32-2.4,6.48c-0.47,1.19-0.91,2.39-1.4,3.57c-0.63,1.51-1.01,3.07-1.03,4.71c-0.48,3.22-0.61,6.44,0.05,9.66
		c0.1,1.12,0.91,2,1.11,3.03c0.46,2.36,0.72,4.77-0.11,7.13c-0.53,0.73-0.72,1.5-0.43,2.4c0.19,0.6,0.24,1.37-0.37,1.72
		c-0.76,0.45-0.65,1.01-0.52,1.65c0.22,1.12,0.06,2.19-1,2.78c-0.86,0.48-0.9,1.04-0.57,1.8c0.07,0.91,0.13,1.8-0.88,2.3
		c-0.28,0.14-0.2,0.45-0.21,0.7c-0.02,1.32,0.06,2.64-0.13,3.95c-0.09,0.64,0.1,1.24,0.39,1.82c0.3,0.6,0.72,0.81,1.39,0.65
		c1.01-0.24,1.96-0.63,2.92-1.02c0.5-0.21,0.98-0.47,1.54-0.49c1.61-0.04,3.22-0.21,4.82-0.11c1.85,0.12,3.29-0.57,4.57-1.77
		c0.31-0.29,0.6-0.38,1-0.33c1.05,0.13,2.11,0.24,3.17,0.34c0.29,0.03,0.52,0.13,0.62,0.39c0.25,0.6,0.73,0.62,1.27,0.61
		c3.53-0.01,7.06-0.01,10.59-0.01c0.59,0,1.34,0.22,1.25-0.84c-0.01-0.13,0.24-0.3,0.4-0.41c0.3-0.19,0.39-0.44,0.39-0.79
		c-0.02-1.84-0.03-3.67-0.04-5.51C256.41,151.18,256.37,150.09,255.79,149z M311.98,152.89c0.25,0.36,0.28,0.88,0.14,1.33
		c-0.5,1.58-0.74,3.22-1.09,4.83c-0.31,2.44-0.89,4.83-1.34,7.25c-0.08,0.42-0.26,0.45-0.58,0.33c-1.67-0.58-3.38-1.06-4.64-2.47
		c-0.68-0.76-1.53-1.38-2.32-2.04c-1.39-1.18-2.95-1.8-4.81-1.69c-1.19,0.07-1.24-0.04-0.98-1.19c0.04-0.19,0.13-0.37,0.19-0.56
		c0,0,0,0,0,0c0,0,0,0,0,0c0.47-2.07,1.39-4,1.98-6.03c0.13-0.46,0.32-0.91,0.48-1.37c0.62-3.11,0.46-6.26,0.52-9.39
		c0.01-0.54,0.01-1.09,0.01-1.63c-0.19-2.57-0.76-5.07-1.22-7.6c-0.49-1.78-0.85-3.61-1.59-5.31c-0.39-0.9-0.64-1.92-1.65-2.39
		c-0.21-0.1-0.2-0.25-0.16-0.43c0.17-0.8,0.15-1.64,0.43-2.43c0.01-0.23-0.02-0.47,0.05-0.68c0.63-1.96,0.12-3.66-1.01-5.3
		c-0.81-1.17-1.49-2.42-2.23-3.64c-0.5-0.49-0.82-1.16-1.53-1.49c-0.17,0.51,0.18,1.02-0.08,1.49c-0.03,1.13-0.55,2.11-1.1,3.04
		c-0.59,1.01-0.7,2.02-0.57,3.14c0.14,1.2,0.2,2.4,0.29,3.6c0,0,0,0,0,0c0.34,2.17,0.59,4.34,0.69,6.53
		c0.02,0.48,0.32,0.92,0.18,1.41c0.22,1.82,0.45,3.63,0.66,5.45c0.11,0.94,0.17,1.88,0.25,2.83c0.02,0.27,0.17,0.58-0.2,0.75
		c-0.4,0.58-0.48,1.13,0.05,1.69c0.21,0.23,0.28,0.55,0.31,0.87c0.21,2.22,0.28,4.44-0.07,6.65c-0.07,0.44-0.23,0.87-0.35,1.3
		c-0.32,1.48,0.2,2.9,0.29,4.34c0.07,1.06,0.33,2.1,0.28,3.17c0.08,0.16,0.06,0.34,0.07,0.51c0.15,0.94,0.38,1.89-0.62,2.64
		c-0.26,0.2-0.08,0.48-0.06,0.72c0.21,2.52-0.39,4.93-1.01,7.6c-1.3-4-3.36-7.23-6.18-9.97c-1.51-1.28-3.12-2.43-4.76-3.55
		c-1.19-0.81-1.26-1.1-0.84-2.44c0.31-1.01,0.65-2.01,0.97-3.02c0.75-2.55,1.46-5.11,2.83-7.43c0.35-0.6,0.26-1.22,0.27-1.84
		c0.01-0.4-0.02-0.8-0.04-1.2c0,0,0,0,0,0c-0.13-0.43-0.21-0.89-0.7-1.1c-0.27-0.12-0.31-0.37-0.31-0.64
		c0.02-4.43,0.03-8.87,0.04-13.3c0-0.58,0-1.15,0-1.73c-0.01-1.84-0.07-3.67-0.02-5.51c0.05-1.6-0.16-3.17-0.45-4.73
		c-0.03-0.08-0.04-0.17-0.05-0.28c-0.24-1.51-0.18-3.09-1.15-4.41c-0.07-0.1-0.07-0.28-0.06-0.42c0.11-1.63-0.18-3.23-0.4-4.84
		c-0.05-0.07-0.15-0.14-0.15-0.2c0.04-1.98-0.9-3.81-0.9-5.8c0-0.92-0.22-1.86-0.13-2.8c-0.02-0.4-0.06-0.8-0.04-1.2
		c0.03-0.62-0.19-1.11-0.51-1.66c-0.84-1.44-1.7-2.93-1.33-4.73c-0.07-1.46-0.02-2.92,0.05-4.38c0.04-0.73,0.41-1.14,0.94-1.52
		c1.77-1.27,3.54-2.54,5.17-4c0.51-0.58,1.01-1.17,1.52-1.75c0.29-0.33,0.27-0.52-0.2-0.63c-0.56-0.12-1.1-0.3-1.65-0.46
		c-0.33-0.09-0.6-0.05-0.84,0.23c-0.31,0.38-0.79,0.49-1.24,0.52c-0.44,0.03-1,0-1.1-0.57c-0.27-1.45-1.22-2.43-2.2-3.39
		c-0.59-0.58-1.24-1.1-1.86-1.64c-0.17-0.11-0.36-0.19-0.5-0.32c-1.16-1.13-2.61-1.6-4.16-1.84c-0.25-0.04-0.72,0.04-0.64-0.48
		c0.07-0.45,0.44-0.29,0.69-0.3c3.5-0.11,7.01-0.22,10.51-0.31c0.61-0.02,1.17-0.13,1.75-0.34c0.92-0.32,1.91-0.6,2.63,0.45
		c0.11,0.16,0.26,0.21,0.44,0.2c0.09,0,0.17,0.01,0.26,0c2.85-0.34,5.46,0.5,8.04,1.55c1.59,0.64,3.3,0.66,4.97,0.91
		c1.29,0.33,2.29,1.15,3.29,1.96c0.62,0.5,1.16,1.12,1.9,1.46c0.18,0.08,0.25,0.23,0.32,0.38c0.65,1.4,1.29,2.81,1.94,4.21
		c0.71,1.46,1.45,2.91,2.12,4.39c0.26,0.57,0.25,1.24,0.22,1.86c-0.06,1.27,0.07,2.55-0.29,3.8c-0.48,1.2-0.85,2.42-0.68,3.74
		c0.19,1.42-0.38,2.7-0.73,4.02c-0.86,2.76-2.08,5.31-4.34,7.22c-0.97,0.82-2.05,1.44-3.35,1.6l0,0c-0.42,0.33-1.15-0.1-1.38,0.44
		c-0.18,0.41-0.06,0.96-0.04,1.45c0.01,0.36-0.21,0.63-0.37,0.97c0.22,0,0.37,0.04,0.5-0.01c1.77-0.56,3.13,0.1,4.3,1.39
		c0.46,0.51,0.91,1.03,1.45,1.46c0.46,0.36,0.52,0.94,0.54,1.49c0.01,0.66,0.2,1.15,0.95,1.3c0.78,0.16,1.06,0.7,0.92,1.47
		c0.12,0.32,0.27,0.63,0.36,0.96c0.77,2.89,1.16,5.84,1.03,8.84c0.09,1.43,0.48,2.8,0.83,4.18c0.1,0.4,0.16,0.91,0.83,0.6
		c0.45-0.22,0.47,0.24,0.52,0.46c0.33,1.56,0.66,3.13,0.75,4.73c0,0,0,0.01,0,0.01c0.35,1.53,0.58,3.09,0.66,4.65
		c0.05,0.95-0.29,1.91-0.45,2.87c-0.04,0.24-0.17,0.57,0.18,0.67c1.23,0.33,1.34,1.42,1.66,2.37c0,0,0,0,0,0
		c0.27,0.55,0.44,1.08,0.07,1.68c-0.27,0.43-0.08,0.95-0.01,1.43c0.26,1.74,0.21,3.47-0.21,5.19
		C311.61,151.74,311.59,152.31,311.98,152.89z M289.39,77.66c0.01,7.17,0,14.34,0.01,21.5c0,1.77,0.17,1.91,1.88,1.47
		c1.59-0.41,2.8-1.26,3.36-2.9c0.36-1.06,0.75-2.11,1.16-3.15c0.12-0.32,0.23-0.65,0.55-0.83c-0.09-1.3-0.18-2.61,0.49-3.82
		c0.6-1.09,0.26-2.31,0.44-3.46c0.04-0.27-0.07-0.57,0.13-0.8c-0.69-2.18-2.16-3.88-3.58-5.6c-0.97-1.17-2.02-2.26-3.22-3.2
		c-0.14-0.11-0.32-0.2-0.4-0.36c-0.3,0.03-0.6,0.03-0.9,0.05C289.45,76.9,289.39,77.29,289.39,77.66z M149.4,147.39
		c-0.22,0.92-0.58,1.79-1.1,2.58c-1.09,1.65-2.1,3.35-2.58,5.3c-0.21,1.3-0.44,2.59-0.63,3.89c-0.05,0.32-0.14,0.51-0.44,0.65
		c-2.35,1.07-4.53,2.42-6.63,3.91c-0.87,0.81-1.97,1.41-2.46,2.59c-0.1,0.23-0.35,0.15-0.54,0.19c-1.44,0.28-2.87,0.55-4.31,0.83
		c-0.34,0.07-0.71,0.11-0.95,0.37c-0.62,0.65-1.15,0.43-1.69-0.11c-0.84-0.83-1.39-0.87-2.12,0.03c-0.56,0.69-1.27,0.86-2.05,0.9
		c-1.21,0.06-2.42,0.1-3.61-0.11c-2.02-0.37-4.07-0.3-6.08-0.26c-1.23,0.02-1.57-0.84-2.57-1.23c1.77-0.73,3.59-1.21,3.79-3.38
		c0.27-1.14,0.5-2.3,0.82-3.42c0.55-1.94,0.49-3.92,0.56-5.89c0.06-2.39,0.14-4.78,0.17-7.18c0.01-0.99-0.1-1.99-0.16-2.98
		c-0.2-2.41-0.39-4.83-0.59-7.24c-0.23-1.01-0.25-2.03-0.22-3.06c0.06-2.12,0.08-4.24,0.12-6.35c0.01-0.34-0.05-0.69,0.11-1.01
		c0.01-2.21,0.02-4.41,0.01-6.62c0-0.29,0.02-0.51,0.38-0.54c0.53-0.04,0.79-0.41,0.97-0.86c0,0,0.01-0.01,0.01-0.01
		c-0.2-0.51-0.13-1.04-0.12-1.56c-0.09-1.28-0.16-2.52-0.66-3.76c-0.32-0.81-0.05-1.86-0.04-2.8c0-1.06-0.01-2.11,0-3.17
		c0-0.25,0.02-0.55,0.15-0.74c0.96-1.41,0.83-2.97,0.7-4.54c-0.68-0.82-0.97-1.73-0.93-2.82c0.08-2.62,0.05-5.25,0.06-7.87
		c0-2.76,0-5.52,0-8.28c-0.01-1.15-0.03-2.29-0.04-3.44c0-0.2-0.03-0.43,0.18-0.54c1.18-0.59,0.6-1.67,0.63-2.52
		c0.02-0.57-0.51-0.8-1.14-0.6c-0.79,0.25-1.11,0.01-1.22-0.83c-1.2-1.19-2.52-2.26-3.58-3.59c-0.41-0.52-0.53-2.37-0.16-2.92
		c0.47-0.7,1-1.17,1.96-1.03c2.53,0.37,4.92-0.62,7.4-0.82c1.49-0.12,2.96-0.27,4.47-0.18c2.96,0.18,5.91,0.1,8.86-0.2
		c2.01-0.21,4.02-0.16,6.01,0.14c0.33,0.05,0.53,0.16,0.71,0.5c0.65,1.28,1.58,2.22,3.17,2.22c0.74,0,1.39,0.33,1.96,0.8
		c1.62,1.34,2.65,3.06,3.25,5.06c0.53,1.1,0.74,2.28,0.77,3.48c0.05,1.92,0.34,3.81,0.52,5.71c0.05,0.56,0.15,1.14-0.08,1.69
		c0.04,0.36-0.03,0.71-0.21,0.99c-1.46,2.29-2.52,4.8-3.96,7.1c-1.09,1.98-2.56,3.7-3.97,5.45c-0.59,0.74-0.55,1.06,0.28,1.57
		c0.5,0.31,1.08,0.43,1.63,0.6c0.34,0.06,0.67,0.11,1.01,0.17c1.23,0.2,1.64,0.86,1.31,2.07c-0.15,0.56-0.38,1.08-0.72,1.55
		c-0.31,0.43-0.17,0.81,0.03,1.2c0.05,0.1,0.14,0.21,0.23,0.24c1.33,0.37,1.24,0.76,2.22,1.71c1.34,1.3,0.44,2.48,0.38,3.72
		c-0.15,1.56-0.22,3.13-0.14,4.7c0.09,1.69,0.77,3.06,2.12,4.08c0.18,0.17,0.3,0.39,0.25,0.61c-0.58,2.88-0.19,5.76,0.02,8.64
		c0.01,0.2,0,0.4,0,0.6c0.27,1.59,0.27,3.19,0.03,4.79c-0.18,1.19-0.94,2.09-1.39,3.14c0.19,1.45,0.39,2.89,0.57,4.34
		C150.32,144.57,150.02,146.01,149.4,147.39z M127.81,157.51c1.13-0.07,2.1-0.56,2.92-1.41c0.61-0.64,1.35-1.05,2.25-1.04
		c0-0.01-0.01-0.02-0.01-0.03c-0.01-0.36,0.26-0.56,0.47-0.79c0.87-0.95,1.69-1.94,2.59-2.87c0.63-0.64,0.62-1.58,0.7-2.43
		c0.04-0.46,0-0.92,0.02-1.37c0.02-0.3,0.11-0.54,0.32-0.68c-0.36-0.81-0.24-1.64,0.03-2.41c0.61-1.77,1.13-3.55,1.49-5.38
		c0.04-0.21,0.09-0.44,0.28-0.57c-0.3-0.26-0.24-0.61-0.17-0.94c0.09-0.47,0.08-0.91-0.23-1.3c-0.17-0.22-0.23-0.47-0.01-0.7
		c0.44-0.48,0.32-1.01,0.13-1.53c-0.36-0.97-0.74-1.93-0.87-2.96c-0.03-0.26-0.12-0.55,0.09-0.75c-0.06-0.47,0.06-0.91,0.35-1.29
		c0.74-0.98,0.57-1.98-0.07-2.86c-0.85-1.17-1-2.39-0.62-3.73c0.15-0.52,0.28-1.05,0.45-1.57c0.07-0.21,0.13-0.5,0.42-0.45
		c0-0.01-0.01-0.02,0-0.03c-0.32-0.74-0.73-1.41-0.45-2.32c0.22-0.72-0.29-1.35-0.7-1.95c-0.42-0.61-0.38-0.68,0.35-0.89
		c-0.33-0.31-0.65-0.71-0.54-1.12c0.18-0.67,0.06-1.31,0.01-1.96c-0.84-0.36-1.48-1.05-2.23-1.56c-1.3-0.89-2.52-1.9-3.49-3.17
		c-0.1-0.13-0.18-0.41-0.44-0.22c-0.01,0.01-0.01,0.04-0.02,0.05c0.2,0.21,0.17,0.52,0.17,0.79c0.02,1.78,0.02,3.55,0,5.33
		c0,0.34-0.02,0.7-0.15,1.02c-0.44,1.1-0.38,2.3-0.78,3.4c0,0.02,0,0.03,0,0.05c0.32,0.01,0.31,0.34,0.39,0.58
		c0.65,2.11,0.23,4.18-0.46,6.15c-0.35,0.99-0.87,1.76-0.13,2.78c0.19,0.26,0.15,0.7-0.15,1.01c0.26,0.27,0.26,0.62,0.26,0.96
		c0.01,2.18,0.01,4.36,0,6.54c0,0.34-0.01,0.69-0.23,0.99c0,0-0.01,0-0.01,0c0.25,0.29,0.22,0.66,0.22,1.01
		c0.01,1.2-0.07,2.4,0.02,3.59c0.11,1.32-0.55,2.27-1.27,3.23c0.02,0.02,0.04,0.03,0.06,0.05c0.2,0.37,0.17,0.78,0.18,1.17
		c0.06,2.45-0.13,4.91,0.16,7.37c0.04,0.36,0.07,0.74-0.1,1.07c0.15,0.33,0.14,0.67,0,1.02
		C128.69,156.13,128.23,156.81,127.81,157.51z M130.85,83.88c0.01,2.06,0.01,4.12,0,6.18c0,0.36,0.02,0.73-0.26,1.02
		c0.21,0.22,0.21,0.53,0.22,0.82c0.02,0.88-0.01,1.77,0.02,2.65c0.01,0.39-0.17,0.89,0.41,1.09c0.66,0.23,1.42,0.05,1.79-0.44
		c0.24-0.32,0.36-0.71,0.54-1.07c0.14-0.3,0.28-0.61,0.64-0.69c-0.07-0.62,0.36-1,0.75-1.37c0.64-0.6,1.39-1.02,2.26-1.19
		c0.51-0.1,0.72-0.4,0.71-0.91c0-1.06-0.02-2.12,0.01-3.18c0.01-0.38-0.05-0.81,0.39-1.03c-0.24-0.24-0.2-0.57-0.06-0.86
		c0.41-0.87,0.22-1.67-0.1-2.5c-0.34-0.89-0.4-1.75,0.7-2.42c-1.37-0.13-2.45-0.51-3.13-1.62c-0.17-0.27-0.49-0.28-0.78-0.23
		c-0.45,0.08-0.93,0.06-1.36,0.21c-0.71,0.24-1.66-0.23-2.07,0.94c-0.27,0.77-0.81,1.41-0.72,2.32c0.04,0.41,0.15,0.9-0.2,1.24
		C130.86,83.15,130.84,83.52,130.85,83.88z M343.63,105.55c-0.03,0.9-0.55,1.61-0.94,2.35c-0.42,0.81-0.67,1.62-0.6,2.52
		c0.51,2.97,0.08,5.69-2.11,7.95c-0.51,0.52-0.2,1.28-0.48,1.87c-0.08,1.05-0.14,2.1-0.5,3.1c-0.26,0.73-0.23,1.51-0.38,2.26
		c-0.09,0.28-0.09,0.56,0,0.85c0.01,0.17,0.01,0.35,0.02,0.52c0.28,3.21,0.43,6.43,0.38,9.66c0.05,2.17,0.2,4.34-0.51,6.45
		c-0.42,1.24-0.38,2.53-0.39,3.82c-0.01,0.97,0.12,1.94-0.13,2.9c0.12,1.33-0.49,2.51-0.73,3.77c-0.28,1.43-0.41,2.89-0.88,4.28
		c-0.58,2.28-1.89,4.13-3.55,5.74c-0.48,0.47-1.16,0.61-1.78,0.82c-2.47,0.82-5.06,1.26-7.46,2.32c-0.61,0.27-1.11-0.12-1.6-0.39
		c-0.63-0.34-1.07-0.48-1.89-0.07c-1.75,0.89-3.74,0.99-5.71,0.9c-0.2-0.01-0.44-0.07-0.51-0.25c-0.09-0.22,0.17-0.34,0.3-0.48
		c1.33-1.42,2.13-3.1,2.48-5.01c0.21-1.16-0.05-2.28-0.22-3.41c-0.2-0.66-0.35-1.34-0.61-1.97c-0.19-0.46-0.02-0.61,0.36-0.75
		c0.95-0.34,1.86-0.77,2.71-1.31c0.74-0.47,0.74-0.65,0.03-1.11c-0.18-0.12-0.28-0.28-0.36-0.47c-0.75-1.8-1.49-3.6-2.24-5.4
		c0,0,0,0,0,0c-0.3-0.42-0.36-0.87-0.3-1.38c0.32-2.94,0.62-5.87,0.92-8.81c0.16-1.73,0.32-3.46,0.5-5.19
		c0.05-0.48-0.04-0.86-0.34-1.27c-0.82-1.14-1.43-2.39-1.88-3.72c-0.86-2.06-1.7-4.13-1.47-6.44c0.05-0.53-0.1-0.98-0.41-1.44
		c-0.69-1.01-0.47-2.19-0.53-3.32c-0.09-1.6-0.12-3.21-0.04-4.81c0.01-0.2,0.08-0.5-0.01-0.58c-1.24-0.99-0.44-2.27-0.52-3.41
		c-0.01-0.11,0.03-0.23,0.05-0.34c0.45-2.9-0.89-5.66-0.61-8.55c0.03-0.31,0.03-0.62,0.05-0.94l0,0c-0.04-2.41-0.13-4.83,0-7.24
		c-0.02-1.89-0.03-3.78-0.04-5.67c0-0.2-0.02-0.44,0.18-0.54c0.76-0.38,0.61-1.07,0.63-1.72c0.06-1.8-0.14-3.6,0.11-5.39l0,0l0,0
		c0.63-0.43,0.79-1.02,0.74-1.77c-0.07-1.23-0.04-2.47-0.05-3.7c-0.79-0.75-1.57-1.5-2.36-2.25c-1.85-1.66-3.63-3.39-5.54-5.35
		c1.73,0,3.23,0,4.73,0c0.08,0,0.2,0.04,0.22,0.09c0.47,1.13,1.47,0.72,2.3,0.78c0.52,0.04,1.04-0.12,1.36,0.56
		c0.19,0.39,0.77,0.46,1.19,0.63c1.52,0.6,3.04,1.17,4.33,2.24c0.6,0.5,1.44,0.1,2.17,0.2c0.34,0.04,0.78-0.18,0.93,0.36
		c0.53,0.98,1.4,1.1,2.39,1.02c0.63-0.05,1.33-0.18,1.66,0.65c0.11,0.29,0.43,0.22,0.69,0.22c0.69,0,1.38,0.02,2.06-0.01
		c0.6-0.03,1.13,0,1.41,0.66c0.13,0.32,0.46,0.27,0.75,0.28c1.11,0.04,2.39-0.37,3.29,0.15c0.87,0.51,1.45,1.56,2.21,2.34
		c0.5,0.51,1.09,0.89,1.57,1.41c0.44,0.18,0.57,0.61,0.75,0.98c0.98,2.02,1.79,4.12,2.53,6.24c0.57,0.39,0.73,0.9,0.68,1.59
		c-0.11,1.53-0.13,3.07-0.19,4.6l0,0c-0.15,2.11,0.19,4.11,0.97,6.09c0.35,0.88,0.18,1.98,0.22,2.97c0.04,0.94,0.03,1.88,0.04,2.83
		C343.79,101.91,343.7,103.73,343.63,105.55z M331.63,113.86c0.74-0.81,1-1.76,1.18-2.78c0.06-0.33,0.08-0.73,0.47-0.87
		c-0.3-0.51-0.1-1.04,0.15-1.41c1.21-1.77,0.98-3.75,0.99-5.7c0-0.68-0.01-1.37,0.01-2.05c0.01-0.32-0.02-0.66,0.24-0.92
		c-0.05-0.05-0.09-0.1-0.11-0.18c-0.43-1.71-1.36-3.27-1.57-5.04c-0.14-1.2-0.79-2.05-1.72-2.74c-0.42-0.31-0.8-0.65-1.1-1.08
		c-0.2-0.28-0.45-0.57-0.3-0.97c-0.76-0.83-1.87-1.21-2.64-2.03c-0.35-0.37-0.81-0.52-1.32-0.52c-1.06,0-2.11,0.02-3.17-0.01
		c-0.66-0.02-0.93,0.28-0.94,0.91c-0.01,0.42-0.05,0.84-0.4,1.13c0.43,0.82,0.35,1.72,0.42,2.6c0.03,0.37,0.02,0.74,0.01,1.1
		c-0.01,0.77-0.11,1.54,0.09,2.3c0.05,0.41,0.14,0.83-0.19,1.18c0.47,0.86,0.37,1.83,0.42,2.75c0.08,1.34,0.07,2.69,0,4.02
		c-0.04,0.81,0.37,1.56,0.27,2.36c0.23,0,0.33,0.2,0.36,0.42c0.32,1.88,0.71,3.74,1.65,5.43c0.05,0.1,0.03,0.22,0.02,0.34
		c0,0.02,0,0.05-0.01,0.07c0.16,0.24,0.15,0.54,0.15,0.82c0.01,4.44,0.13,8.89-0.04,13.33c-0.12,3.07-0.06,6.13-0.13,9.19
		c-0.01,0.43,0.06,0.89-0.25,1.26c0,0,0.01,0,0.01,0.01c0.23,0.29,0.24,0.64,0.24,0.99c0.01,2.73,0.01,5.46,0,8.19
		c0,0.35,0.02,0.73-0.27,1.01c0.23,0.22,0.21,0.55,0.22,0.86c0.03,0.97-0.02,1.94,0.03,3.02c0.88-1.12,1.56-2.25,2.18-3.43
		c0.14-0.26,0.26-0.53,0.52-0.69c-0.13-0.31,0.06-0.59,0.15-0.87c0.36-1.15,0.7-2.3,0.65-3.53c-0.02-0.52,0.18-1.01,0.33-1.5
		c0.43-1.31,1.05-2.54,1.59-3.8c0.11-0.26,0.23-0.53,0.51-0.62c-0.16-0.18-0.18-0.4-0.17-0.63c0.2-2.5,0.04-5.01,0.09-7.52
		c0.01-0.45-0.06-0.92,0.24-1.32c0,0,0.01,0,0.01-0.01c-0.23-0.24-0.19-0.54-0.15-0.84c0.21-1.15,0.08-2.3,0.08-3.46
		c-0.01-0.9-0.02-1.8,0.01-2.7c0.01-0.27-0.01-0.58,0.19-0.78c-0.06-1.14,0.18-2.27,0.22-3.41
		C330.89,115.04,331.17,114.36,331.63,113.86z M169.54,68.8c0.7,0.48,1.08,1.48,2.17,1.33c0.04-0.01,0.11,0.05,0.13,0.09
		c0.46,0.84,1.34,0.92,2.11,1.17c0.62,0.21,1.15,0.49,1.43,1.11c0.14,2.24,0.28,4.48,0.43,6.71c0.17,2.87,0.34,5.75,0.51,8.62
		c0.03,0.54,0.03,1.08,0.08,1.61c0.07,0.72-0.2,1.62,1.07,1.92c-1.22,0.31-1.02,1.15-1.01,1.91c0,0.2,0.02,0.4,0.03,0.59
		c-0.03,4.48-0.01,8.96,0.13,13.44c0.01,2.64,0.02,5.29,0.03,7.93c0.01,1.96,0.02,3.92,0.04,5.88c0.01,1.95,0,3.89,0.03,5.84
		c0.01,0.47-0.07,0.87-0.29,1.3c-0.85,1.7-1.27,3.44-0.18,5.22c0.17,0.28,0.2,0.59,0.23,0.9c0.02,0.45-0.07,0.85-0.51,1.09
		c-0.31,0.17-0.4,0.44-0.39,0.79c0.07,2.75-0.09,5.5-0.2,8.25l0,0c-0.11,0.73-0.21,1.47-0.33,2.2c-0.06,0.33-0.1,0.69-0.46,0.87
		c-1.57,0.78-2.38,2.28-3.4,3.59c-0.11,0.15-0.32,0.27-0.23,0.51c0.4,1.04,1.8,1.38,2.66,0.68c0.48-0.39,0.82-0.97,1.51-1.08
		c2.47-0.39,4.96-0.61,7.46-0.41c0.7,0.06,1.5,0.46,2.07,0.24c1.34-0.51,2.57-0.28,3.83,0.11c0.03-0.05,0.05-0.08,0.06-0.1
		c0.06-1.93-0.5-3.45-2.42-4.37c-1.14-0.55-2.32-1.14-3.26-2.05c-0.4-0.92-0.52-1.92-0.8-2.87c-0.25-0.85-0.02-1.53,0.7-2.01
		c0.35-0.23,0.49-0.53,0.51-0.92c0.08-1.45,0.16-2.9,0.24-4.35c0.22-0.72,0.16-1.37-0.22-2.05c-0.89-1.57-0.89-3.36-1.14-5.08
		c-0.15-1.02-0.63-1.98-0.57-3.03c0.2-0.59,0.54-1.1,1.05-1.43c0.5-0.32,0.64-0.75,0.68-1.29c0.13-2.15-0.4-4.24-0.63-6.35
		c0-0.03-0.02-0.05-0.04-0.08c-0.01-0.17-0.02-0.35-0.04-0.52c0-0.45,0-0.91,0-1.36c0.11-0.63-0.03-1.24-0.07-1.86
		c-0.08-1.08,0-2.15,0.97-2.84c0.56-0.39,0.65-0.79,0.37-1.35c-0.07-0.51-0.05-1.06-0.23-1.52c-0.72-1.86-0.82-3.76-0.57-5.71
		c0.09-0.68,0.03-1.37,0.04-2.06c0.05-3.22,0.13-6.45-0.13-9.66c0.06-2.76-0.14-5.52-0.22-8.28c-0.16-0.71,0.03-1.22,0.66-1.69
		c0.82-0.61,0.86-2.01,0.15-2.76c-0.19-0.21-0.27-0.41-0.32-0.67c-0.2-0.95,0.18-1.73,0.7-2.48c0.92-0.93,1.95-1.69,3.21-2.08
		c0.22-0.07,0.42-0.12,0.47-0.41c0.21-1.13-0.32-1.96-1-2.77c-0.46-0.55-0.91-0.09-1.34-0.06c-4.65,0.31-9.3,0.33-13.93-0.09
		c-1.04-0.09-1.49,0.27-1.97,0.97C169.24,68.37,169.17,68.55,169.54,68.8z M220.6,128.23c0-0.23-0.08-0.34-0.33-0.4
		c-1.82-0.39-2.43-0.02-2.94,1.81c-0.05,0.17-0.1,0.33-0.14,0.5c-0.2,0.77-0.67,1.3-1.34,1.72c-0.41,0.26-0.72,0.33-0.94-0.2
		c-0.24-0.58-0.51-0.38-0.79-0.02c-0.52,0.66-0.88,1.4-1.06,2.23c-0.1,0.84-0.57,1.25-1.41,1.38c-0.62,0.1-1.15,0.52-1.62,0.93
		c-1.52,1.33-2.62,2.99-3.57,4.75l0,0c-0.71,1.35-1.97,1.96-3.36,2.01c-1.52,0.05-2.73,0.72-3.99,1.39
		c-0.67,0.36-1.31,0.82-2.13,0.83c-0.35,0-0.66,0.08-0.91-0.28c-0.25-0.35-0.02-0.59,0.1-0.86c0.73-1.55,1.39-3.13,1.88-4.77
		c1.02-2.29,1.64-4.73,2.71-7c0.08-0.17,0.06-0.39,0.05-0.59c-0.05-1,0.03-1.99,0.32-2.96c0.75-1.91,1.47-3.84,2.26-5.73
		c0.58-1.39,1.27-2.74,1.9-4.1c0.22-0.3,0.44-0.59,0.65-0.9c0.46-0.66,0.86-1.42,1.56-1.8c0.6-0.33,0.65-0.7,0.54-1.29
		c-0.28-1.53-0.3-3.04,0.9-4.27c0,0,0,0,0,0c0.89-0.67,1.77-1.35,2.81-1.77c0.48-0.2,0.63-0.48,0.59-0.98
		c-0.14-1.84-0.05-3.63,1.02-5.23c0.09-0.13,0.11-0.32,0.16-0.48c0.13-0.32,0.27-0.63,0.39-0.95c0.7-1.81,1.08-3.85,2.36-5.29
		c1.22-1.39,1.35-2.75,1.06-4.36c-0.01-0.03-0.01-0.06-0.01-0.08c0.1-0.8,0.19-1.62,0.77-2.23c0.35-0.38,0.42-0.77,0.41-1.24
		c-0.01-4.61,0-9.22-0.01-13.83c0-0.28,0.06-0.58-0.1-0.84c0,0,0,0,0,0c-0.02-0.17,0.02-0.4-0.08-0.5
		c-0.87-0.93-0.66-2.08-0.66-3.18c0-0.66-0.04-1.33,0.01-1.98c0.06-0.67-0.15-0.86-0.85-0.86c-7.62,0-15.24-0.02-22.86-0.06
		c-0.92-0.01-1.74-0.13-1.69,1.2c0.01,0.3-0.28,0.62-0.45,0.91c-0.13,0.23-0.23,0.45-0.22,0.73c0.02,1.55,0.03,3.1,0.04,4.65
		c-0.01,0.72,0,1.44-0.05,2.15c-0.04,0.56,0.1,0.96,0.6,1.29c0.69,0.46,0.95,1.21,0.99,2.01c0.03,0.63-0.01,1.26-0.01,1.89
		c-0.23,0.82-0.46,1.65-0.68,2.47c-0.03,0.11-0.09,0.24-0.05,0.32c0.54,1.26,0.52,2.62,0.77,3.93c0.05,0.26,0.1,0.51,0.34,0.66
		c0.5,0.33,0.6,0.79,0.52,1.35c-0.1,0.69,0.26,1.21,0.74,1.65c0.14,0.13,0.31,0.35,0.47,0.05c0.61-1.12,1.66-2.09,1.73-3.41
		c0.11-2.14,0.01-4.29,0-6.44c0.03-0.79,0.47-1.32,1.1-1.73c0.58-0.38,1.2-0.67,1.88-0.79c0.29-0.05,0.46-0.12,0.45-0.46
		c-0.04-2.25,1.01-3.86,2.93-4.95c0.49-0.24,0.98-0.47,1.46-0.72c0.37-0.19,0.67-0.49,1.16-0.48c2.7,0.06,5.4,0.1,8.1,0.11
		c0.51,0,0.63,0.19,0.62,0.66c-0.02,0.77,0.02,1.55,0.03,2.32c-0.01,0.51-0.09,1.03-0.03,1.54c0.09,0.78-0.2,1.33-0.74,1.88
		c-1.33,1.34-2.37,2.91-3.39,4.5c-0.3,0.34-0.56,0.75-0.92,1.01c-1.11,0.8-1.27,1.95-1.3,3.18c-0.02,0.83,0.05,1.66,0.27,2.46
		c0.13,0.46,0,0.77-0.29,1.07c-0.19,0.17-0.38,0.34-0.57,0.51c-1.7,1.5-2.33,3.94-4.44,5.08c-0.09,0.05-0.13,0.19-0.18,0.29
		c-0.71,1.44-1.23,2.94-1.55,4.52c-0.16,0.54-0.35,1.08-0.48,1.63c-0.53,2.28-0.83,4.66-2.69,6.38c-0.06,0.05-0.06,0.16-0.09,0.24
		c-0.83,1.09-1.29,2.35-1.52,3.69c-0.1,0.55-0.29,1.01-0.65,1.45c-0.77,0.95-1.61,1.86-2.13,2.99c-0.31,0.31-0.44,0.73-0.6,1.13
		c-0.68,1.63-0.65,3.43-1.36,5.1c-0.49,1.14-0.54,2.62-0.61,3.96c-0.25,0.86-0.35,1.74-0.37,2.62c-0.02,0.85-0.2,1.72,0.22,2.52
		c0.48,0.91,0.53,1.79-0.02,2.68c-0.11,0.19-0.33,0.36-0.07,0.59c0.59,0.53,0.79,1.31,1.23,1.94l0,0c0.03,0.11,0.05,0.22,0.09,0.33
		c0.19,0.5,0.61,1.16,0.11,1.5c-0.8,0.55-0.67,1.25-0.67,1.97c-0.01,0.98-0.05,1.96,0.01,2.93c0.05,0.78-0.13,1.38-0.76,1.87
		c-0.41,0.32-0.72,0.8-0.38,1.27c0.35,0.49,0.54,1.2,1.42,1.18c1.75-0.05,3.51-0.01,5.26-0.02c0.42,0,0.75,0.09,1.1,0.35
		c0.76,0.58,1.65,0.97,2.61,0.99c0.84,0.02,1.14-0.77,1.62-1.28c0.58-0.62,1.39-0.45,2.11-0.55c0.5-0.07,0.59,0.39,0.78,0.68
		c0.19,0.3,0.45,0.3,0.75,0.3c2.82,0,5.64,0,8.45,0c0.25,0,0.49,0.04,0.7-0.21c0.77-0.88,1.81-1.3,2.9-1.59
		c0.39-0.1,0.51-0.21,0.49-0.6c-0.13-2.41-0.23-4.82-0.34-7.23c0.02-1.03,0-2.07,0.07-3.1c0.05-0.68-0.08-1.42,0.31-2.01
		c0.41-0.61,0.65-1.27,0.87-1.95c0.24-0.21,0.49-0.39,0.8-0.48c0.15-0.05,0.37-0.04,0.28-0.31
		C220.49,131.51,220.61,129.87,220.6,128.23z"/>
	<path class="st0" d="M196.89,185.3c-0.58-1.15-0.91-2.44-1.78-3.41c-0.37-0.42-0.25-0.52,0.11-0.79c1.22-0.95,1.24-2.62,0.1-3.66
		c-0.58-0.53-1.3-0.73-2.06-0.75c-1.15-0.03-2.3,0.01-3.44-0.03c-0.51-0.02-0.63,0.18-0.62,0.65c0.03,1.29,0.01,2.58,0.01,3.87
		c0,0.98,0,1.95,0,2.93c0,1.67,0,1.65,1.68,1.57c0.47-0.02,0.58-0.2,0.57-0.62c-0.02-0.72-0.03-1.43,0-2.15
		c0.01-0.29-0.19-0.7,0.18-0.84c0.38-0.14,0.79-0.02,1.13,0.24c0.33,0.25,0.54,0.59,0.71,0.96c0.3,0.62,0.57,1.25,0.86,1.87
		c0.12,0.26,0.21,0.54,0.58,0.53c0.57-0.01,1.15,0.01,1.72,0.01C196.9,185.67,197.03,185.58,196.89,185.3z M192.23,180.39
		c-0.79,0-0.79,0-0.79-1.21c-0.03-0.41-0.12-0.92,0.77-0.86c1.16,0.08,1.66,0.33,1.62,1.06
		C193.81,180.07,193.29,180.39,192.23,180.39z"/>
	<path class="st0" d="M230.66,184.9c-1.01-2.16-1.95-4.34-2.92-6.52c-0.85-1.91-0.84-1.9-2.92-1.72c-0.35,0.03-0.5,0.17-0.62,0.47
		c-1.12,2.79-2.25,5.58-3.42,8.49c0.35,0.02,0.58,0.01,0.8,0.04c1.09,0.16,1.9-0.08,2.08-1.33c0.06-0.4,0.35-0.45,0.7-0.45
		c0.86,0.02,1.73,0.07,2.58-0.01c0.72-0.07,1.09,0.22,1.22,0.86c0.17,0.85,0.7,1.09,1.49,0.97c0.14-0.02,0.29-0.02,0.43,0
		C230.79,185.79,231.01,185.64,230.66,184.9z M224.44,182.31c0.42-1.11,0.82-2.18,1.28-3.43c0.51,1.23,0.95,2.3,1.42,3.43
		C226.22,182.31,225.4,182.31,224.44,182.31z"/>
	<path class="st0" d="M347.29,67.03c0-0.49,0-0.98,0-1.46c0-1.46-0.46-2.09-1.88-2.46c-1.36-0.34-2.74-0.34-4.1-0.01
		c-1.45,0.35-1.98,1.09-1.99,2.59c0,0.95-0.01,1.9,0,2.84c0.01,1.17,0.43,1.86,1.53,2.22c1.65,0.55,3.34,0.55,4.99,0
		c1.04-0.35,1.43-0.98,1.44-2.08C347.3,68.12,347.29,67.58,347.29,67.03z M346.63,65.52c-0.03,0.51-0.01,1.03-0.01,1.55
		c0,0.43,0,0.86,0,1.29c-0.01,1.17-0.31,1.62-1.44,1.9c-1.27,0.32-2.57,0.32-3.83-0.05c-0.95-0.27-1.3-0.78-1.31-1.77
		c-0.01-0.98,0.02-1.95-0.01-2.93c-0.02-0.87,0.39-1.42,1.19-1.68c1.38-0.44,2.77-0.44,4.15-0.04
		C346.23,64.06,346.68,64.6,346.63,65.52z"/>
	<path class="st0" d="M344.63,68.18c-0.17-0.32-0.18-0.53,0.18-0.78c0.68-0.46,0.65-1.17,0.48-1.86c-0.17-0.7-0.76-0.89-1.38-0.96
		c-0.43-0.04-0.86,0.03-1.29-0.03c-0.8-0.11-1.17,0.13-1.05,1c0.07,0.51,0.01,1.03,0.01,1.55c0,0.46-0.05,0.93,0.02,1.37
		c0.06,0.38-0.35,1.09,0.38,1.06c0.61-0.02,0.19-0.69,0.31-1.05c0.08-0.26-0.19-0.7,0.31-0.76c0.56-0.06,1.16-0.16,1.35,0.65
		c0.08,0.33,0.26,0.63,0.39,0.95c0.13,0.32,0.41,0.32,0.65,0.23c0.31-0.12,0.05-0.34,0-0.5C344.9,68.74,344.77,68.45,344.63,68.18z
		 M343.14,67.15c-0.84,0-0.84,0-0.84-0.99c0.02-0.51-0.21-1.11,0.73-1.06c1.16,0.06,1.63,0.31,1.61,1.07
		C344.62,66.87,344.21,67.14,343.14,67.15z"/>
</g>
<rect class="st4" width="457" height="247"/>
</svg>
