<?xml version="1.0" encoding="utf-8"?>
<!-- Generator: Adobe Illustrator 26.0.2, SVG Export Plug-In . SVG Version: 6.00 Build 0)  -->
<svg version="1.1" id="图层_1" xmlns="http://www.w3.org/2000/svg" xmlns:xlink="http://www.w3.org/1999/xlink" x="0px" y="0px"
	 viewBox="0 0 457 247" style="enable-background:new 0 0 457 247;" xml:space="preserve">
<style type="text/css">
	.st0{fill:#818181;}
	.st1{fill-rule:evenodd;clip-rule:evenodd;fill:#818181;}
	.st2{clip-path:url(#SVGID_00000128464859829788299310000005718894377582783644_);fill:#818181;}
	.st3{clip-path:url(#SVGID_00000016038104783913410970000013017023450315077269_);fill:#818181;}
	.st4{fill:none;}
</style>
<g>
	<path class="st0" d="M143.8,148.65c0.25,0.36-0.58,0.67-0.05,1.05c0.22,0.19,0.25,0.42,0.16,0.68c-0.17,0.6-0.9,1.03-0.56,1.79
		c0.02,0.24-0.02,0.48-0.12,0.7c-0.34,0.43-0.51,0.92-0.48,1.48c0.09,0.36-0.45,0.92,0.35,1.05c-0.44,1.94-0.54,3.95-1.65,5.72
		c-0.39,0.61-0.25,1.48,0.08,2.21c0.3,0.45-0.26,0.65-0.29,1.01c-0.01,1.06-0.03,2.12-0.04,3.18c-0.69,0.27,0.07,0.71-0.12,1.04
		c0.05,0.76,0.75-0.01,0.96,0.4c0.12,0.27,0.18,0.54,0.02,0.82c0.22-0.21,0-0.59,0.28-0.78c1.27-0.06,0.52-1.59,1.41-1.95
		c0.54,3.45-1.24,6.55-1.39,9.89c-0.1,2.19,0.14,4.33,0.31,6.49c0.14,1.83-0.5,3.18-2.44,3.67c-0.22,0.06-0.42,0.22-0.4,0.51
		c-0.96,0-1.91,0-2.87,0c0.07-0.78-0.65-0.75-1.06-1c-2.32-1.37-3.43-2.84-2.46-5.33c1.59-4.12,1.39-8.48,2.5-12.63
		c0.38-0.07,0.5,0.19,0.6,0.44c-0.01-0.02,0.04,0.08,0.04,0.08s0.02-0.09,0.02-0.12c-0.07-0.98,0.26-1.88,0.39-2.8
		c0.36-1.05,0.77-2.09,0.89-3.2c0.01-0.57-0.06-1.16,0.32-1.66c0.03-0.66,0.27-1.25,0.53-1.85c0.3-0.64,0.5-1.31,0.71-1.99
		c0.04-0.15,0.09-0.3,0.15-0.44c0.14-0.36,0.25-0.74,0.37-1.11c0.21-0.69,0.52-1.34,0.7-2.03c0.22-0.52,0.47-1.03,0.63-1.58
		c0.17-0.47,0.29-0.96,0.7-1.3c0.49-1.07,0.98-2.14,1.47-3.21C144.12,147.85,143.91,148.28,143.8,148.65z"/>
	<path class="st0" d="M179.28,132.49c-1.15,0.57-0.08,1.76-0.7,2.48c-0.12,0.59-0.78,0.7-1.04,1.17c-0.04,0.3-0.08,0.6-0.12,0.9
		c-0.33,0.58,0.3,1.49-0.63,1.88c-0.36,1.7-0.94,3.39-0.98,5.09c-0.02,0.85-0.12,1.49-0.49,2.22c-0.61,1.18-0.3,2.53-0.7,3.82
		c-0.94,3.02-1.79,6.09-1.86,9.3c-0.01,0.51-0.17,0.93-0.67,1.15c-0.31-0.2-0.33-0.62-0.67-0.89c-0.32,0.51,0.03,1.01-0.04,1.5
		c0.02,0.25-0.02,0.49-0.09,0.73c-0.68,1.19-0.39,2.24,0.44,3.22c0.22,0.33,0.45,0.66,0.08,1.03c0.37,0.53-0.39,0.98-0.1,1.5
		c1.48,1.74,1.61,2.98,0.58,4.89c-0.37,0.69-0.91,0.47-1.4,0.36c-2.21-0.52-2.96-1.66-3.35-3.95c-0.49-2.86-1.11-5.69-1.69-8.54
		c-1.47-7.27-1.54-14.45,0.04-21.74c0.97-4.49,3.18-8.34,5.12-12.36c1.44-2.99,2.24-6.16,2.81-9.45c1.45-8.37,1.93-16.96,5.62-24.82
		c0.13-0.27,0.19-0.56,0.27-0.85c0.08-0.31,0.41-0.59,0.03-0.96c-0.38-0.37-0.65-0.04-0.96,0.05c-1.64,0.51-3.28,1.07-5.01,1.15
		c-0.7,0.04-1.45,0.14-2.03-0.44c-0.15-0.29-0.84,0.02-0.7-0.61c1.95-2.35,4.78-3.46,7.28-5.02c4.4-2.74,9.25-4.56,13.97-6.65
		c2.44-1.08,4.98-1.87,7.21-3.46c1.97-1.41,4.45-1.49,6.78-1.74c1.31-0.14,2.29,0.17,1.97,2.17c-0.15,0.91-1.15,2.41,0.32,3.48
		c0.4,0.29-0.29,0.6-0.66,0.73c-4.22,1.55-8.4,3.19-12.66,4.63c-2.69,0.91-5.17,2.36-7.95,3.03c-0.73,0.17-1.06,0.83-1.33,1.38
		c-1.1,2.28-2.26,4.54-2.33,7.19c-0.11,3.97-0.38,7.94-0.56,11.92c-0.02,0.42-0.27,0.99,0.33,1.27c0.71,0.33,0.76-0.52,0.94-0.74
		c1.69-2.04,4.14-3.16,5.99-5.02c0.89-0.89,2.42-1.08,3.57-1.84c1.22-0.81,1.73-1.66,1.59-3.2c-0.19-2.12-0.64-4.23-0.45-6.38
		c0.09-1.04,0.17-2.29,1.14-2.62c1.16-0.4,2.53-0.05,3.43,0.92c0.79,0.86,2.09,1.58,0.7,3.24c-0.78,0.93-0.24,2.53,0.12,3.79
		c0.16,0.56,0.6,0.43,1.02,0.29c1.35-0.42,2.71-0.82,4.17-1.25c-0.44-0.63-0.72-1.38-0.77-2.2c1.8,0.25,3.37,1.22,5.28,1.32
		c1.14,0.06,2,1.66,2.69,2.84c0.48,0.83,1.54,1.96,1.31,2.44c-0.61,1.25-1.45,2.53-3.03,3.01c-2.55,0.78-5.05,1.73-7.6,2.5
		c-1.46,0.44-2.19,0.98-2.34,2.8c-0.16,1.98-1.12,3.98-2.07,5.8c-0.5,0.97-2.18,0.44-3.02,1.34c-0.1-0.78-0.98-1.28-0.71-2.24
		c0.44-1.58,0.9-3.17,0.68-5.01c-4.83,1.97-9.17,4.46-12.74,8.14c-1.53,1.58-1.32,4-2.5,5.8c-0.12,0.19,1.01,0.41,0.75,1.36
		c-0.36,1.3-1.47,2.17-1.8,3.37c-0.23,0.82-1.51,1.23-0.86,2.32c0.01,0.08,0.03,0.15,0.04,0.23c0.12,0.49,0,0.99-0.22,1.36
		C178.24,132.35,179.12,132.18,179.28,132.49z"/>
	<path class="st0" d="M197.29,129.58c1.39-1.48,1.59-3.5,2.41-5.24c0.27-0.56,0.43-1.09,0.31-1.81c-3.45,2.83-7.71,4.11-11.42,6.39
		c-0.95,0.59-3.33-0.73-3.83-2.08c-0.49-1.32-0.26-2.64,1.21-3.05c5.7-1.61,10.42-4.89,15.07-8.36c2.14-1.59,4.62-2.62,7.15-3.47
		c1.71-0.58,3.45-0.2,4.03,1.21c0.55,1.33,0.65,2.82-0.58,4c-0.39,0.37-0.81,0.7-1.18,1.08c-1.9,1.98-2.06,2.13-0.19,4.1
		c0.96,1.01,1.11,2.23,1.76,3.28c0.61,0.8,1.79,1.03,2.1,2.12c0.43,0.58,1.18,0.48,1.74,0.82c1.25,0.76,1.37,1.79,0.33,2.82
		c-0.56,0.55-1.3,0.95-1.54,1.79c-0.15,0.54-0.63,0.64-1.14,0.66c-0.53,0.02-1.06,0.11-1.59,0.18c-3.27,0.44-3.72,0.92-4.27,4.16
		c-0.17,0.98-0.54,1.93-0.84,2.88c-0.1,0.33-0.37,0.69-0.12,1c0.35,0.43,0.78,0.08,1.14-0.05c2.58-0.88,5.23-1.04,7.93-1
		c1.68,0.02,2.88,0.86,3.28,2.25c0.43,1.46,0.39,3.09-0.96,4.34c-3.59,3.34-7.58,6.11-11.79,8.61c-1.63,0.97-3.42,1.19-5.25,1.33
		c-0.57,0.04-1.18-0.29-1.81,0.56c0.2-1.2,0.98-1.6,1.26-2.3c0.11-0.51,0.37-0.95,0.79-1.35c-0.48-0.11-0.81,0.31-1.21,0.13
		c-2.4,1.14-4.91,1.74-7.59,1.49c-2.16-0.2-3.38-2.12-2.49-3.83c0.22-0.42,0.57-0.56,0.9-0.8c3.35-2.33,4.87-5.79,5.91-9.55
		c0.03-0.09-0.07-0.22-0.13-0.4c-1.05,0.1-1.79,0.86-2.61,1.36c-2.28,1.42-4.87,2.16-7.22,3.4c-1.01,0.53-2.11,0.14-2.67-0.8
		c-0.59-0.98-0.48-2.07,0.54-2.85c1.17-0.89,2.06-2.1,3.44-2.78c0.39,0.27-0.35,0.91,0.47,1.19c4.21-2.69,9.91-4.21,9.64-11.04
		C198.04,129.65,197.56,129.86,197.29,129.58z"/>
	<path class="st0" d="M115.22,150.27c0.01,1.65-0.02,3-2.23,3.48c-1.11,0.24-1.92,1.68-2.45,2.91c-0.15,0.35-0.03,0.89-0.65,0.9
		c-0.52,0.01-0.92-0.2-1.18-0.66c-0.12-0.21-0.25-0.42-0.3-0.65c-0.74-3.52-3.02-6.1-5.27-8.72c-1.8-2.1-3.61-4.23-5.12-6.55
		c-0.58-0.89-1.41-2.18-0.62-3.46c0.59-0.95-0.77-1.85,0.24-2.96c0.78-0.87,1.27-1.08,2.32-0.8c2.65,0.72,4.76,2.38,6.87,3.97
		c2.64,1.99,5.32,3.99,6.91,7.07C114.66,146.54,115.32,148.3,115.22,150.27z"/>
	<path class="st0" d="M157.69,98.39c-0.68,1-1.02-0.69-1.9-0.17c-1.19,0.7-2.32,1.24-2.81,2.65c-0.24,0.7-0.71,1.31-1.11,2.04
		c-0.88-1-0.15-1.71,0.2-2.47c0.25-0.55,0.13-1.07-0.22-1.54c-0.2,0.21-0.4,0.42-0.6,0.63c-0.32,0.04-0.54-0.02-0.35-0.41
		c0.82-3.19,1.63-6.37,2.27-9.61c0.66-3.31,2.66-5.93,6.1-7.03c1.32-0.42,2.47-0.19,3.47,1.03c2.22,2.75,3.83,5.84,4.56,9.21
		c0.32,1.46-0.22,3.3-1.36,4.69c-1.2,1.48-2.7,1.87-4.5,1.47c-0.86-0.19-1.74-0.31-2.61-0.46
		C158.45,98.52,158.08,98.22,157.69,98.39z"/>
	<path class="st0" d="M145.61,128.9c-0.69,0.95-0.39,2.15-0.85,3.16c-0.84-0.14-0.35-0.7-0.35-1.11c0.3-2.31,0.67-4.54,0.14-6.95
		c-0.68-3.12,0.25-6.03,2.31-8.63c0.71-0.89,0.6-2.42,1.27-3.82c0.18,0.55,0.29,0.88,0.41,1.26c0.77-0.88,0.31-2.07,0.98-2.89
		c0.47-0.03,1.32-1.01,1.22,0.47c0.01,0.28-0.05,0.57,0.05,0.84c0.09,0.25,0.03,0.66,0.31,0.7c0.15,0.02,0.31-0.42,0.54-0.58
		c0.69,0.28,1,1.07,0.95,1.52c-0.35,3.24,1.93,5.63,2.61,8.52c0.23,0.97,0.58,1.9,0.8,2.87c0.52,2.31-0.51,3.84-2.83,4.28
		c-0.7,0.13-1.4,0.33-2.1,0.34c-1.08,0.01-1.84,0.43-2,1.5c-0.1,0.67-0.63,0.77-1.01,1.1c-0.52,0.32-0.43-0.87-1.01-0.41
		c-0.16,0.34-0.24,1.01-0.64,0.86c-0.88-0.34,0.04-1.06-0.16-1.6c-0.33-0.35,0.02-0.79-0.15-1.17
		C146.02,128.93,146.02,128.48,145.61,128.9z"/>
	<path class="st0" d="M308.98,120.71c-0.57-2.12-0.27-4.12,0.03-6.1c0.27-1.85-0.03-3.65-0.34-5.44c-0.32-1.86,0.48-3.09,2.37-3.03
		c1.63,0.05,3.16,0.55,4.43,1.62c1.18,0.99,1.42,3.17,0.26,5.05c-1.39,2.25-2.67,4.66-5.31,5.85
		C309.66,119,309.94,120.21,308.98,120.71z"/>
	<path class="st0" d="M395.36,144.88c0.87,0.35,0.76,1.18,0.78,1.83c0.09,3.36,0.13,6.73,0.13,10.09c0,1.33-0.59,1.92-2.09,1.93
		c-3.62,0.01-7.23,0.17-10.85,0c-1.03-0.05-1.33-0.45-1.6-1.2c0.11-0.18,0.18-0.39,0.4-0.49c0.15-0.02,0.29-0.03,0.44-0.01
		c0.29,0.04,0.59,0.07,0.88,0.07c0.7,0.01,1.39-0.01,2.08-0.13c0.16-0.02,0.32-0.02,0.47-0.01c0.62,0.13,1.24,0.13,1.85-0.07
		c0.32-0.07,0.64-0.06,0.96,0c0.7,0.22,1.41,0.21,2.12,0.1c0.32-0.03,0.64,0.02,0.96,0.06c0.32,0.03,0.64,0.04,0.96,0.03
		c0.24-0.01,0.47-0.02,0.71-0.05c1.07-0.72,1.44-2.35,0.95-4.15c-0.11-0.43,0.03-0.82,0.15-1.22c0.19-1.39,0.55-2.79-0.19-4.13
		c-0.21-0.1-0.41-0.21-0.58-0.37c-0.22-0.42-0.01-0.74,0.25-1.05c0.39-0.21,0.74-0.47,0.89-0.92
		C395.12,145.05,395.22,144.95,395.36,144.88z"/>
	<path class="st0" d="M266.48,122.92c0.05,1.07-0.74,1.54-1.51,1.95c-0.78,0.41-1.5,0.08-2.1-0.48c-1.1-1.05-1.35-2.61-2.24-3.79
		c-0.28-0.37,0.08-0.68,0.37-0.85C262.63,118.74,266.41,120.94,266.48,122.92z"/>
	<path class="st0" d="M262.01,111.93c1.29,0.09,3.04,1.71,3.19,2.97c0.12,0.96-1.29,1.91-2.42,1.51c-0.8-0.28-1.45-0.68-2.2,0.16
		c-0.43,0.48-0.82-0.03-0.7-0.47c0.34-1.18,0.64-2.35,0.84-3.56C260.83,111.9,261.46,111.87,262.01,111.93z"/>
	<path class="st0" d="M74.2,159.69c-0.04,0.17-0.04,0.38-0.14,0.51c-0.48,0.6-0.67,1.94-1.54,1.57c-0.66-0.28-0.41-1.62-0.2-2.41
		c0.84-3.08,2.05-6.04,3.34-8.97c1.12,0.16,0.54,1.22,0.95,1.76c-0.06,2.28-1.25,4.24-1.87,6.36
		C74.66,158.94,74.65,159.41,74.2,159.69z"/>
	<path class="st0" d="M382.04,147.45c0.19,0.08,0.35,0.18,0.29,0.43c0.29,2.55,0.13,5.1,0.09,7.66c-0.01,0.58,0.13,1.18-0.37,1.64
		c-0.11,0.12-0.21,0.23-0.32,0.35c-0.03-0.29-0.06-0.58-0.08-0.87c-0.36-1.36,0.09-2.77-0.26-4.13
		C381.23,150.78,381.29,149.07,382.04,147.45z"/>
	<path class="st0" d="M395.36,144.88c-0.03,0.2-0.07,0.4-0.1,0.6c-0.36,0.08-0.72-0.04-1.09,0c-0.47,0.05-0.94,0-1.42-0.01
		c-0.52-0.02-1.04,0.01-1.56,0.02c-0.83,0-1.67,0-2.5,0c-0.54,0-1.09-0.03-1.63,0.01c-0.36,0.03-0.71,0.14-1.07,0.14
		c-0.18,0.01-0.36-0.01-0.54-0.04c-0.72-0.38-1.89,0.35-2.25-0.92c0.31-0.03,0.61-0.05,0.92-0.08c0.6-0.29,1.28,0.04,1.88-0.25
		c0.12,0,0.24,0,0.36,0c1.94,0.34,3.92-0.1,5.86,0.23C393.28,144.54,394.35,144.44,395.36,144.88z"/>
	<path class="st0" d="M139.1,159.67c-0.23,0.58-0.45,1.16-0.68,1.73c-0.13,0.19-0.28,0.21-0.44,0.04c-0.46-0.82-0.45-1.56,0.01-2.45
		c0.6-1.18,0.94-2.51,1.38-3.77c0.25,0.04,0.41,0.2,0.53,0.41c0.06,0.15,0.06,0.3,0,0.46c-0.12,0.38-0.1,0.78-0.08,1.17
		c-0.03,0.12-0.06,0.24-0.09,0.36C139.24,158.21,139.09,158.92,139.1,159.67z"/>
	<path class="st0" d="M143.02,152.95c0.02-0.28,0.03-0.56,0.05-0.84c0.08-0.13,0.19-0.22,0.34-0.27c1.7,1.34,0.07,2.39-0.31,3.55
		c-1.28,0.38-0.57-0.68-0.78-1.07C142.63,153.9,142.53,153.27,143.02,152.95z"/>
	<path class="st0" d="M305.63,99.56c-0.26-0.26-0.99-0.21-0.49-0.95c0.53-0.78,0.75-1.76,1.49-2.42c0.17,0.09,0.23,0.23,0.21,0.41
		C307.11,97.86,306.24,98.66,305.63,99.56z"/>
	<path class="st0" d="M324.61,131.4c-0.61-0.44-0.33-0.95,0-1.32c0.42-0.48,0.69,0.4,1.13,0.25c0.02,0.6,0.76,1.09,0.31,1.77
		c-0.24,0.36,0.23,1.18-0.71,1.08C325.71,132.35,323.94,132.36,324.61,131.4C324.83,131.22,324.58,131.43,324.61,131.4z"/>
	<path class="st0" d="M76.31,148.25c0.11-0.05,0.22-0.05,0.33,0c0.46,0.51,0.41,1.17,0.54,1.78c0.13,0.77,0.21,1.51-0.78,1.8
		c-0.56-0.32-0.14-1.15-0.75-1.44C75.87,149.67,76.09,148.96,76.31,148.25z"/>
	<path class="st0" d="M145.24,160.81c-0.21,1.11-0.58,2.17-1.14,3.15c-0.41,0.04-0.57-0.12-0.41-0.52c0.19-1.09,0.64-2.08,1.18-3.04
		C145.22,160.35,145.41,160.42,145.24,160.81z"/>
	<path class="st0" d="M308.83,93.42c-0.15-1.64,0.97-2.12,2.26-2.44C310.33,91.79,309.94,92.94,308.83,93.42z"/>
	<path class="st0" d="M151.66,111.34c0.07,0.7-0.09,1.28-1.1,1.68c0-1,0-1.89,0-2.78c0.11-0.14,0.2-0.12,0.29,0.02
		c0.08,0.27,0.15,0.54,0.24,0.86c0.11-0.36,0.21-0.66,0.44-1.38C151.59,110.54,151.62,110.94,151.66,111.34z"/>
	<path class="st0" d="M150.85,110.26c-0.1-0.02-0.19-0.02-0.29-0.02c-0.09-0.1-0.06-0.65-0.25-0.26c-0.43,0.94-0.53-0.12-0.78-0.06
		c0.42-0.8,0.84-1.6,1.51-2.86C150.96,108.46,150.9,109.36,150.85,110.26z"/>
	<path class="st0" d="M197.29,129.58c0.53-0.34,1-0.53,1.01,0.41c-0.9,0.26-1.1,1.8-2.53,1.29
		C196.3,130.68,196.79,130.13,197.29,129.58z"/>
	<path class="st0" d="M392.22,144.57c-1.96,0.04-3.93,0.38-5.86-0.23C388.32,144.33,390.28,144.21,392.22,144.57z"/>
	<path class="st0" d="M171.05,161.07c0.24-0.05,0.48-0.1,0.72-0.14c0.71,0.62,0.91,1.25,0.05,1.91c-0.11,0.13-0.24,0.16-0.38,0.06
		c-0.14-0.36-0.27-0.72-0.41-1.08C171.04,161.58,171.04,161.33,171.05,161.07z"/>
	<path class="st0" d="M138.35,162.92c-0.92-0.14-0.62,0.83-1.05,1.15c-0.36-1.02-0.54-2,0.67-2.62c0.15-0.01,0.29-0.03,0.44-0.04
		C138.4,161.91,138.38,162.41,138.35,162.92z"/>
	<path class="st0" d="M136.22,169.33c-0.1-0.23-0.2-0.46-0.3-0.69c0-1.04,0.24-2.04,0.6-3.01c0.31,0.23,0.43,0.58,0.54,0.93
		c-0.16,0.9-0.32,1.8-0.37,2.72C136.55,169.45,136.39,169.46,136.22,169.33z"/>
	<path class="st0" d="M327.45,145.38c-0.25-0.83-0.5-1.67-0.75-2.5c0.18-0.14,0.24-0.4,0.47-0.49c0.59-0.04,0.42,0.55,0.67,0.8
		C328.4,144.04,327.56,144.65,327.45,145.38z"/>
	<path class="st0" d="M307.02,95.37c0.64-0.61,0.54-1.93,1.84-1.91c-0.24,0.79-0.49,1.58-1.18,2.12
		C307.4,95.66,307.19,95.58,307.02,95.37z"/>
	<path class="st0" d="M383.49,146c-0.36,0.16-0.88-0.04-1.08,0.47c-0.97-0.48-0.53-0.93,0.03-1.38c0.65-0.03,1.31-0.1,1.83,0.42
		C384.23,146.02,383.73,145.8,383.49,146z"/>
	<path class="st0" d="M140.14,154.12c-0.75-1.15,0.29-1.86,0.67-2.73c0.08,0.05,0.15,0.11,0.23,0.16c0.48,0.9-0.08,1.62-0.4,2.38
		C140.5,154.09,140.34,154.15,140.14,154.12z"/>
	<path class="st0" d="M327.83,143.18c-0.23-0.24-0.45-0.48-0.68-0.72c-0.12-0.72-0.68-1.36-0.39-2.15
		C328.09,140.92,327.5,142.22,327.83,143.18z"/>
	<path class="st0" d="M142.32,168.97c-0.02,0.26-0.05,0.53-0.07,0.79c-0.07,0-0.14,0-0.21,0c-0.02-0.27-0.05-0.53-0.07-0.8
		c-0.19-0.11-0.22-0.26-0.09-0.44c0-0.5,0.16-0.95,0.48-1.34c0.35-0.05,0.56,0.02,0.38,0.44
		C142.59,168.08,142.46,168.53,142.32,168.97z"/>
	<path class="st0" d="M266.81,129.97c-0.11,0.23-0.21,0.47-0.32,0.7c-0.42-0.47-0.66-1.01-0.77-1.62c-0.12-0.72,0.25-0.73,0.77-0.53
		C266.6,129.01,266.7,129.49,266.81,129.97z"/>
	<path class="st0" d="M266.49,128.52c-0.36,0.02-0.65,0.16-0.77,0.53c-0.3-0.48-1.07-1.05-0.4-1.51
		C265.79,127.23,266.51,127.68,266.49,128.52z"/>
	<path class="st0" d="M381.39,152.52c0.62,1.34,0.19,2.75,0.26,4.13C381.08,155.3,381.44,153.9,381.39,152.52z"/>
	<path class="st0" d="M150.88,100.59c-0.18,0.58-0.24,1.23-0.86,1.9c-0.08-1.12,0.1-1.92,0.53-2.67
		C150.87,99.99,150.68,100.37,150.88,100.59z"/>
	<path class="st0" d="M346.83,142.79c0.09,0.52,0.13,1.08,0.82,1.18c-0.33,0.48-0.91,0.38-1.73,0.96
		C346.4,143.92,346.3,143.26,346.83,142.79z"/>
	<path class="st0" d="M300.25,150.06c0.27-0.4-0.08-1.27,0.88-1.16C302.11,150.24,300.93,149.96,300.25,150.06z"/>
	<path class="st0" d="M178.9,129.98c0.25,0.02,0.64-0.41,0.71-0.02c0.11,0.58,0.12,1.28-0.7,1.5c-0.23-0.52-0.28-1.03,0.03-1.54
		L178.9,129.98z"/>
	<path class="st0" d="M145.24,160.81c-0.12-0.14-0.24-0.27-0.36-0.41c0.07-0.59,0.18-1.16,0.88-1.53
		C145.97,159.67,145.59,160.24,145.24,160.81z"/>
	<path class="st0" d="M143.8,148.65c-0.13-0.26-0.25-0.53-0.38-0.79c-0.27-0.63,0.13-0.96,0.62-1.46
		C144.32,147.31,144.28,148,143.8,148.65z"/>
	<path class="st0" d="M143.7,163.44c0.14,0.17,0.27,0.35,0.41,0.52c-0.34,0.6-0.32,1.43-1.09,1.76l0.04,0.03
		C143.02,164.92,143.05,164.09,143.7,163.44z"/>
	<path class="st0" d="M140.94,168.62c-0.23-0.62-0.46-1.24-0.71-1.89c0.8-0.21,0.46,0.75,0.95,0.77c0.05,0.36,0.1,0.72,0.16,1.08
		C141.23,168.73,141.09,168.74,140.94,168.62z"/>
	<path class="st0" d="M293.71,162.52c0.72,0.02,1.05,0.52,1,1.1c-0.03,0.36-0.45,0-0.69-0.01
		C293.85,163.27,293.13,163.08,293.71,162.52z"/>
	<path class="st0" d="M143.77,150.31c0-0.2-0.01-0.41-0.01-0.61c0.18-0.26,0.36-0.53,0.64-0.92c0.47,0.8-0.09,1.33-0.29,1.91
		C143.8,150.73,143.5,150.76,143.77,150.31z"/>
	<path class="st0" d="M307.02,95.37c0.22,0.07,0.44,0.14,0.66,0.21c0.28,0.8-0.53,0.71-0.84,1.02c-0.07-0.14-0.14-0.27-0.21-0.41
		C306.75,95.91,306.88,95.64,307.02,95.37z"/>
	<path class="st0" d="M325.33,133.18c0.24-0.36,0.47-0.72,0.71-1.08c0.24,0.7,0.82,1.54-0.65,1.54
		C325.38,133.48,325.35,133.33,325.33,133.18z"/>
	<path class="st0" d="M177.54,136.14c0.19-0.53,0.39-1.05,1.04-1.17C178.97,136.01,177.99,135.84,177.54,136.14z"/>
	<path class="st0" d="M142.73,167.63c-0.13-0.15-0.26-0.29-0.38-0.44c0.01-0.59,0.09-1.14,0.71-1.43c0,0-0.04-0.03-0.04-0.03
		C143.03,166.38,143.35,167.07,142.73,167.63z"/>
	<path class="st0" d="M144.66,143.48c0.23,0.61,0.32,1.18-0.35,1.6C143.94,144.4,144.65,144.01,144.66,143.48z"/>
	<path class="st0" d="M136.87,166.46c-0.12-0.28-0.24-0.56-0.36-0.83c0.11-0.49-0.07-1.16,0.75-1.21c-0.04,0.46-0.53,0.83-0.27,1.35
		C137.12,166.03,137.17,166.28,136.87,166.46z"/>
	<path class="st0" d="M78.38,144.19c0.15,0.38,0.77,0.75,0.05,1.16c-0.24-0.04-0.62,0.14-0.66-0.27
		C77.73,144.65,78,144.37,78.38,144.19z"/>
	<path class="st0" d="M141.27,149.65c-0.15-0.52,0.16-0.87,0.46-1.26c0.5,0.47,0.31,0.88-0.04,1.28
		C141.54,149.85,141.4,149.84,141.27,149.65z"/>
	<path class="st0" d="M140.18,154.1c-0.14,0.55-0.28,1.1-0.41,1.64c-0.13-0.17-0.26-0.34-0.39-0.52
		C139.46,154.72,139.36,154.08,140.18,154.1z"/>
	<path class="st0" d="M141.27,149.65c0.14,0.01,0.28,0.01,0.42,0.02c-0.03,0.34-0.06,0.67-0.1,1.01c-0.12,0.25-0.23,0.49-0.35,0.74
		c-0.13,0.17-0.25,0.17-0.36-0.01c0,0-0.07-0.02-0.07-0.02C140.96,150.81,141.11,150.23,141.27,149.65z"/>
	<path class="st0" d="M171.44,162.9c0.13-0.02,0.25-0.04,0.38-0.06c0.89,0.01,0.66,0.42,0.3,0.86
		C171.74,163.58,171.02,163.73,171.44,162.9z"/>
	<path class="st0" d="M177.85,138.52c-0.03-0.25-0.06-0.49-0.1-0.74c0.08-0.21,0.17-0.41,0.25-0.62c0.11,0.1,0.34,0.21,0.33,0.29
		C178.26,137.84,178.57,138.42,177.85,138.52z"/>
	<path class="st0" d="M326.33,134.28c-0.36-0.06-1.29,0.94-0.92-0.49C325.77,133.87,326.25,133.7,326.33,134.28z"/>
	<path class="st0" d="M327.21,152.47c0.39,0.4,0.32,0.9,0.15,1.33c-0.07,0.17-0.42,0.01-0.59-0.18
		C327.3,153.38,327,152.83,327.21,152.47z"/>
	<path class="st0" d="M385.99,144.34c-0.57,0.53-1.23,0.3-1.88,0.25C384.71,144.27,385.37,144.4,385.99,144.34z"/>
	<path class="st0" d="M171.05,90.31c0.23,0.2,0.46,0.41,0.7,0.61c-0.45-0.07-1.04,0.3-1.32-0.25
		C170.33,90.49,170.77,90.32,171.05,90.31z"/>
	<path class="st0" d="M150.88,100.59c-0.11-0.26-0.22-0.51-0.33-0.77c0-0.3,0.04-0.57,0.35-0.72c0.12,0.14,0.23,0.28,0.35,0.41
		C151.12,99.87,151,100.23,150.88,100.59z"/>
	<path class="st0" d="M151.14,105.32c0.34,0.55,0.19,1.03-0.08,1.68C150.8,106.34,150.81,105.85,151.14,105.32z"/>
	<path class="st0" d="M140.94,168.62c0.13-0.02,0.27-0.03,0.4-0.05c0.17-0.01,0.35-0.03,0.52-0.04c0.03,0.15,0.06,0.29,0.09,0.44
		C141.91,168,140.6,170.72,140.94,168.62z"/>
	<path class="st0" d="M144.42,130.96c0.12,0.37,0.23,0.74,0.35,1.11c-0.07,0.14-0.1,0.37-0.2,0.41c-0.26,0.09-0.44-0.05-0.39-0.35
		C144.24,131.73,144.34,131.34,144.42,130.96z"/>
	<path class="st0" d="M104.98,117.72c-0.94-1.2-2.29-2.16-2.69-3.71c-0.58-2.28-1.31-4.49-1.36-6.94c-0.03-1.42,0.29-2.02,1.44-2.5
		c0.98-0.4,1.49-0.95,1.52-2.24c0.03-1.35,0.1-2.76,0.35-4.15c0.53-2.88-2.16-5.59-5.05-4.8c-2.24,0.61-4.5,1.1-6.75,1.67
		c-5.18,1.32-10.06,3.47-15.02,5.37c-2.4,0.92-5.02,1.53-6.91,3.52c-1.87,1.97-1.74,3.49,0.43,5.01c1.16,0.82,2.28,1.69,3.44,2.52
		c0.57,0.41,1.05,0.5,1.89,0.21c3.04-1.04,6.18-1.8,9.47-2.72c-0.68,2.8-2.09,4.79-3.63,6.81c-2.56,3.36-5.35,6.4-9.23,8.18
		c-1.04,0.47-1.68,1.14-2.4,1.9c-1.12,1.19-1.15,3.02-2.44,4.1c0,0.95,0,1.91,0,2.86c1.28,1.42,2.44,2.98,3.87,4.23
		c2.23,1.95,4.73-0.11,7.11,0.19c0.36,0.05,0.83-0.91,1.06-0.06c0.14,0.51,0.94,0.99,0.05,1.83c-1.42,1.33-2.17,3.12-1.74,5.18
		c-0.17,0.39-0.04,0.78,0.05,1.16c-0.07,0.28-0.63,0.57,0.01,0.84c0.27,0.15,0.75,0.11,0.53,0.68c-0.46,1.21-0.59,2.56-1.49,3.59
		c-0.68,2.81-1.83,5.45-2.9,8.12c-0.29,0.63,0.3,1.28-0.03,1.9c-0.01,0.18-0.01,0.36-0.05,0.53c-0.12,0.56-0.4,1.3,0.24,1.56
		c0.58,0.24,0.83-0.51,1.15-0.92c1.14-1.44,2.09-2.99,2.88-4.65c0.09-0.2,0.25-0.4,0.43-0.5c0.14-0.08,0.3,0.02,0.3,0.27
		c0,0.24-0.51,0.52-0.03,0.69c0.52,0.18,0.51-0.37,0.64-0.65c1.39-2.98,3.05-5.75,5.39-8.13c0.67-0.69,1.8-1.08,2.02-2.09
		c0.39-1.77,1.82-2.93,2.45-4.58c1.05-2.73,2.78-5.15,3.65-8c0.4-1.31,0.82-2.97,2.26-3.63c1.69-0.77,3.48-1.39,5.28-1.83
		C106.12,127.34,108.11,121.72,104.98,117.72z M97.28,118.24c-0.78-1.07-0.96-2.1,0.16-3.03c0.15-0.12,0.96,0.17,1,0.35
		C98.64,116.63,98.8,117.75,97.28,118.24z"/>
	<path class="st0" d="M139.2,166.28c0.53,0.74,0.2,1.28-0.36,1.88C138.73,167.45,138.52,166.83,139.2,166.28z"/>
	<path class="st0" d="M136.41,172.02c-0.11,0.48-0.22,0.96-0.38,1.67C135.84,172.89,135.75,172.35,136.41,172.02z"/>
	<path class="st0" d="M172.37,151.66c0.1,0.53,0.21,1.07,0.26,1.61c0,0.05-0.53,0.26-0.61,0.18
		C171.45,152.88,172.08,152.31,172.37,151.66z"/>
	<path class="st0" d="M174.32,145.42c-0.11-0.13-0.21-0.25-0.32-0.38c0.26-0.77-0.51-1.02-0.78-1.52c0.45-0.27,0.9-0.39,1.36-0.01
		C174.55,144.16,174.86,144.84,174.32,145.42z"/>
	<path class="st0" d="M171.23,140.37c0.12,0.66,0.39,1.35-0.2,2.1C170.39,141.6,171.02,141,171.23,140.37z"/>
	<path class="st0" d="M169.15,146c0.11,0.27,0.03,0.64,0.42,0.76c0.1,0.57-0.19,0.94-0.64,1.34
		C168.93,147.33,168.71,146.64,169.15,146z"/>
	<path class="st0" d="M170.14,156.43c0.61,0.45,0.58,0.82,0.36,1.18c-0.05,0.09-0.36,0.15-0.4,0.1
		C169.79,157.34,170.02,156.97,170.14,156.43z"/>
	<path class="st0" d="M174.7,141.28c-0.05-0.74-0.06-1.19,0.46-1.47C175.55,140.44,175.13,140.8,174.7,141.28z"/>
	<path class="st0" d="M171.53,137.33c-0.11-0.54-0.3-1.03,0.19-1.15c0.42-0.1,0.34,0.3,0.22,0.56
		C171.87,136.89,171.75,137.01,171.53,137.33z"/>
	<path class="st0" d="M171.68,148.28c0.11,0.08,0.27,0.15,0.34,0.28c0.12,0.22,0.04,0.45-0.19,0.53c-0.09,0.03-0.3-0.11-0.36-0.23
		C171.35,148.65,171.42,148.44,171.68,148.28z"/>
	<path class="st0" d="M170.48,145.69c0.29,0.71,0.21,1.18-0.41,1.68C170.22,146.76,170.33,146.29,170.48,145.69z"/>
	<path class="st0" d="M172.47,149.29c0.11,0,0.21-0.01,0.31-0.02c0.12,0.54,0.02,1-0.48,1.36
		C171.93,150.07,172.32,149.7,172.47,149.29z"/>
	<path class="st0" d="M298.36,156.81c-0.2,0.73,0.43,0.99,0.8,1.39c0,0.23,0.01,0.47,0.01,0.7c-0.36,0.35-0.49-0.02-0.69-0.21
		C298.22,158.08,297.75,157.48,298.36,156.81z"/>
	<path class="st0" d="M296.89,118.14c0.62,0.55,0.14,0.87-0.01,1.26C296.39,118.93,296.66,118.59,296.89,118.14z"/>
	<path class="st0" d="M330.69,156.09c-1.29-3.49-2.18-7.13-3.24-10.7c-0.21-0.82,0.21-1.7-0.22-2.5c-0.23-0.87-0.07-1.85-0.76-2.58
		c-0.04-0.45,1.48-0.43,0.49-0.94c-1.02-0.52-0.93-1.2-0.88-1.94c0.05-0.82,0.3-1.63,0.41-2.45c0.03-0.22-0.1-0.46-0.15-0.69
		c-0.17-0.43-1.01,0.41-0.92-0.49l-0.02-0.15c0.08-0.14,0.15-0.28,0.21-0.43c0.14-0.71-0.48-1.11-0.69-1.67
		c-0.04-0.14-0.07-0.28-0.1-0.43c-0.2-0.85,0.7-0.41,0.92-0.78c0.49-0.26,0.35-0.73,0.29-1.11c-0.54-3.34-0.76-6.71-1.12-10.07
		c-0.7-6.49-0.19-12.9,0.68-19.33c0.6-4.4,1.91-8.62,3.14-12.86c0.96-3.32,0.01-5.27-2.92-6.22c-1.27-0.41-2.64-0.47-3.86,0.01
		c-5.43,2.16-10.39,5.03-14.09,9.71c-1.77,2.24-3.21,4.7-4.77,7.08c-0.2,0.3-0.39,0.67-0.82,0.48c-0.13-0.06-0.22-0.41-0.19-0.6
		c0.57-3.78-0.51-7.45-0.7-11.18c-0.07-1.45-0.61-2.77-1.14-4.09c-0.19-0.49-0.57-1-1.2-0.89c-0.6,0.11-0.52,0.7-0.57,1.16
		c-0.66,6.09-0.88,12.21-0.96,18.32c-0.06,4.75-0.78,9.15-2.94,13.51c-3.01,6.08-4.37,12.69-4.41,19.52
		c-0.02,4.59-0.15,9.19,0.41,13.76c0.46,3.72,0.71,7.47,1.54,11.16c0.32,1.43,1.09,2.55,1.59,3.83c0.22,0.33,0.68,0.59,0.31,1.09
		c0.02,0.36,0.16,0.66,0.38,0.97c1.27,1.8,1.23,1.62,3.14,0.4c1.72-1.1,2.18-2.46,2.46-4.35c0.47-3.18,1.99-6.28,0.26-9.52
		c-0.15-0.27-0.01-0.7-0.01-1.05c0.38-0.32,0.51-0.84,0.88-1.16c0.77-1.8,0.54-3.78,1.06-5.61c0.21-0.75-1.03-0.88-0.52-1.67
		c1.4-2.19,0.88-4.79,1.35-7.17c0.67-3.43-0.06-6.99,0.26-10.52c0.23-2.51,0.06-5.21-0.38-7.72c-0.24-1.39,0.12-2.65-0.02-3.99
		c-0.34-3.17-0.87-6.48,1.27-9.42c0.68-0.93,1.23-2.04,1.48-3.22c-0.16-1.24,0.69-2.11,1.17-3.12c0.23-0.44,0.59-0.77,0.84-1.19
		c0.22-0.72,0.63-1.32,1.22-1.8l-0.03-0.03c0.56-1,1.17-1.93,2.26-2.44c2.41-2.36,5.34-3.88,8.42-5.11
		c1.38-0.55,2.82-1.77,4.33-0.55c1.52,1.23,0.93,2.95,0.56,4.48c-1.51,6.25-2.6,12.57-2.95,18.98c-0.49,8.95,0.96,17.75,2.64,26.51
		c1.1,5.72,2.73,11.34,3.12,17.18c0.19,0.98,0.19,0.98-0.44,1.14c-2.86-2.14-5.34-4.63-7.45-7.55c-0.85-1.17-1.48-2.55-2.81-3.42
		c-1.6-1.04-1.62-1.64-0.29-3.13c0.69-0.77,0.8-1.48,0.49-2.41c-1.02-3.11-3.8-4.66-5.89-7.06c-1.02,4.51-1.06,5.45-0.45,8.56
		c0.36,1.85,1.74,3.13,3.62,3.15c0.89,0.01,1.07,0.55,1.37,1.12c1.52,2.89,3.02,5.8,4.58,8.67c2.01,3.69,4.23,7.17,8.23,9.1
		c0.7,0.34,1.37,0.41,1.71-0.07C330.82,159.24,331.36,157.92,330.69,156.09z M296.91,126.4c0.49,2.94-0.46,5.93,0.55,8.88
		c0.27,0.79,0.03,2.55-0.31,3.06c-1.28,1.88,1.37,3.8-0.36,5.43c1.16,0.93,0.02,1.98,0.14,2.96c-0.03,0.99,0.4,2.01-0.22,2.95
		c0.23,0.67,0.14,1.27-0.44,1.74c0.02,0.11,0.03,0.22,0.03,0.34c0.24,0.07,0.71,0.07,0.47,0.45c-0.18,0.28,0.23,1.07-0.62,0.85
		c0,0,0,0,0,0c0,0,0,0,0,0c0.02,0.43,0.35,0.91-0.21,1.24c0.07,0.38,0.69,0.29,0.65,0.75c-0.04,0.48,0.13,1.2-0.57,1.21
		c-0.78,0.01-0.39-0.67-0.4-1.08c-0.01-0.3-0.01-0.6-0.01-0.89c-0.14-0.6-0.28-1.2-0.42-1.8c-0.17-0.55-0.22-1.07,0.38-1.42v0
		c-0.09-1.06-0.12-2.14-0.3-3.19c-0.12-0.66-0.52-0.45-0.83-0.05c0.08,0.51-0.1,0.79-0.65,0.76c0.09,0.48,0.55,0.9,0.12,1.71
		c-0.18-0.84-0.31-1.48-0.44-2.12c0.09-0.36-0.31-0.86,0.32-1.06c0.21-0.74-0.75-1.48,0-2.22c0.53,0.01,0.34-0.37,0.34-0.64
		c0.51-2.7,0.07-5.44,0.31-8.15c-0.28-0.34-0.29-0.74-0.24-1.15c0.08-1.32-0.18-2.68,0.61-3.89c-0.14-0.51-0.22-1.01,0.03-1.51
		c0.11-3.29-0.25-6.67,2.1-9.66c-0.1,1.21,0.92,2.2,0.16,3.37C298.51,124.42,296.75,125.41,296.91,126.4z M298.41,159.62
		c-0.65-0.27,0.2-0.6,0.07-0.93c0.23,0.07,0.46,0.14,0.69,0.21C299.22,159.47,298.98,159.86,298.41,159.62z M299.16,158.2
		c-0.96-0.07-0.99-0.67-0.8-1.39c0.41-0.2,0.95-0.28,1.12,0.11C299.63,157.28,299.88,157.93,299.16,158.2z"/>
	<path class="st0" d="M294.1,144.28c0.09,0.44,1.17,0.18,0.73,0.88c-0.26,0.4-0.66-0.33-1.06-0.24
		C293.75,144.64,293.81,144.39,294.1,144.28z"/>
	<path class="st0" d="M274.52,137.02c-0.49-1.02-0.82-2.07-0.98-3.21c-0.74-5.42-1.52-10.83-2.31-16.24
		c-0.45-3.05-1.66-5.98-1.51-9.12c0.09-1.95,0.35-3.9,0.54-5.85c0.15-1.53,0.1-3.17-1.28-4c-1.56-0.93-2.97,0.09-4.17,1.16
		c-1.02,0.91-2,1.88-2.98,2.83c-1.16,1.13-1.73,3.07-3.94,2.78c-0.25-0.03-0.56,0.41-0.85,0.61c-1.79,1.21-2.36,2.97-2.49,5.03
		c-0.19,3.07-2.08,5.1-4.64,7.31c0.15-1.34,0.3-2.15,0.31-2.97c0.04-2.64,0.62-5.36-1.33-7.68c-0.94-1.12-2.2-1.51-3.25-0.64
		c-1.7,1.41-3.74,2.31-5.36,3.8c-0.8,0.73-1.55,0.99-2.12-0.38c-0.28-0.68-0.88-1.28-1.45-1.79c-1.2-1.06-2.94-0.77-3.16,0.52
		c-0.5,2.87-0.96,5.79-1.25,8.65c-0.34,3.33-0.59,6.76-0.37,10.17c0.14,2.17,2.45,3.73,4.33,2.56c0.69-0.43,0.94-0.31,1.3,0.2
		c0.86,1.21,1.74,0.94,2.67,0.07c1.8-1.69,3.98-2.92,5.58-4.73c0.75,1.04,1.59,1.86,2.56,2.54c0.84,0.59,1.74,0.37,2.53-0.06
		c0.9-0.49,0.35-1.24,0.16-1.88c-0.17-0.56-0.5-1.08-0.59-1.65c-0.22-1.35-1.31-2.69-0.07-4.09c1.47-1.65,2.96-3.29,4.2-5.2
		c-1.64,4.53-1.43,9.15-1.11,13.79c0.31,4.57,0.78,9.12,1.9,13.58c0.36,1.42,0.97,2.63,2.78,2.27c1.74-0.35,1.51-1.78,1.43-2.97
		c-0.1-1.35-0.4-2.69-0.66-4.02c-1.24-6.38-1.69-12.84-2.2-19.3c-0.21-2.71,0.24-5.18,1.73-7.46c0.48-0.74,0.82-1.58,1.26-2.35
		c1.67-2.92,3.62-5.6,6.44-7.55c1.33-0.92,1.72-0.7,2.02,0.91c0.2,1.05-0.15,2.01-0.22,3c-0.41,5.67,1.19,11.09,1.93,16.62
		c0.51,3.79,0.92,7.6,1.41,11.66c-2.02-1.09-2.68-3.19-4.48-4c-0.64-0.01-0.53,0.33-0.32,0.7c0.6,1.55,1.08,3.16,1.84,4.62
		c0.88,1.7,2.25,3.04,3.96,3.97c0.83,0.45,1.65,0.27,2.33-0.31C275.37,138.31,274.82,137.64,274.52,137.02z M238.3,126.77
		c-0.65-3.34,1.57-4.25,3.87-5.1C240.95,123.28,239.72,124.9,238.3,126.77z M245.82,121.6c-0.46,0.65-0.93,1.31-2.06,1.22
		c0.42-0.55,0.82-1.13,1.27-1.66c0.18-0.22,0.3-0.77,0.78-0.37C246.07,121.02,246.01,121.34,245.82,121.6z M243.18,116.31
		c-1.07,0.58-2.09,1.26-3.39,2.04c0.23-4.22,4.35-4.77,5.99-7.41C246.32,114.42,246.15,114.71,243.18,116.31z M256.4,137.73
		c-1.41-3.37-1.94-14.44-0.96-18.86c-0.07-0.56,0.22-0.99,0.45-1.5c0.31,0.39,0.21,0.77,0.13,1.15c-0.42,0.88,0.06,1.74,0.08,2.62
		c0.07,3.59,0.41,7.19,0.23,10.76C256.24,133.82,256.59,135.71,256.4,137.73z"/>
	<path class="st0" d="M376.82,100.02c-2.63-0.75-5.35-0.65-7.92,0.27c-3.71,1.34-7.29,2.86-10.57,5.24
		c-2.61,1.9-5.01,3.96-7.34,6.15c-0.96,0.91-1.5,2.22-0.85,3.38c0.67,1.2,1.95,0.56,3.07,0.38c3.72-0.61,5.47-3.75,7.94-5.96
		c1.08-0.97,2.26-1.71,3.93-2.62c-0.6,1.9-1.44,3.09-2.1,4.39c-2.1,4.15-3.88,8.47-5.96,12.64c-2.53,5.06-4.01,10.66-7.98,14.99
		c-0.99,1.08-1.49,2.59-2.21,3.91c-0.12,0.67-0.44,1.48,0.82,1.18c0.56-0.27,1.13-0.54,1.69-0.81c0.4-0.47,0.74,0.33,1.13,0.05
		c1.28-0.83,1.54-3.16,3.79-2.59c0.04,0.01,0.14-0.18,0.2-0.28c1.1-1.69,2.42-3.21,3.74-4.73c0.15-0.17,0.34-0.33,0.41-0.53
		c1.47-3.97,3.89-7.44,5.77-11.51c0.68,1.8,1.17,3.39,1.87,4.88c1.35,2.85,1.99,6.04,4.1,8.54c0.93,1.1,2.01,1.12,2.69-0.14
		c1.07-1.96,1.99-3.9,2.38-6.21c0.52-3.04,1.93-5.91,2.72-8.92c1.33-5.04,1.54-10.28,2.37-15.41
		C381.15,102.39,380.62,101.1,376.82,100.02z M376.99,105.53c-0.56,3.68-1.04,7.38-1.79,11.02c-0.88,4.28-1.92,8.53-3.73,12.85
		c-2.06-3.21-3.76-6.35-4.66-9.87c-0.08-0.31,0.04-0.7,0.14-1.03c0.89-3.03,2.07-5.9,4.57-8.03c1.6-1.36,2.53-3.09,2.85-5.16
		c0.13-0.84,0.39-1.84,1.36-1.79C376.79,103.58,377.14,104.56,376.99,105.53z"/>
	<path class="st0" d="M382.05,157.18c0-2.53-0.01-5.06,0.01-7.59c0-0.58-0.18-1.2,0.27-1.71c0.04,0.23,0.07,0.47,0.11,0.7
		c0.61,1.04,0.4,2.15,0.25,3.25c0.01,1.3,0.02,2.6,0.03,3.9c0.09,0.41,0.1,0.82-0.06,1.22c-0.08,0.16-0.21,0.24-0.38,0.27
		C382.2,157.2,382.13,157.19,382.05,157.18z"/>
	<path class="st0" d="M393.54,151.5c1.06,0.07,1.7-0.29,1.44-1.47c-0.22-0.98,0.57-2.08-0.38-2.96c0.26-0.27,0.66-0.27,0.66,0.07
		c0.02,1.55,0.41,3.14-0.28,4.65c-0.4,0.35-0.84,0.42-1.32,0.18C393.48,151.85,393.44,151.69,393.54,151.5z"/>
	<path class="st0" d="M383.48,153.91c0.9,1.29-0.51,2.37-0.33,3.59c-0.35,0.07-0.63-0.06-0.88-0.29c0,0,0.13-0.05,0.13-0.05
		c0.3-0.44,0.24-1.04,0.64-1.43C383.26,155.13,382.97,154.43,383.48,153.91z"/>
	<path class="st0" d="M392.07,156.52c-0.18,0.29-0.42,0.56-0.28,0.94c-0.23-0.1-0.47-0.19-0.7-0.29c0,0-0.12,0.04-0.12,0.04
		l-0.12-0.03C391,156.5,391.28,156.03,392.07,156.52z"/>
	<path class="st0" d="M392.74,157.46c0.44-0.34,0.41-0.87,0.54-1.33c0.34-0.05,0.45,0.08,0.31,0.4c0.01,0.31,0.03,0.61,0.04,0.92
		C393.34,157.45,393.04,157.46,392.74,157.46z"/>
	<path class="st0" d="M384.24,147.56c-0.04,0.79-0.08,1.59-0.12,2.38c-0.61,0.09-0.39-0.39-0.45-0.67c-0.09-0.57,0.2-1.18-0.19-1.72
		c-0.54-0.53,0.1-0.6,0.33-0.8c0.72-0.61,0.19-0.67-0.32-0.75c0.25-0.1,0.49-0.2,0.74-0.3c0.43-0.22,0.86-0.42,1.36-0.36
		c0.13,0,0.25,0.01,0.38,0.01c0.13,0.1,0.2,0.24,0.2,0.41c-0.29,0.48-0.39,1.03-0.6,1.53C385.19,147.69,384.63,147.2,384.24,147.56z
		"/>
	<path class="st0" d="M383.78,149.23c0.11,0.24,0.23,0.47,0.34,0.71c0.01,0.7,0.26,1.43-0.25,2.07c-0.65-0.8-0.22-1.74-0.35-2.61
		C383.55,149.25,383.63,149.19,383.78,149.23z"/>
	<path class="st0" d="M77.35,149.97c-0.09,0.04-0.19,0.08-0.29,0.11c-0.2-0.6-0.51-1.17-0.43-1.83
		C78.68,148.07,77.24,149.34,77.35,149.97z"/>
	<path class="st0" d="M388.47,145.02c0.97-0.01,1.94-0.02,2.91-0.02c0.13,0.49-0.37,0.88-0.22,1.38c-0.15,0.6-0.3,1.2-0.4,1.81
		c-0.1,0.13-0.22,0.22-0.38,0.27c-0.16,0.03-0.32,0.02-0.47-0.01c-0.51-0.27-0.43-0.96-0.9-1.27c-0.19-0.33-0.33-0.67-0.26-1.06
		c0.07-0.17,0.18-0.33-0.03-0.49c-0.11-0.07-0.21-0.15-0.3-0.25C388.36,145.25,388.38,145.13,388.47,145.02z"/>
	<path class="st0" d="M386.01,145.72c-0.01-0.13-0.02-0.25-0.03-0.38c0.25-0.11,0.5-0.22,0.75-0.33c0.26,0.19,0.59,0.29,0.77,0.58
		c0.06,0.15,0.06,0.31,0.01,0.47c-0.16,0.29-0.39,0.49-0.75,0.46C386.38,146.38,386.25,146,386.01,145.72z"/>
	<path class="st0" d="M393.16,145.73c0-0.24-0.01-0.49-0.01-0.73c0.37,0.19,0.74,0.19,1.11-0.01c0,0.36,0,0.72,0,1.08
		C393.94,145.83,393.63,145.54,393.16,145.73z"/>
	<path class="st0" d="M393.54,151.76c-0.43,0.04-0.69,0.26-0.75,0.7c-0.14,0.23-0.36,0.3-0.6,0.32c-0.41-0.02-0.76-0.18-1.06-0.46
		c-0.33-0.48-0.01-0.69,0.38-0.85c0.08,0,0.15-0.01,0.23-0.01c0.6,0.02,1.21,0.03,1.81,0.05
		C393.54,151.59,393.54,151.67,393.54,151.76z"/>
	<path class="st0" d="M392.8,147.45c0.24,0.02,0.48,0.04,0.73,0.05c-0.27,0.57-0.46,1.19-1.06,1.54
		C392.02,148.39,393.05,148.05,392.8,147.45z"/>
	<path class="st0" d="M391.33,150.08c0.24-0.01,0.49-0.01,0.73-0.02c-0.11,0.46-0.22,0.93-0.33,1.39c0,0,0.03-0.01,0.03-0.01
		c-0.53,0.26-0.61-0.23-0.82-0.49c-0.06-0.14-0.08-0.29-0.07-0.44C390.91,150.25,391.13,150.18,391.33,150.08z"/>
	<path class="st0" d="M385.58,147.43c-0.94,0.96-0.27,2.15-0.42,3.23c-0.17,1.14,0.03,2.33,0.07,3.49c-1.1-0.08-0.55-0.94-0.64-1.44
		c-0.28-1.7,0.4-3.47-0.35-5.15c0.25-0.67,0.88-0.3,1.31-0.46c0.1,0.07,0.14,0.14,0.12,0.22
		C385.64,147.39,385.61,147.43,385.58,147.43z"/>
	<path class="st0" d="M385.27,155.35c0.21,0.06,0.43,0.11,0.64,0.17c-0.04,0.56-0.48,1.06-0.26,1.67
		C385.22,156.63,384.72,156.1,385.27,155.35z"/>
	<path class="st0" d="M386.8,150.26c-0.04-0.33-0.07-0.66-0.11-0.99l0.15,0.04c0.31-0.32,0.65-0.34,1.01-0.12
		c0.26,0.29,0.34,0.65,0.4,1.02c0.03,0.53,0.3,1.07-0.02,1.61c-0.24,0.18-0.5,0.21-0.78,0.12
		C386.75,151.58,386.99,150.84,386.8,150.26z"/>
	<path class="st0" d="M386.75,155.37c0.02-0.95,0.03-1.91,0.05-2.86c0.46-0.16,0.8,0.02,1.09,0.36c0.14,0.49-0.04,0.97-0.06,1.45
		c-0.03,0.25-0.09,0.49-0.21,0.71C387.39,155.31,387.14,155.52,386.75,155.37z"/>
	<path class="st0" d="M387.8,152.87c-0.33-0.12-0.67-0.25-1-0.37c-0.02-0.22-0.03-0.44-0.05-0.66c0.23-0.29,0.49-0.01,0.74-0.04
		c0.23-0.01,0.46-0.02,0.7-0.03c0.18-0.18,0.39-0.2,0.62-0.11c0.13,0.1,0.19,0.23,0.21,0.39c-0.05,0.4-0.19,0.76-0.57,0.98
		C388.19,153.1,387.97,153.08,387.8,152.87z"/>
	<path class="st0" d="M386.34,154.62c-0.68-0.9-1.18-1.8-0.04-2.73C386.31,152.8,386.32,153.71,386.34,154.62z"/>
	<path class="st0" d="M386.75,155.37c0.21-0.12,0.42-0.23,0.62-0.35c0.43-0.03,0.87-0.35,1.29,0.06c0.12,0.21,0.16,0.43,0.12,0.67
		c-0.05,0.15-0.12,0.28-0.22,0.4c-0.48,0.18-1.07-0.19-1.48,0.31C386.62,156.2,386.75,155.77,386.75,155.37z"/>
	<path class="st0" d="M386.31,148.66c0.04,0.21,0.07,0.42,0.11,0.63c-0.25,0.44,0.13,1.07-0.42,1.42
		C386.12,150.03,385.66,149.26,386.31,148.66z"/>
	<path class="st0" d="M393.95,154.74c0.08-0.05,0.17-0.06,0.27-0.04c-0.21,0.61-0.42,1.23-0.63,1.84c-0.1-0.13-0.21-0.27-0.31-0.4
		C393.5,155.67,393.73,155.2,393.95,154.74z"/>
	<path class="st0" d="M391.01,155.72c-0.35,0.38-0.71,0.75-1.06,1.13c-0.12-0.02-0.25-0.03-0.37-0.05c0.21-0.52,0.96-0.71,0.85-1.42
		c0.2-0.21,0.42-0.2,0.65-0.07C391.16,155.47,391.14,155.6,391.01,155.72z"/>
	<path class="st0" d="M389.24,147.2c-0.14,0.21-0.27,0.43-0.41,0.64c-0.13,0.11-0.28,0.13-0.43,0.04c-0.12-0.12-0.22-0.25-0.3-0.39
		c-0.16-0.3-0.27-0.61-0.31-0.95c-0.04-0.44,0.02-0.86,0.37-1.18c0.12-0.01,0.23-0.02,0.35-0.02c0.14,0.01,0.29,0.03,0.43,0.04
		c0.15,0.24,0.14,0.47-0.07,0.67C388.99,146.44,389.11,146.82,389.24,147.2z"/>
	<path class="st0" d="M389.94,150c0.01-0.6,0.01-1.19,0.02-1.79c0.13,0.01,0.26,0.01,0.4,0.02c0,0.58,0,1.17,0,1.75
		C390.21,150.08,390.08,150.09,389.94,150z"/>
	<path class="st0" d="M391.43,147.8c-0.01-0.19-0.02-0.37-0.04-0.56c0.31-0.36,0.61-0.71,0.92-1.07c0.08,0.33,0.17,0.66,0.25,0.99
		C392.18,147.37,391.81,147.59,391.43,147.8z"/>
	<path class="st0" d="M388.16,145.37c-0.01,0.48-0.02,0.96-0.03,1.43c-0.43,0.1-0.57-0.19-0.69-0.5c-0.01-0.08-0.01-0.16-0.02-0.24
		c0-0.13,0-0.26,0-0.38C387.6,145.39,387.87,145.35,388.16,145.37z"/>
	<path class="st0" d="M389.94,150c0.14-0.01,0.27-0.01,0.41-0.02c0.33,0.03,0.66,0.06,0.98,0.09c-0.1,0.09-0.2,0.19-0.31,0.28
		c-0.49,0.49-1.09,0.44-1.7,0.34c-0.17-0.05-0.32-0.13-0.45-0.23c-0.09-0.16-0.09-0.31,0-0.47C389.22,150,389.58,150,389.94,150z"/>
	<path class="st0" d="M391.01,150.62c-0.71,0-1.42,0.01-2.12,0.01c-0.08-0.07-0.1-0.14-0.07-0.21c0.03-0.07,0.06-0.1,0.09-0.1
		c0.7,0.01,1.41,0.02,2.11,0.03C391.02,150.45,391.01,150.53,391.01,150.62z"/>
	<path class="st0" d="M387.11,148.26c0.3-0.18,0.59-0.42,0.98-0.33c0.24,0.37,0.07,0.71-0.05,1.06c-0.07,0.14-0.18,0.23-0.32,0.29
		c-0.3,0.01-0.59,0.02-0.89,0.03C386.93,148.97,387.02,148.61,387.11,148.26z"/>
	<path class="st0" d="M389.26,151.83c0.11-0.03,0.21-0.05,0.32-0.06c0.4,0.09,0.66,0.35,0.84,0.69c0.03,0.15,0.01,0.3-0.06,0.44
		c-0.14,0.1-0.27,0.09-0.39-0.03c-0.58,0.33-0.26,0.96-0.46,1.42c-0.09,0.17-0.18,0.18-0.28,0.01c-0.11-0.25-0.23-0.49-0.34-0.74
		C388.5,152.87,388.94,152.36,389.26,151.83z"/>
	<path class="st0" d="M391.02,152.52c-0.03,0.95-0.07,1.91-0.1,2.86c-0.16,0-0.33,0-0.49,0c-0.04-0.12-0.09-0.24-0.13-0.35
		c-0.13-0.15-0.16-0.32-0.07-0.5C390.57,153.89,389.84,152.83,391.02,152.52z"/>
	<path class="st0" d="M390.31,154.64c0,0.13-0.01,0.26-0.01,0.39c-0.52-0.66-0.33-1.42-0.32-2.16c0.09,0.02,0.17,0.03,0.26,0.03
		C390.65,153.46,390.53,154.05,390.31,154.64z"/>
	<path class="st0" d="M388.48,150.36c-0.38-0.46,0.05-0.94-0.02-1.41c-0.23-0.39-0.25-0.77,0.1-1.11c0.09,0,0.18,0,0.27,0.01
		c0.01,0.72,0.03,1.43,0.04,2.15c0.01,0.11,0.02,0.23,0.03,0.34C388.76,150.34,388.62,150.35,388.48,150.36z"/>
</g>
<rect class="st4" width="457" height="247"/>
</svg>
