<?xml version="1.0" encoding="utf-8"?>
<!-- Generator: Adobe Illustrator 26.0.2, SVG Export Plug-In . SVG Version: 6.00 Build 0)  -->
<svg version="1.1" id="图层_1" xmlns="http://www.w3.org/2000/svg" xmlns:xlink="http://www.w3.org/1999/xlink" x="0px" y="0px"
	 viewBox="0 0 457 247" style="enable-background:new 0 0 457 247;" xml:space="preserve">
<style type="text/css">
	.st0{fill:#818181;}
	.st1{fill-rule:evenodd;clip-rule:evenodd;fill:#818181;}
	.st2{clip-path:url(#SVGID_00000109738052386088052180000001534717238765066396_);fill:#818181;}
	.st3{clip-path:url(#SVGID_00000060015950221355836550000015736181542586301880_);fill:#818181;}
	.st4{fill:none;}
</style>
<path class="st0" d="M289.35,157.63v1.38c-0.86-0.56-1.72-0.84-2.63-0.84c-0.99,0-1.83,0.28-2.51,0.86
	c-0.68,0.58-1.02,1.25-1.02,2.08c0,0.81,0.35,1.51,1.02,2.06c0.69,0.55,1.52,0.84,2.52,0.84c0.51,0,0.96-0.06,1.32-0.21
	c0.2-0.08,0.39-0.16,0.63-0.27c0.2-0.12,0.44-0.24,0.68-0.42v1.41c-0.85,0.38-1.72,0.58-2.63,0.58c-1.39,0-2.57-0.39-3.56-1.15
	c-0.97-0.78-1.44-1.73-1.44-2.83c0-0.98,0.4-1.88,1.2-2.62c1-0.97,2.33-1.42,3.9-1.42C287.69,157.08,288.54,157.27,289.35,157.63"/>
<path class="st0" d="M291.21,161.05c0-1.09,0.49-2.01,1.5-2.81c1.01-0.78,2.19-1.17,3.58-1.17c1.38,0,2.56,0.38,3.56,1.17
	c0.98,0.81,1.48,1.75,1.48,2.85c0,1.11-0.5,2.07-1.49,2.84c-1.01,0.77-2.2,1.16-3.61,1.16c-1.25,0-2.4-0.35-3.37-1.03
	C291.76,163.29,291.21,162.3,291.21,161.05 M292.68,161.07c0,0.86,0.35,1.55,1.09,2.1c0.7,0.55,1.53,0.84,2.46,0.84
	c1.02,0,1.89-0.29,2.58-0.84c0.69-0.57,1.04-1.27,1.04-2.09c0-0.81-0.34-1.52-1.04-2.07c-0.68-0.56-1.54-0.83-2.54-0.83
	c-1,0-1.84,0.27-2.55,0.83C293.03,159.55,292.68,160.26,292.68,161.07"/>
<path class="st0" d="M310.83,157.63v1.38c-0.84-0.56-1.71-0.84-2.63-0.84c-0.99,0-1.85,0.28-2.52,0.86
	c-0.67,0.58-1.04,1.25-1.04,2.08c0,0.81,0.37,1.51,1.04,2.06c0.69,0.55,1.54,0.84,2.52,0.84c0.52,0,0.97-0.06,1.31-0.21
	c0.21-0.08,0.4-0.16,0.62-0.27c0.22-0.12,0.45-0.24,0.69-0.42v1.41c-0.84,0.38-1.71,0.58-2.64,0.58c-1.39,0-2.56-0.39-3.54-1.15
	c-0.98-0.78-1.46-1.73-1.46-2.83c0-0.98,0.42-1.88,1.22-2.62c1.01-0.97,2.3-1.42,3.9-1.42
	C309.17,157.08,310.01,157.27,310.83,157.63"/>
<polygon class="st0" points="314.64,160.29 318.38,157.21 320.34,157.21 315.97,160.72 320.36,164.96 318.41,164.96 314.93,161.51 
	314.64,161.75 314.64,164.96 313.18,164.96 313.18,157.21 314.64,157.21 "/>
<polygon class="st0" points="324.86,158.3 324.86,164.95 323.4,164.95 323.4,158.3 321.17,158.3 321.17,157.21 327.07,157.21 
	327.07,158.3 "/>
<path class="st0" d="M334.56,163.09h-4.14l-1.06,1.87h-1.57l4.78-8.23l4.6,8.23h-1.59L334.56,163.09z M333.98,161.99l-1.45-2.63
	l-1.5,2.63H333.98z"/>
<rect x="338.89" y="157.21" class="st0" width="1.48" height="7.75"/>
<polygon class="st0" points="344.66,157.21 344.66,163.86 347.49,163.86 347.49,164.96 343.2,164.96 343.2,157.21 "/>
<path class="st0" d="M143.24,122.67c-3.04,0.04-14.06-1.24-14.06-1.24l2.63-5.94c4.21,1.26,10.32,1.82,11.43,1.68V95.96
	c-2.25-0.86-4.71-1.63-7.36-2.3c9.21-4.59,25.97-8.63,38.61-8.63c13.51,0,32.72,2.75,32.72,17.35c0,9.91-15.44,14.91-24.06,16.34
	c3.1,3.87,8.11,8.16,16.47,13.66c7.1,4.69,15.96,7.85,21.97,9.79c-7.12,1.68-14.34,5.99-17.24,8.19c-2.7,2.05-5.53,4.41-7.6,7.36
	c-5.13-12.46-13.08-25.55-21.75-37.5c-5.64,0.96-8.9,1.19-17.53,1.88v19.58l8.16,5.47h-31.6l9.22-5.47V122.67z M180.63,113.62
	c3.86-1.28,6.74-3.06,8.64-5.36c1.62-1.88,2.41-3.83,2.41-5.79c0-8.72-11.86-11.74-20.38-11.74c-4.93,0-10.43,0.58-13.85,1.72v24.8
	C166.53,117.25,176.15,115.1,180.63,113.62"/>
<path class="st0" d="M308.98,87.41c7.43,0,14.11,1.22,20.08,3.63c6.44,2.65,11.31,6.87,14.55,12.64c2.57,4.6,3.88,9.68,3.88,15.24
	c0,5.76-1.61,10.95-4.86,15.55c-3.58,5.06-9.01,8.72-16.27,11.02c-5.15,1.66-10.68,2.51-16.55,2.51c-10.5,0-19.48-2.34-26.92-7.03
	c-8.89-5.55-13.33-13.35-13.33-23.35c0-9.87,3.98-17.5,11.94-22.89C288.55,89.97,297.73,87.54,308.98,87.41 M308.9,92.19
	c-5.13,0-9.57,1.05-13.35,3.13c-6.97,3.87-10.45,11.66-10.45,23.37c0,7.45,1.66,13.24,5.01,17.45c1.73,2.15,4.25,3.85,7.63,5.13
	c3.38,1.27,6.99,1.92,10.87,1.92c7.55,0,13.28-2.13,17.2-6.43c3.93-4.29,5.89-10.55,5.89-18.79c0-8.53-1.52-14.78-4.52-18.73
	c-1.69-2.2-4.11-3.92-7.32-5.15C316.66,92.87,313,92.22,308.9,92.19"/>
<polygon class="st0" points="248.15,141.67 256.3,147.15 225.75,147.15 233.92,141.67 233.92,93.7 225.75,88.23 256.3,88.23 
	248.15,93.7 "/>
<path class="st0" d="M350.37,86.67c0.8,0,1.59,0.21,2.35,0.62c0.77,0.41,1.36,1,1.79,1.77c0.43,0.77,0.64,1.57,0.64,2.4
	c0,0.82-0.21,1.62-0.63,2.38c-0.42,0.76-1.01,1.35-1.77,1.77c-0.76,0.42-1.55,0.63-2.38,0.63c-0.83,0-1.62-0.21-2.38-0.63
	c-0.76-0.42-1.35-1.01-1.77-1.77c-0.42-0.76-0.64-1.55-0.64-2.38c0-0.83,0.21-1.63,0.65-2.4c0.43-0.77,1.03-1.36,1.79-1.77
	C348.78,86.88,349.57,86.67,350.37,86.67 M350.37,87.47c-0.67,0-1.33,0.17-1.97,0.51c-0.64,0.35-1.13,0.84-1.49,1.48
	c-0.35,0.64-0.54,1.31-0.54,2c0,0.69,0.18,1.35,0.53,1.98c0.36,0.63,0.85,1.13,1.49,1.48c0.63,0.35,1.3,0.53,1.98,0.53
	c0.69,0,1.35-0.18,1.99-0.53c0.63-0.35,1.13-0.85,1.48-1.48c0.35-0.63,0.52-1.29,0.52-1.98c0-0.69-0.18-1.36-0.54-2
	c-0.36-0.64-0.86-1.13-1.49-1.48C351.69,87.64,351.04,87.47,350.37,87.47 M348.27,94.11v-5.15h1.77c0.6,0,1.04,0.05,1.31,0.14
	c0.27,0.1,0.49,0.26,0.64,0.5c0.16,0.24,0.24,0.49,0.24,0.76c0,0.38-0.14,0.7-0.4,0.98c-0.27,0.28-0.63,0.44-1.07,0.47
	c0.18,0.07,0.33,0.17,0.44,0.27c0.21,0.21,0.46,0.54,0.76,1.02l0.63,1.01h-1.01l-0.46-0.81c-0.36-0.64-0.65-1.04-0.87-1.2
	c-0.16-0.12-0.38-0.18-0.67-0.18h-0.49v2.19H348.27z M349.1,91.21h1.01c0.48,0,0.81-0.07,0.99-0.21c0.17-0.15,0.26-0.34,0.26-0.57
	c0-0.15-0.04-0.29-0.13-0.41c-0.08-0.12-0.21-0.21-0.35-0.27c-0.15-0.06-0.43-0.09-0.83-0.09h-0.94V91.21z"/>
<rect class="st4" width="457" height="247"/>
</svg>
