<svg xmlns="http://www.w3.org/2000/svg" viewBox="0 0 480.74 44.42"><g id="图层_2" data-name="图层 2"><g id="图层_1-2" data-name="图层 1"><path d="M28.79,15.36H20.68l-4-10.08H6.13l2.58,9.53H.36L0,.06H22.34Zm-9.56,13.7a2,2,0,0,0,1.41-.55,1.84,1.84,0,0,0,.55-1.36V23H8.1V36.61A1.87,1.87,0,0,0,8.69,38a1.93,1.93,0,0,0,1.38.55H29.64l-2,5.84H7.13a6.78,6.78,0,0,1-4.8-2,6.78,6.78,0,0,1-2-4.79V17.2H28.93V28.14a6.65,6.65,0,0,1-.52,2.64,6.67,6.67,0,0,1-3.59,3.59,6.65,6.65,0,0,1-2.64.52H13l2.15-5.83ZM39.83,3V35.94H32.7V3Zm9.64,34.71A6.44,6.44,0,0,1,49,40.33a6.72,6.72,0,0,1-1.45,2.12,6.45,6.45,0,0,1-2.15,1.44,6.71,6.71,0,0,1-2.65.53h-5l2.25-6h.49a1.89,1.89,0,0,0,1.4-.56,1.94,1.94,0,0,0,.54-1.41V0h7.13Z"/><path d="M99.91,10.08h8.48v4.3h-54v-4.3h8.47l-.61-2.15h10l.68,2.15h17l.68-2.15h10ZM56.35,35.57h8.29l-2,8.79H54.39ZM105.74,6.76H57V2.46H76.26L75.21.06h10l1,2.4h19.53Zm-1.1,20.09A7.16,7.16,0,0,1,104,29.3a6.53,6.53,0,0,1-1.44,2,7,7,0,0,1-2.09,1.32,6.62,6.62,0,0,1-2.55.49H58.13V16.4h46.51V26.85ZM66.49,22.67H96.28V20.58H66.49Zm27.89,6.27A1.89,1.89,0,0,0,96.28,27v-.18H66.49v2.09ZM76.69,39.38c0,.45.11.71.33.77a2.35,2.35,0,0,0,.59.09H98.13l-1.85,4.12H71.59A4.4,4.4,0,0,1,69.8,44a3.6,3.6,0,0,1-1.22-.89A3.44,3.44,0,0,1,67.87,42a3.65,3.65,0,0,1-.22-1.17V34.46h9Zm5.09-4.92h8.67L92.29,39H83.63Zm24.58,1.11,2,8.79h-8.11l-2-8.79Z"/><path d="M144.51,4.67h22.73V11H144.51V32.38h10.26V38.7H144.51v5.59h-8.29V38.7H126V32.38h10.26V11H113.48V4.67h22.74V.12h8.29Zm-14.93,9.64-7.62,30h-8.48l7.62-30Zm30,0,7.62,30h-8.48l-7.62-30Z"/><path d="M173.94,4.73h8.23l-4,36.74h-8.3ZM191.81.18v37a1.32,1.32,0,0,0,.4.95,1.3,1.3,0,0,0,.95.4h17.51l-2.09,5.71H189.29a5.87,5.87,0,0,1-5.89-5.9V.18Zm16.84,34h-8.6l-6-33h8.6Zm15.29,9.09h-8.6L207.42,4.73H216Z"/><path d="M280.73.06l-1.84,4.12h29V37.66a6.67,6.67,0,0,1-2,4.79,6.78,6.78,0,0,1-4.73,2H260.5V4.18H270L271.81.06Zm18.59,10.2H269V15.6h30.28Zm0,11.43H269V27h30.28Zm0,11.36H269v5.28h28.32a1.91,1.91,0,0,0,1.41-.55,1.83,1.83,0,0,0,.55-1.35Z"/><path d="M345.15.12V5.28h22v33.3a5.48,5.48,0,0,1-.46,2.27,5.88,5.88,0,0,1-1.22,1.82,5.79,5.79,0,0,1-1.85,1.22,5.55,5.55,0,0,1-2.24.47H314.25V5.28h21.93V.12ZM322.79,11.37V21.81h13.39V11.37Zm0,27h13.39V27.89H322.79Zm22.36-27V21.81h13.46V11.37Zm11.49,27a1.91,1.91,0,0,0,2-2V27.89H345.15V38.4Z"/><path d="M415.49,8.35h8.3v6.33h-.06V38.83a5.36,5.36,0,0,1-1.57,3.87,5.18,5.18,0,0,1-3.84,1.59H403.27l1.84-5.71h9a1.37,1.37,0,0,0,1.41-1.41V14.68h-20L379.74,44.29h-9.15l15.78-29.61H370.59V8.35h5.46L373,1.6h9.95l3.14,6.75h3.68L394.11.12h9.16l-4.36,8.23ZM411,34.28H401L395.53,20.4h10Z"/><path d="M430.73,4.73H439l-4,36.74h-8.3ZM448.61.18v37a1.29,1.29,0,0,0,.4.95,1.27,1.27,0,0,0,.95.4h17.51l-2.09,5.71H446.09a5.87,5.87,0,0,1-5.9-5.9V.18Zm16.83,34h-8.6l-6-33h8.6Zm15.3,9.09h-8.6L464.21,4.73h8.6Z"/></g></g></svg>